<svg width="99" height="99" viewBox="0 0 99 99" fill="none" xmlns="http://www.w3.org/2000/svg">
<path d="M85.2727 18.9742C91.627 26.5123 95.5133 36.0271 96.2057 45.8661C96.7976 54.2864 95.156 62.8073 91.3591 70.3464C87.7855 77.4154 82.4473 83.5688 75.9144 88.0581C69.2139 92.648 61.363 95.4957 53.2556 96.1544C45.0028 96.8245 36.616 95.3727 29.1347 91.7991C21.9875 88.393 15.7002 83.189 11.0767 76.7452C6.3753 70.1898 3.34876 62.4395 2.50008 54.4091C1.62901 46.1676 2.87978 37.7136 6.27463 30.1412C9.52437 22.8935 14.6056 16.461 20.9712 11.6814C27.4149 6.84576 35.0647 3.66299 43.0724 2.6244C45.1272 2.35638 47.2043 2.23353 49.2815 2.23353L48.1648 1.11676V36.0824C48.1648 37.6906 48.0978 39.3099 48.1648 40.918V40.985C48.1648 42.4257 50.3984 42.4257 50.3984 40.985V6.01938C50.3984 4.41125 50.4654 2.79189 50.3984 1.18377V1.11676C50.3984 0.513722 49.8847 0 49.2816 0C40.6492 0.0111676 32.0948 2.27813 24.6237 6.59995C17.443 10.7543 11.3456 16.7513 7.05723 23.8538C2.62371 31.2019 0.189155 39.6781 0.010474 48.2442C-0.168207 56.8656 1.94245 65.4758 6.09685 73.0247C10.106 80.2948 15.969 86.5039 22.9823 90.9485C30.23 95.5384 38.6614 98.1404 47.2379 98.4978C55.8481 98.8551 64.4917 96.9232 72.1307 92.9252C79.4901 89.0724 85.8109 83.3322 90.4008 76.4084C95.136 69.2724 97.9054 60.9189 98.4527 52.3875C99.1004 42.2475 96.5542 31.9845 91.1938 23.3412C89.8983 21.2528 88.4354 19.2538 86.8497 17.3778C86.4588 16.9199 85.6659 16.9757 85.2751 17.3778C84.8172 17.8468 84.8842 18.5057 85.2751 18.9747L85.2727 18.9742Z" fill="#DD4F30"/>
<path d="M70.6985 31.2817C74.4508 35.7375 76.7624 41.3772 77.1757 47.1955C77.5331 52.232 76.5615 57.3245 74.2721 61.8361C69.9168 70.424 61.2397 76.3762 51.6134 77.1469C41.9089 77.9174 32.2376 73.551 26.5654 65.5996C20.8589 57.6147 19.6638 46.8828 23.7065 37.9051C27.6597 29.1385 36.002 22.8065 45.5505 21.5447C46.7789 21.3772 48.0297 21.3102 49.2693 21.3102C48.9007 20.9417 48.521 20.562 48.1525 20.1934V40.9986C48.1525 42.4392 50.3861 42.4392 50.3861 40.9986V20.1934C50.3861 19.5904 49.8724 19.0767 49.2694 19.0767C43.9984 19.0878 38.7829 20.4614 34.2155 23.0858C29.7819 25.6321 26.0184 29.3397 23.3829 33.7172C20.6692 38.2065 19.1951 43.3995 19.0834 48.6482C18.9717 53.9417 20.2783 59.2461 22.8357 63.8808C25.3037 68.3366 28.9108 72.1448 33.2214 74.8585C37.6549 77.6504 42.8032 79.2251 48.0296 79.4485C53.3343 79.6718 58.6723 78.4657 63.3739 75.9978C67.8856 73.6302 71.7496 70.0791 74.5526 65.8242C77.4337 61.4577 79.0978 56.3541 79.4327 51.1502C79.8236 44.941 78.2489 38.6425 74.9657 33.3603C74.1728 32.076 73.2682 30.87 72.2967 29.7085C71.9058 29.2506 71.1129 29.3064 70.7221 29.7085C70.2419 30.1663 70.3089 30.8252 70.6998 31.2831L70.6985 31.2817Z" fill="#DD4F30"/>
<path d="M56.4367 49.2723C56.4144 52.12 54.7281 54.7222 52.1037 55.8612C49.4457 57.0115 46.263 56.3638 44.2195 54.3313C42.187 52.2988 41.5393 49.1048 42.6895 46.4471C43.8063 43.8673 46.3861 42.1365 49.2002 42.114C53.1647 42.0805 56.392 45.3301 56.4367 49.2723C56.4479 50.7129 58.6815 50.7131 58.6705 49.2725C58.6258 44.8947 55.51 40.908 51.1659 40.0705C47.3354 39.3335 43.4157 40.9751 41.3273 44.2807C39.3283 47.4412 39.4399 51.7295 41.6623 54.7446C43.9294 57.8269 47.8269 59.3009 51.5679 58.3852C55.7223 57.3578 58.6482 53.5161 58.6817 49.2725C58.6817 47.8319 56.4478 47.8317 56.4367 49.2723Z" fill="#DD4F30"/>
</svg>
