<svg width="74" height="74" viewBox="0 0 74 74" fill="none" xmlns="http://www.w3.org/2000/svg">
<path d="M19.9664 69.8521C19.186 69.447 18.8824 68.4862 19.2876 67.7063C19.6928 66.926 20.6535 66.6224 21.4334 67.0275C26.2012 69.5047 31.5051 70.8156 37.0006 70.8156C55.6767 70.8156 70.8176 55.6747 70.8176 36.9986C70.8176 31.4982 69.5044 26.19 67.0228 21.4187C66.6177 20.6388 66.9207 19.6781 67.7005 19.2724C68.4803 18.8667 69.4411 19.1703 69.8468 19.9501C72.5625 25.1718 74 30.9835 74 36.9978C74 57.4315 57.4339 73.9976 37.0002 73.9976C30.9909 73.9976 25.1842 72.5622 19.9653 69.8515L19.9664 69.8521ZM52.3796 3.33784C53.1788 3.7036 53.5301 4.64772 53.1644 5.44699C52.7986 6.24627 51.8545 6.59758 51.0552 6.2318C46.6832 4.23149 41.9172 3.18245 37.0001 3.18245C18.3226 3.18245 3.18314 18.3219 3.18314 36.9994C3.18314 41.9248 4.23548 46.6981 6.24244 51.0755C6.60876 51.8742 6.25798 52.819 5.45874 53.1853C4.66005 53.5516 3.71532 53.2008 3.34902 52.4021C1.15276 47.6105 0 42.3849 0 36.9998C0 16.5646 16.5661 0 36.9998 0C42.3764 0 47.5937 1.14891 52.3794 3.3385L52.3796 3.33784Z" fill="#6B69E9"/>
<path d="M41.6631 41.6377L66.6607 6.54334L31.5664 31.5409L6.56879 66.6353L41.6631 41.6377ZM4.55824 71.9764C3.72903 72.5669 2.61731 72.5669 1.78809 71.9764C0.714654 71.2115 0.464337 69.7213 1.22917 68.6472L29.2845 29.2604L68.6713 1.20509C69.7453 0.440256 71.2356 0.690573 72.0005 1.76456C72.591 2.59322 72.591 3.70548 72.0005 4.53414L43.9451 43.921L4.55824 71.9764Z" fill="#6B69E9"/>
<path d="M29.2417 31.7156L31.4924 29.4655L43.8701 41.8432L41.6194 44.0939L29.2417 31.7156Z" fill="#6B69E9"/>
</svg>
