<svg width="78" height="78" viewBox="0 0 78 78" fill="none" xmlns="http://www.w3.org/2000/svg">
<path d="M71.7378 8.1618L74.8463 5.08891C75.3858 4.55624 75.39 3.68702 74.8574 3.14761C74.3247 2.60634 73.4555 2.6039 72.9161 3.13657L69.8088 6.2082C62.1839 -0.687197 50.6295 -1.98245 42.4852 3.04587C42.2731 3.16418 0.407576 44.681 0.407576 44.681C-0.13185 45.2136 -0.136134 46.0829 0.396542 46.6223L30.5401 77.1095C30.8079 77.3816 31.1623 77.5171 31.5166 77.5171C31.8654 77.5171 32.2141 77.3853 32.482 77.1205C32.482 77.1205 74.58 35.3175 74.6962 35.1151C79.8428 26.9839 78.5505 15.8636 71.7391 8.16338L71.7378 8.1618ZM72.3514 33.6839C72.2638 33.8323 72.1608 33.9806 72.0578 34.1259L31.5259 74.2012L3.31409 45.6677L43.8476 5.59082C43.9929 5.49213 44.1375 5.39466 44.3324 5.28311C51.4504 0.894725 61.1296 2.136 67.8569 8.13897L63.1859 12.7566C62.3578 12.2662 61.4218 11.9836 60.433 11.9836C58.9955 11.9836 57.6415 12.5396 56.6215 13.5504C55.5892 14.5692 55.0161 15.9288 55.0081 17.3786C55.0001 18.8284 55.5561 20.1935 56.5761 21.2245C57.6035 22.2641 58.9735 22.8355 60.4343 22.8355C61.8736 22.8355 63.2271 22.2795 64.2501 21.2675C65.2799 20.2487 65.8524 18.8891 65.861 17.4393C65.8665 16.4616 65.5962 15.5324 65.1181 14.7096L69.7878 10.092C75.7117 16.8844 76.8446 26.5831 72.352 33.6855L72.3514 33.6839ZM59.4542 18.3741C59.722 18.6463 60.0763 18.7817 60.4306 18.7817C60.7794 18.7817 61.1282 18.6487 61.3961 18.3852L63.0273 16.7731C63.0782 16.9846 63.1137 17.2016 63.1125 17.4241C63.1082 18.1394 62.8256 18.8125 62.3175 19.3145C61.2987 20.3198 59.5327 20.31 58.5262 19.2925C58.0235 18.7831 57.7489 18.1088 57.7532 17.3934C57.7575 16.678 58.0401 16.0049 58.5495 15.5029C59.0533 15.0045 59.7221 14.7299 60.4319 14.7299C60.66 14.7299 60.8806 14.7667 61.0952 14.8219L59.4652 16.4328C58.9264 16.9655 58.9208 17.8347 59.4542 18.3741Z" fill="#CE5700"/>
<path d="M42.4762 21.3867C41.7198 21.2758 41.032 21.8066 40.9272 22.5581L36.8699 51.7758C36.7657 52.5267 37.2898 53.22 38.0413 53.3248C38.1057 53.3347 38.1688 53.3383 38.2319 53.3383C38.9062 53.3383 39.4953 52.8412 39.5897 52.1547L43.6469 22.937C43.7518 22.1842 43.2271 21.4922 42.4762 21.3867Z" fill="#CE5700"/>
<path d="M50.8355 28.392C49.2841 28.392 47.8227 28.9933 46.7188 30.0838C44.4244 32.3518 44.4035 36.0665 46.6746 38.3622C47.7829 39.4827 49.2603 40.1006 50.8363 40.1006C52.3877 40.1006 53.8491 39.4992 54.9513 38.4105C56.0632 37.3108 56.6811 35.844 56.6909 34.2803C56.6989 32.7165 56.0976 31.243 54.9991 30.1321C53.8927 29.0098 52.4121 28.392 50.8355 28.392ZM53.0215 36.4576C51.8445 37.6247 49.7948 37.6149 48.6276 36.4312C47.4219 35.212 47.4329 33.24 48.6509 32.0361C49.2369 31.4568 50.013 31.1381 50.8369 31.1381C51.673 31.1381 52.4601 31.466 53.0473 32.0624C53.6309 32.6527 53.9496 33.4343 53.9453 34.2649C53.9404 35.0955 53.6124 35.8727 53.0215 36.4576Z" fill="#CE5700"/>
<path d="M29.679 34.6093C28.1275 34.6093 26.6662 35.2106 25.5623 36.3023C23.2679 38.5704 23.247 42.2832 25.5169 44.5776C26.6252 45.6981 28.1036 46.3172 29.6803 46.3172C31.2305 46.3172 32.6913 45.7171 33.7953 44.6284C34.9091 43.5275 35.525 42.0607 35.5337 40.4969C35.5416 38.9314 34.9403 37.4584 33.8419 36.3488C32.733 35.227 31.2556 34.6093 29.679 34.6093ZM31.8662 42.6749C30.6856 43.8408 28.6383 43.8297 27.4698 42.6473C26.2659 41.4293 26.2763 39.4592 27.4943 38.2547C28.0804 37.6754 28.8564 37.3554 29.6803 37.3554C30.5164 37.3554 31.3016 37.6834 31.8895 38.2798C32.4743 38.8701 32.7918 39.6517 32.7875 40.4822C32.7838 41.3128 32.4541 42.0925 31.8662 42.6749Z" fill="#CE5700"/>
</svg>
