<svg width="89" height="83" viewBox="0 0 89 83" fill="none" xmlns="http://www.w3.org/2000/svg">
<path d="M88.6027 0.579045C88.4012 0.419514 88.1413 0.361097 87.8912 0.418016L44.459 10.4407L1.02683 0.418016C0.781921 0.361093 0.516769 0.419515 0.315311 0.579045C0.116077 0.738575 0 0.980503 0 1.23515V71.6983C0 72.0878 0.270387 72.4278 0.65085 72.5155L44.2709 82.5816C44.3316 82.5966 44.3952 82.6034 44.4589 82.6034C44.5226 82.6034 44.5862 82.5966 44.6469 82.5816L88.267 72.5155C88.6475 72.4278 88.9178 72.0878 88.9178 71.6983V1.23515C88.9178 0.980503 88.8017 0.738589 88.6025 0.579045H88.6027ZM1.67699 2.28895L43.6194 11.9693V80.7107L1.67699 71.0303V2.28895ZM87.2394 71.0323L45.2971 80.7127V11.9693L87.2394 2.28895V71.0323Z" fill="#985797"/>
<path d="M10.7672 17.8088L34.4447 23.2733C34.5084 23.2882 34.5721 23.295 34.6342 23.295C35.0169 23.295 35.3607 23.0336 35.4513 22.6441C35.5555 22.1925 35.2738 21.7416 34.8222 21.6375L11.1447 16.173C10.693 16.0704 10.2437 16.3505 10.1381 16.8022C10.0339 17.2538 10.3163 17.7047 10.7672 17.8088L10.7672 17.8088Z" fill="#985797"/>
<path d="M10.7174 26.7857L34.393 32.2502C34.4567 32.2652 34.5203 32.2719 34.5825 32.2719C34.9652 32.2719 35.309 32.0105 35.3996 31.6211C35.5037 31.1694 35.2221 30.7186 34.7705 30.6144L11.0949 25.15C10.6485 25.0473 10.1939 25.3275 10.0882 25.7791C9.98414 26.2322 10.2665 26.6816 10.7174 26.7857L10.7174 26.7857Z" fill="#985797"/>
<path d="M34.8206 39.4368L11.145 33.9723C10.6933 33.8682 10.2439 34.1498 10.1383 34.6014C10.0342 35.0531 10.3158 35.5039 10.7675 35.6081L34.4431 41.0726C34.5068 41.0875 34.5704 41.0943 34.6326 41.0943C35.0153 41.0943 35.3591 40.8329 35.4497 40.4434C35.5538 39.9903 35.2722 39.5409 34.8206 39.4368H34.8206Z" fill="#985797"/>
<path d="M10.7174 44.585L34.393 50.0494C34.4567 50.0644 34.5203 50.0712 34.5825 50.0712C34.9652 50.0712 35.309 49.8098 35.3996 49.4203C35.5037 48.9687 35.2221 48.5193 34.7705 48.4137L11.0949 42.9492C10.6485 42.8451 10.1939 43.1252 10.0882 43.5783C9.98414 44.03 10.2665 44.4793 10.7174 44.5849L10.7174 44.585Z" fill="#985797"/>
<path d="M34.8206 58.5471L11.145 53.0826C10.6933 52.98 10.2439 53.2587 10.1383 53.7118C10.0342 54.1634 10.3158 54.6128 10.7675 54.7184L34.4431 60.1829C34.5068 60.1979 34.5704 60.2046 34.6326 60.2046C35.0153 60.2046 35.3591 59.9432 35.4497 59.5538C35.5538 59.1021 35.2722 58.6527 34.8206 58.5471L34.8206 58.5471Z" fill="#985797"/>
<path d="M34.7708 67.526L11.0951 62.0615C10.6488 61.9559 10.1941 62.2375 10.0885 62.6906C9.98442 63.1423 10.266 63.5916 10.7177 63.6972L34.3933 69.1602C34.457 69.1752 34.5206 69.1819 34.5828 69.1819C34.9655 69.1819 35.3093 68.9205 35.3999 68.5311C35.504 68.0817 35.2224 67.6301 34.7708 67.5259L34.7708 67.526Z" fill="#985797"/>
<path d="M54.5254 23.2944C54.5876 23.2944 54.6497 23.2876 54.7134 23.2727L78.389 17.8082C78.8422 17.7041 79.1223 17.2532 79.0182 16.8015C78.9141 16.3499 78.4699 16.0698 78.0115 16.1724L54.3359 21.6369C53.8828 21.741 53.6027 22.1919 53.7068 22.6435C53.7974 23.0322 54.1412 23.2944 54.5254 23.2944L54.5254 23.2944Z" fill="#985797"/>
<path d="M78.063 25.1522L54.3874 30.6167C53.9343 30.7208 53.6542 31.1717 53.7583 31.6233C53.8489 32.0105 54.1927 32.2742 54.5754 32.2742C54.6376 32.2742 54.6997 32.2674 54.7634 32.2525L78.439 26.788C78.8922 26.6839 79.1723 26.233 79.0682 25.7814C78.9641 25.3305 78.5229 25.0489 78.063 25.1522L78.063 25.1522Z" fill="#985797"/>
<path d="M54.5254 41.0934C54.5876 41.0934 54.6498 41.0867 54.7134 41.0717L78.3891 35.6072C78.8422 35.5031 79.1223 35.0522 79.0182 34.6006C78.9141 34.149 78.4699 33.8674 78.0116 33.9715L54.3379 39.4375C53.8847 39.5416 53.6046 39.9925 53.7087 40.4441C53.7979 40.8313 54.1416 41.0935 54.5258 41.0935L54.5254 41.0934Z" fill="#985797"/>
<path d="M78.063 42.9491L54.3874 48.4136C53.9343 48.5177 53.6542 48.9686 53.7583 49.4202C53.8489 49.8075 54.1927 50.0711 54.5754 50.0711C54.6376 50.0711 54.6997 50.0644 54.7634 50.0494L78.439 44.5849C78.8922 44.4808 79.1723 44.0299 79.0682 43.5783C78.9641 43.1289 78.5229 42.845 78.063 42.9491L78.063 42.9491Z" fill="#985797"/>
<path d="M54.5254 60.2038C54.5876 60.2038 54.6497 60.197 54.7134 60.182L78.389 54.7175C78.8422 54.6134 79.1223 54.1626 79.0182 53.7109C78.9141 53.2593 78.4699 52.9762 78.0115 53.0818L54.3359 58.5463C53.8828 58.6504 53.6027 59.1013 53.7068 59.5529C53.7974 59.9416 54.1412 60.2038 54.5254 60.2038L54.5254 60.2038Z" fill="#985797"/>
<path d="M78.063 62.0617L54.3874 67.5262C53.9343 67.6303 53.6542 68.0812 53.7583 68.5329C53.8489 68.9201 54.1927 69.1837 54.5754 69.1837C54.6376 69.1837 54.6997 69.177 54.7634 69.162L78.439 63.6975C78.8922 63.5934 79.1723 63.1425 79.0682 62.6909C78.9641 62.2385 78.5229 61.9599 78.063 62.0618L78.063 62.0617Z" fill="#985797"/>
</svg>
