<svg width="68" height="83" viewBox="0 0 68 83" fill="none" xmlns="http://www.w3.org/2000/svg">
<path d="M27.4042 60.3232L21.0914 49.3009V47.8312H21.8263C23.0064 47.8312 23.9973 47.7199 24.7989 47.4972C25.6228 47.2746 26.2686 46.9071 26.7362 46.395C27.2038 45.8829 27.4821 45.1814 27.5712 44.2907H21.0914V42.1531H27.5378C27.3819 41.3292 27.0702 40.6612 26.6026 40.149C26.135 39.6146 25.5004 39.2249 24.6987 38.98C23.9194 38.7351 22.9619 38.6126 21.8263 38.6126H21.0914V36.4749H34.9194V38.6126H28.6066C29.1188 39.0357 29.5419 39.5367 29.8759 40.1156C30.2099 40.6946 30.4214 41.3737 30.5105 42.1531H34.9194V44.2907H30.5773C30.4214 45.9163 29.7979 47.1855 28.7068 48.0984C27.638 48.9891 26.2129 49.557 24.4315 49.8019L30.8111 60.3232H27.4042Z" fill="#62A543"/>
<path d="M41.3505 23.7526C42.2612 23.0208 42.7921 21.9179 42.7967 20.7501V18.1563C42.7967 17.1246 42.3868 16.1345 41.6573 15.4052C40.9278 14.6758 39.9377 14.2658 38.9062 14.2658H18.1561C15.7494 14.2629 13.4421 13.3053 11.74 11.6037C10.0385 9.90159 9.0809 7.59433 9.07794 5.18762C9.07794 4.49981 9.35122 3.83979 9.83754 3.35346C10.3239 2.86714 10.9839 2.59386 11.6717 2.59386H40.203C40.8908 2.59386 41.5509 2.86714 42.0372 3.35346C42.5235 3.83979 42.7968 4.49981 42.7968 5.18762C42.8026 7.25225 42.0968 9.25537 40.7983 10.8602C40.3502 11.4189 40.4393 12.2353 40.998 12.6834C41.5567 13.1321 42.373 13.0424 42.8218 12.4837C44.4916 10.4196 45.3988 7.84278 45.3907 5.18752C45.3907 3.81191 44.8441 2.49238 43.8715 1.5192C42.8982 0.546542 41.5787 0 40.2031 0H11.6718C10.2962 0 8.97666 0.546542 8.00348 1.5192C7.03082 2.49244 6.48428 3.81194 6.48428 5.18752C6.48718 8.93394 8.29176 12.4506 11.3331 14.638C10.6615 14.9489 10.0924 15.4456 9.69298 16.0686C9.2935 16.6916 9.08044 17.4158 9.07813 18.1564V20.7501C9.07813 21.7818 9.48803 22.7719 10.2175 23.5013C10.947 24.2306 11.9371 24.6407 12.9687 24.6407H33.7188C37.8451 24.6453 41.8005 26.2862 44.7185 29.2035C47.636 32.1215 49.2767 36.0769 49.2813 40.2032C49.2813 40.9194 49.862 41.5001 50.5782 41.5001C51.2944 41.5001 51.8751 40.9194 51.8751 40.2032C51.8704 36.7433 50.8775 33.357 49.0132 30.4425C47.1483 27.528 44.4903 25.207 41.3506 23.7526L41.3505 23.7526ZM11.6719 20.7501V18.1563C11.6719 17.4402 12.2527 16.8595 12.9688 16.8595H38.9064C39.2503 16.8595 39.5803 16.9961 39.8235 17.2393C40.0667 17.4824 40.2033 17.8124 40.2033 18.1563V20.7501C40.2033 21.094 40.0667 21.424 39.8235 21.6672C39.5803 21.9103 39.2503 22.047 38.9064 22.047H12.9688C12.2527 22.047 11.6719 21.4663 11.6719 20.7501Z" fill="#62A543"/>
<path d="M36.3127 73.9218H11.6719C9.26524 73.919 6.95798 72.9613 5.25588 71.2598C3.55437 69.5577 2.59676 67.2504 2.59379 64.8437V40.203C2.58974 35.5737 4.65205 31.1844 8.21721 28.2317C8.7678 27.7731 8.84308 26.9556 8.38511 26.4051C7.92716 25.8539 7.10907 25.7786 6.55851 26.2366C2.39975 29.682 -0.00458808 34.803 6.57325e-06 40.2029V64.8436C0.00348043 67.9382 1.23435 70.9048 3.42228 73.0932C5.61082 75.2812 8.57734 76.5119 11.6719 76.5155H36.3126C37.0288 76.5155 37.6095 75.9348 37.6095 75.2186C37.6095 74.5024 37.0288 73.9218 36.3127 73.9218Z" fill="#62A543"/>
<path d="M62.2502 83H44.0939C42.7183 83 41.3988 82.4535 40.4256 81.4808C39.453 80.5076 38.9064 79.1881 38.9064 77.8125V47.9843C38.9064 46.6087 39.453 45.2891 40.4256 44.3159C41.3988 43.3433 42.7183 42.7967 44.0939 42.7967H62.2502C63.6258 42.7967 64.9454 43.3433 65.9185 44.3159C66.8912 45.2892 67.4378 46.6087 67.4378 47.9843C67.4378 48.7004 66.857 49.2811 66.1409 49.2811C65.4247 49.2811 64.844 48.7004 64.844 47.9843C64.844 47.2965 64.5707 46.6364 64.0844 46.1501C63.5981 45.6638 62.938 45.3905 62.2502 45.3905H44.0939C43.4061 45.3905 42.7461 45.6638 42.2598 46.1501C41.7734 46.6364 41.5002 47.2965 41.5002 47.9843V77.8125C41.5002 78.5003 41.7734 79.1603 42.2598 79.6466C42.7461 80.133 43.4061 80.4062 44.0939 80.4062H62.2502C62.938 80.4062 63.5981 80.133 64.0844 79.6466C64.5707 79.1603 64.844 78.5003 64.844 77.8125V51.8749C64.844 51.1587 65.4247 50.578 66.1409 50.578C66.857 50.578 67.4378 51.1587 67.4378 51.8749V77.8125C67.4378 79.1881 66.8912 80.5076 65.9185 81.4808C64.9453 82.4535 63.6258 83 62.2502 83Z" fill="#62A543"/>
<path d="M60.9534 55.7655H45.3908C44.6746 55.7655 44.0939 55.1848 44.0939 54.4687V49.2811C44.0939 48.565 44.6746 47.9843 45.3908 47.9843H60.9534C61.2973 47.9843 61.6273 48.1209 61.8704 48.3641C62.1136 48.6072 62.2502 48.9372 62.2502 49.2811V54.4687C62.2502 54.8126 62.1136 55.1426 61.8704 55.3857C61.6273 55.6289 61.2973 55.7655 60.9534 55.7655ZM46.6877 53.1718H59.6565V50.578H46.6877V53.1718Z" fill="#62A543"/>
<path d="M55.7658 60.9531H50.5783C49.8621 60.9531 49.2814 60.3724 49.2814 59.6562C49.2814 58.94 49.8621 58.3593 50.5783 58.3593H55.7658C56.482 58.3593 57.0627 58.94 57.0627 59.6562C57.0627 60.3724 56.482 60.9531 55.7658 60.9531Z" fill="#62A543"/>
<path d="M60.9534 76.5156C60.2372 76.5156 59.6565 75.9349 59.6565 75.2187V70.0312C59.6565 69.315 60.2372 68.7343 60.9534 68.7343C61.6695 68.7343 62.2502 69.315 62.2502 70.0312V75.2187C62.2502 75.5626 62.1136 75.8926 61.8704 76.1358C61.6273 76.379 61.2973 76.5156 60.9534 76.5156Z" fill="#62A543"/>
<path d="M46.6877 59.6562C46.6877 60.3724 46.107 60.9531 45.3908 60.9531C44.6746 60.9531 44.0939 60.3724 44.0939 59.6562C44.0939 58.94 44.6746 58.3593 45.3908 58.3593C46.107 58.3593 46.6877 58.94 46.6877 59.6562Z" fill="#62A543"/>
<path d="M62.2502 59.6562C62.2502 60.3724 61.6695 60.9531 60.9534 60.9531C60.2372 60.9531 59.6565 60.3724 59.6565 59.6562C59.6565 58.94 60.2372 58.3593 60.9534 58.3593C61.6695 58.3593 62.2502 58.94 62.2502 59.6562Z" fill="#62A543"/>
<path d="M46.6877 64.8437C46.6877 65.5599 46.107 66.1406 45.3908 66.1406C44.6746 66.1406 44.0939 65.5599 44.0939 64.8437C44.0939 64.1275 44.6746 63.5468 45.3908 63.5468C46.107 63.5468 46.6877 64.1275 46.6877 64.8437Z" fill="#62A543"/>
<path d="M51.8752 64.8437C51.8752 65.5599 51.2945 66.1406 50.5783 66.1406C49.8621 66.1406 49.2814 65.5599 49.2814 64.8437C49.2814 64.1275 49.8621 63.5468 50.5783 63.5468C51.2945 63.5468 51.8752 64.1275 51.8752 64.8437Z" fill="#62A543"/>
<path d="M57.0627 64.8437C57.0627 65.5599 56.482 66.1406 55.7658 66.1406C55.0497 66.1406 54.469 65.5599 54.469 64.8437C54.469 64.1275 55.0497 63.5468 55.7658 63.5468C56.482 63.5468 57.0627 64.1275 57.0627 64.8437Z" fill="#62A543"/>
<path d="M46.6877 70.0312C46.6877 70.7474 46.107 71.3281 45.3908 71.3281C44.6746 71.3281 44.0939 70.7474 44.0939 70.0312C44.0939 69.315 44.6746 68.7343 45.3908 68.7343C46.107 68.7343 46.6877 69.315 46.6877 70.0312Z" fill="#62A543"/>
<path d="M51.8752 70.0312C51.8752 70.7474 51.2945 71.3281 50.5783 71.3281C49.8621 71.3281 49.2814 70.7474 49.2814 70.0312C49.2814 69.315 49.8621 68.7343 50.5783 68.7343C51.2945 68.7343 51.8752 69.315 51.8752 70.0312Z" fill="#62A543"/>
<path d="M57.0627 70.0312C57.0627 70.7474 56.482 71.3281 55.7658 71.3281C55.0497 71.3281 54.469 70.7474 54.469 70.0312C54.469 69.315 55.0497 68.7343 55.7658 68.7343C56.482 68.7343 57.0627 69.315 57.0627 70.0312Z" fill="#62A543"/>
<path d="M46.6877 75.2187C46.6877 75.9349 46.107 76.5156 45.3908 76.5156C44.6746 76.5156 44.0939 75.9349 44.0939 75.2187C44.0939 74.5026 44.6746 73.9219 45.3908 73.9219C46.107 73.9219 46.6877 74.5026 46.6877 75.2187Z" fill="#62A543"/>
<path d="M51.8752 75.2187C51.8752 75.9349 51.2945 76.5156 50.5783 76.5156C49.8621 76.5156 49.2814 75.9349 49.2814 75.2187C49.2814 74.5026 49.8621 73.9219 50.5783 73.9219C51.2945 73.9219 51.8752 74.5026 51.8752 75.2187Z" fill="#62A543"/>
<path d="M57.0627 75.2187C57.0627 75.9349 56.482 76.5156 55.7658 76.5156C55.0497 76.5156 54.469 75.9349 54.469 75.2187C54.469 74.5026 55.0497 73.9219 55.7658 73.9219C56.482 73.9219 57.0627 74.5026 57.0627 75.2187Z" fill="#62A543"/>
<path d="M62.2502 64.8437C62.2502 65.5599 61.6695 66.1406 60.9534 66.1406C60.2372 66.1406 59.6565 65.5599 59.6565 64.8437C59.6565 64.1275 60.2372 63.5468 60.9534 63.5468C61.6695 63.5468 62.2502 64.1275 62.2502 64.8437Z" fill="#62A543"/>
</svg>
