<svg width="73" height="83" viewBox="0 0 73 83" fill="none" xmlns="http://www.w3.org/2000/svg">
<path d="M67.3753 39.3923C65.0062 39.3923 62.5635 41.0175 60.8423 42.6745C60.8133 42.7023 52.5359 49.5671 49.7228 52.3421C49.2122 52.8452 48.2182 53.2528 47.5014 53.2528C46.6167 54.2446 45.6019 55.1176 44.4845 55.8466H47.5014C48.8909 55.8466 50.5525 55.1651 51.5432 54.1889C53.1325 52.6217 57.0648 49.2029 62.3304 44.811C62.5266 44.6477 62.6297 44.5533 62.6407 44.5435C64.2792 42.9657 66.0936 41.9862 67.3754 41.9862C68.0221 41.9862 68.5437 42.2288 69.0659 42.7719C70.5684 44.3351 67.8976 47.2669 67.3025 47.8812L55.2027 59.8878L55.1431 59.9474L55.0875 60.0105C54.2341 60.9751 49.955 65.9767 49.5416 69.7325L49.526 69.8737V70.0162L49.5254 77.4882C49.5254 79.0971 48.2164 80.4063 46.6074 80.4063H26.7081C25.0993 80.4063 23.7901 79.0972 23.7901 77.4882V69.8737L23.7745 69.7313C23.3541 65.9339 18.7838 60.9172 17.872 59.9504L17.8268 59.9023L17.7794 59.8566C6.85034 49.3872 5.52619 48.1198 5.35308 47.9548C3.93347 46.5954 3.06273 45.0999 3.08125 44.0526C3.08704 43.7174 3.17794 43.1992 3.89585 42.5572C4.29244 42.2023 4.6786 42.0442 5.14641 42.0442C6.32517 42.0442 8.04414 43.0215 9.74446 44.6577L9.79135 44.7028L9.84114 44.7462L20.904 54.3604C21.9108 55.2358 23.5464 55.8466 24.8809 55.8466H28.1416C27.0242 55.1177 26.0092 54.2445 25.1247 53.2528H24.881C24.1648 53.2528 23.1458 52.8725 22.6051 52.4024L11.5429 42.7881C9.85396 41.1636 7.46401 39.4509 5.14654 39.4504C4.11657 39.4504 3.10103 39.7891 2.16713 40.6239C-1.10114 43.5436 0.967518 47.3457 3.55953 49.8283C3.61337 49.8781 15.9852 61.7301 15.9852 61.7301C15.9852 61.7301 20.8508 66.8897 21.197 70.0173L21.1964 77.4882C21.1964 80.5324 23.6639 83 26.7082 83H46.6075C49.6516 83 52.1192 80.5325 52.1192 77.4882V70.0167C52.4637 66.8891 57.0294 61.7295 57.0294 61.7295L69.1471 49.7056C71.36 47.4298 73.5784 43.7249 70.9367 40.9749C69.8476 39.843 68.6214 39.3926 67.3755 39.3926L67.3753 39.3923Z" fill="#9A2C2C"/>
<path d="M36.3126 55.6841C43.1594 55.6841 48.7146 50.1307 48.7146 43.2839C48.7146 36.4342 43.16 30.8813 36.3126 30.8813C29.4647 30.8813 23.9106 36.4342 23.9106 43.2839C23.9101 50.1307 29.4647 55.6841 36.3126 55.6841ZM36.3126 33.4757C41.7206 33.4757 46.1208 37.8759 46.1208 43.2845C46.1208 48.6914 41.7212 53.0909 36.3126 53.0909C30.9046 53.0909 26.5044 48.6919 26.5044 43.2845C26.5038 37.8759 30.904 33.4757 36.3126 33.4757Z" fill="#9A2C2C"/>
<path d="M6.48437 34.3679C10.0658 34.3679 12.9687 31.4679 12.9687 27.8835C12.9687 24.2991 10.0658 21.3992 6.48437 21.3992C2.90292 21.3992 0 24.2991 0 27.8835C0 31.4679 2.90292 34.3679 6.48437 34.3679ZM6.48437 23.9929C8.63006 23.9929 10.375 25.7378 10.375 27.8835C10.375 30.0292 8.63006 31.7742 6.48437 31.7742C4.33867 31.7742 2.59375 30.0292 2.59375 27.8835C2.59375 25.7378 4.33867 23.9929 6.48437 23.9929Z" fill="#9A2C2C"/>
<path d="M36.3125 12.9687C39.8939 12.9687 42.7969 10.0688 42.7969 6.48437C42.7969 2.89996 39.8939 0 36.3125 0C32.731 0 29.8281 2.89996 29.8281 6.48437C29.8281 10.0688 32.731 12.9687 36.3125 12.9687ZM36.3125 2.59375C38.4582 2.59375 40.2031 4.33867 40.2031 6.48437C40.2031 8.63006 38.4582 10.375 36.3125 10.375C34.1668 10.375 32.4219 8.63006 32.4219 6.48437C32.4219 4.33867 34.1668 2.59375 36.3125 2.59375Z" fill="#9A2C2C"/>
<path d="M18.1609 20.1008C19.3368 20.1008 20.5272 19.7812 21.5977 19.1102C24.6321 17.21 25.5527 13.2117 23.6502 10.1745C22.4193 8.20886 20.3096 7.13208 18.1517 7.13208C16.9759 7.13208 15.7849 7.45166 14.7149 8.12268C11.6805 10.0228 10.76 14.0212 12.6625 17.0584C13.8933 19.024 16.0031 20.1008 18.1609 20.1008ZM14.3653 12.745C14.598 11.733 15.2112 10.8721 16.0917 10.3204C16.7129 9.93134 17.4256 9.72581 18.1522 9.72581C19.5023 9.72581 20.7361 10.4084 21.4517 11.5512C22.5905 13.3692 22.0376 15.7735 20.2203 16.9124C19.5996 17.3015 18.8875 17.507 18.1608 17.507C16.8107 17.507 15.5763 16.8244 14.8601 15.6816C14.3083 14.7998 14.1323 13.7572 14.3651 12.7452L14.3653 12.745Z" fill="#9A2C2C"/>
<path d="M51.0259 18.4615C52.0969 19.1331 53.2873 19.4527 54.4637 19.4527C56.6209 19.4527 58.73 18.3764 59.9615 16.4114C61.8652 13.3748 60.9452 9.37638 57.912 7.47568C56.8409 6.80467 55.65 6.4845 54.4736 6.4845C52.3164 6.4845 50.2073 7.56078 48.9758 9.52585C47.0727 12.5625 47.9921 16.5602 51.0259 18.4615ZM51.1735 10.9032C51.8897 9.76034 53.1234 9.07839 54.4742 9.07839C55.2008 9.07839 55.9129 9.28392 56.5347 9.67356C57.4147 10.2253 58.0278 11.0862 58.2606 12.0982C58.4928 13.1102 58.3168 14.1523 57.7645 15.0342C57.0477 16.177 55.814 16.859 54.4637 16.859C53.7371 16.859 53.0244 16.6535 52.4033 16.2638C50.5865 15.125 50.0352 12.72 51.1735 10.9032H51.1735Z" fill="#9A2C2C"/>
<path d="M66.1406 34.3679C69.7221 34.3679 72.625 31.4679 72.625 27.8835C72.625 24.2991 69.7221 21.3992 66.1406 21.3992C62.5598 21.3992 59.6562 24.2991 59.6562 27.8835C59.6562 31.4679 62.5598 34.3679 66.1406 34.3679ZM66.1406 23.9929C68.2863 23.9929 70.0312 25.7378 70.0312 27.8835C70.0312 30.0292 68.2863 31.7742 66.1406 31.7742C63.9949 31.7742 62.25 30.0292 62.25 27.8835C62.25 25.7378 63.9949 23.9929 66.1406 23.9929Z" fill="#9A2C2C"/>
</svg>
