<svg width="1491" height="609" viewBox="0 0 1491 609" fill="none" xmlns="http://www.w3.org/2000/svg">
<rect width="1482" height="609" fill="#F1F1F1"/>
<path d="M760.655 338.727H740.469V582.585H760.655V338.727Z" fill="#F1F1F1"/>
<path d="M755.609 96.0449H745.516V365.528H755.609V96.0449Z" fill="#F1F1F1"/>
<path d="M781.566 108.941C783.532 91.8183 771.245 76.344 754.123 74.378C737 72.412 721.526 84.6987 719.56 101.821C717.594 118.944 729.881 134.418 747.003 136.384C764.125 138.35 779.6 126.063 781.566 108.941Z" fill="#EBEBEB"/>
<path d="M757.231 139.039H743.375C742.869 139.039 742.383 138.838 742.026 138.48C741.668 138.122 741.467 137.637 741.467 137.131C741.467 136.625 741.668 136.139 742.026 135.782C742.383 135.424 742.869 135.223 743.375 135.223H757.231C757.737 135.223 758.222 135.424 758.58 135.782C758.938 136.139 759.139 136.625 759.139 137.131C759.139 137.637 758.938 138.122 758.58 138.48C758.222 138.838 757.737 139.039 757.231 139.039Z" fill="#F1F1F1"/>
<path d="M765.79 338.726H735.1C734.545 338.721 734.014 338.497 733.624 338.103C733.233 337.709 733.014 337.177 733.014 336.622C733.014 336.068 733.233 335.538 733.625 335.146C734.016 334.755 734.547 334.535 735.1 334.535H765.79C766.343 334.535 766.874 334.755 767.265 335.146C767.656 335.538 767.876 336.068 767.876 336.622C767.878 336.897 767.826 337.17 767.722 337.425C767.619 337.681 767.465 337.913 767.271 338.108C767.077 338.304 766.846 338.459 766.592 338.565C766.338 338.671 766.065 338.726 765.79 338.726Z" fill="#F1F1F1"/>
<path d="M1362.5 51.9102H1195.66V580.694H1362.5V51.9102Z" fill="#F9F9F9"/>
<path d="M1362.52 51.9102H1279.1V579.232H1362.52V51.9102Z" fill="#FD8A36" fill-opacity="0.69"/>
<path d="M1273.64 0H1214.72V51.9101H1273.64V0Z" fill="#F9F9F9"/>
<path d="M1273.62 0H1259.59V51.9101H1273.62V0Z" fill="#EBEBEB"/>
<path d="M1181.77 51.9104V48.8789H1367.4V51.9104" fill="#F1F1F1"/>
<path d="M1242.72 74.5586H1228.59V104.339H1242.72V74.5586Z" fill="#FAFAFA"/>
<path d="M1279.1 116.018C1279.1 116.339 1260.41 116.589 1237.39 116.589C1214.36 116.589 1195.66 116.339 1195.66 116.018C1195.66 115.697 1214.33 115.447 1237.39 115.447C1260.44 115.447 1279.1 115.715 1279.1 116.018Z" fill="#F1F1F1"/>
<path d="M1326.87 74.5586H1312.75V104.339H1326.87V74.5586Z" fill="#F1F1F1"/>
<path d="M1363.25 116.018C1363.25 116.339 1344.56 116.589 1321.54 116.589C1298.51 116.589 1279.81 116.339 1279.81 116.018C1279.81 115.697 1298.48 115.447 1321.54 115.447C1344.59 115.447 1363.25 115.715 1363.25 116.018Z" fill="#F1F1F1"/>
<path d="M1326.87 133.672H1312.75V163.452H1326.87V133.672Z" fill="#F1F1F1"/>
<path d="M1363.25 175.151C1363.25 175.454 1344.56 175.721 1321.54 175.721C1298.51 175.721 1279.81 175.454 1279.81 175.151C1279.81 174.848 1298.48 174.58 1321.54 174.58C1344.59 174.58 1363.25 174.83 1363.25 175.151Z" fill="#F1F1F1"/>
<path d="M1326.87 194.588H1312.75V224.368H1326.87V194.588Z" fill="#F1F1F1"/>
<path d="M1363.25 236.047C1363.25 236.368 1344.56 236.618 1321.54 236.618C1298.51 236.618 1279.81 236.368 1279.81 236.047C1279.81 235.726 1298.48 235.477 1321.54 235.477C1344.59 235.477 1363.25 235.744 1363.25 236.047Z" fill="#F1F1F1"/>
<path d="M1326.87 255.504H1312.75V285.284H1326.87V255.504Z" fill="#F1F1F1"/>
<path d="M1363.25 296.963C1363.25 297.284 1344.56 297.534 1321.54 297.534C1298.51 297.534 1279.81 297.284 1279.81 296.963C1279.81 296.642 1298.48 296.393 1321.54 296.393C1344.59 296.393 1363.25 296.642 1363.25 296.963Z" fill="#F1F1F1"/>
<path d="M1326.87 314.652H1312.75V344.432H1326.87V314.652Z" fill="#F1F1F1"/>
<path d="M1363.25 356.129C1363.25 356.432 1344.56 356.7 1321.54 356.7C1298.51 356.7 1279.81 356.432 1279.81 356.129C1279.81 355.826 1298.48 355.559 1321.54 355.559C1344.59 355.559 1363.25 355.808 1363.25 356.129Z" fill="#F1F1F1"/>
<path d="M1326.87 374.07H1312.75V403.85H1326.87V374.07Z" fill="#F1F1F1"/>
<path d="M1326.87 434.252H1312.75V464.032H1326.87V434.252Z" fill="#F1F1F1"/>
<path d="M1363.25 415.532C1363.25 415.853 1344.56 416.102 1321.54 416.102C1298.51 416.102 1279.81 415.853 1279.81 415.532C1279.81 415.211 1298.48 414.961 1321.54 414.961C1344.59 414.961 1363.25 415.211 1363.25 415.532Z" fill="#F1F1F1"/>
<path d="M1242.72 134.58H1228.59V164.36H1242.72V134.58Z" fill="#FAFAFA"/>
<path d="M1279.1 176.041C1279.1 176.362 1260.41 176.612 1237.39 176.612C1214.36 176.612 1195.66 176.362 1195.66 176.041C1195.66 175.72 1214.33 175.471 1237.39 175.471C1260.44 175.471 1279.1 175.738 1279.1 176.041Z" fill="#F1F1F1"/>
<path d="M1242.72 194.605H1228.59V224.386H1242.72V194.605Z" fill="#FAFAFA"/>
<path d="M1279.1 236.066C1279.1 236.387 1260.41 236.637 1237.39 236.637C1214.36 236.637 1195.66 236.387 1195.66 236.066C1195.66 235.745 1214.33 235.514 1237.39 235.514C1260.44 235.514 1279.1 235.763 1279.1 236.066Z" fill="#F1F1F1"/>
<path d="M1242.72 254.629H1228.59V284.409H1242.72V254.629Z" fill="#FAFAFA"/>
<path d="M1279.1 296.108C1279.1 296.411 1260.41 296.678 1237.39 296.678C1214.36 296.678 1195.66 296.411 1195.66 296.108C1195.66 295.805 1214.33 295.537 1237.39 295.537C1260.44 295.537 1279.1 295.787 1279.1 296.108Z" fill="#F1F1F1"/>
<path d="M1242.72 314.652H1228.59V344.432H1242.72V314.652Z" fill="#FAFAFA"/>
<path d="M1279.1 356.129C1279.1 356.432 1260.41 356.7 1237.39 356.7C1214.36 356.7 1195.66 356.432 1195.66 356.129C1195.66 355.826 1214.33 355.559 1237.39 355.559C1260.44 355.559 1279.1 355.808 1279.1 356.129Z" fill="#F1F1F1"/>
<path d="M1242.72 374.695H1228.59V404.475H1242.72V374.695Z" fill="#FAFAFA"/>
<path d="M1279.1 416.155C1279.1 416.476 1260.41 416.725 1237.39 416.725C1214.36 416.725 1195.66 416.476 1195.66 416.155C1195.66 415.834 1214.33 415.584 1237.39 415.584C1260.44 415.584 1279.1 415.834 1279.1 416.155Z" fill="#F1F1F1"/>
<path d="M1242.72 434.719H1228.59V464.499H1242.72V434.719Z" fill="#FAFAFA"/>
<path d="M1481.76 347.893H1359.09V580.695H1481.76V347.893Z" fill="#F1F1F1"/>
<path d="M1481.76 347.893H1424.25V580.695H1481.76V347.893Z" fill="#80E4B4"/>
<path d="M1395.83 369.791H1384.81V396.593H1395.83V369.791Z" fill="#F9F9F9"/>
<path d="M1395.83 474.662H1384.81V501.464H1395.83V474.662Z" fill="#F9F9F9"/>
<path d="M1424.25 407.112C1424.25 407.343 1409.66 407.522 1391.67 407.522C1373.68 407.522 1359.09 407.343 1359.09 407.112C1359.09 406.88 1373.68 406.684 1391.67 406.684C1409.66 406.684 1424.25 406.88 1424.25 407.112Z" fill="#F9F9F9"/>
<path d="M1395.83 422.627H1384.81V449.429H1395.83V422.627Z" fill="#F9F9F9"/>
<path d="M1424.25 459.951C1424.25 460.183 1409.66 460.362 1391.67 460.362C1373.68 460.362 1359.09 460.183 1359.09 459.951C1359.09 459.72 1373.68 459.523 1391.67 459.523C1409.66 459.523 1424.25 459.72 1424.25 459.951Z" fill="#F9F9F9"/>
<path d="M1447.49 369.791H1436.47V396.593H1447.49V369.791Z" fill="#F1F1F1"/>
<path d="M1471.4 369.791H1460.38V396.593H1471.4V369.791Z" fill="#F1F1F1"/>
<path d="M1447.49 420.648H1436.47V447.451H1447.49V420.648Z" fill="#F1F1F1"/>
<path d="M1471.4 420.648H1460.38V447.451H1471.4V420.648Z" fill="#F1F1F1"/>
<path d="M1447.49 471.488H1436.47V498.29H1447.49V471.488Z" fill="#F1F1F1"/>
<path d="M1471.4 471.488H1460.38V498.29H1471.4V471.488Z" fill="#F1F1F1"/>
<path d="M1490.98 342.256H1349.87V348.087H1490.98V342.256Z" fill="#F1F1F1"/>
<path d="M1482.62 348.643C1482.62 348.874 1455.19 349.053 1421.38 349.053C1387.57 349.053 1360.14 348.874 1360.14 348.643C1360.14 348.411 1387.57 348.232 1421.38 348.232C1455.19 348.232 1482.62 348.411 1482.62 348.643Z" fill="#EBEBEB"/>
<path d="M1224.48 205.857H1081.26V580.694H1224.48V205.857Z" fill="#EBEBEB"/>
<path d="M1224.46 205.857H1152.86V580.694H1224.46V205.857Z" fill="#F1F1F1"/>
<path d="M1148.19 161.293H1097.62V205.856H1148.19V161.293Z" fill="#EBEBEB"/>
<path d="M1148.19 161.293H1136.13V205.856H1148.19V161.293Z" fill="#F1F1F1"/>
<path d="M1228.66 203.254H1069.33V205.857H1228.66V203.254Z" fill="#F1F1F1"/>
<path d="M1121.65 225.277H1109.53V250.831H1121.65V225.277Z" fill="white"/>
<path d="M1152.86 260.89C1152.86 261.157 1136.81 261.389 1117.07 261.389C1097.33 261.389 1081.26 261.157 1081.26 260.89C1081.26 260.622 1097.31 260.408 1117.07 260.408C1136.83 260.408 1152.86 260.604 1152.86 260.89Z" fill="#F1F1F1"/>
<path d="M1193.89 225.277H1181.77V250.831H1193.89V225.277Z" fill="#F9F9F9"/>
<path d="M1225.05 260.89C1225.05 261.157 1209 261.389 1189.24 261.389C1169.48 261.389 1153.43 261.157 1153.43 260.89C1153.43 260.622 1169.48 260.408 1189.24 260.408C1209 260.408 1225.05 260.604 1225.05 260.89Z" fill="#EBEBEB"/>
<path d="M1193.89 276.027H1181.77V301.581H1193.89V276.027Z" fill="#F9F9F9"/>
<path d="M1225.05 311.622C1225.05 311.89 1209 312.104 1189.24 312.104C1169.48 312.104 1153.43 311.89 1153.43 311.622C1153.43 311.355 1169.48 311.141 1189.24 311.141C1209 311.141 1225.05 311.355 1225.05 311.622Z" fill="#EBEBEB"/>
<path d="M1193.89 328.312H1181.77V353.866H1193.89V328.312Z" fill="#F9F9F9"/>
<path d="M1225.05 363.906C1225.05 364.173 1209 364.387 1189.24 364.387C1169.48 364.387 1153.43 364.173 1153.43 363.906C1153.43 363.638 1169.48 363.406 1189.24 363.406C1209 363.406 1225.05 363.638 1225.05 363.906Z" fill="#EBEBEB"/>
<path d="M1193.89 380.58H1181.77V406.134H1193.89V380.58Z" fill="#F9F9F9"/>
<path d="M1225.05 416.175C1225.05 416.442 1209 416.674 1189.24 416.674C1169.48 416.674 1153.43 416.442 1153.43 416.175C1153.43 415.907 1169.48 415.693 1189.24 415.693C1209 415.693 1225.05 415.907 1225.05 416.175Z" fill="#EBEBEB"/>
<path d="M1193.89 431.365H1181.77V456.919H1193.89V431.365Z" fill="#F9F9F9"/>
<path d="M1225.05 466.96C1225.05 467.227 1209 467.459 1189.24 467.459C1169.48 467.459 1153.43 467.227 1153.43 466.96C1153.43 466.692 1169.48 466.479 1189.24 466.479C1209 466.479 1225.05 466.692 1225.05 466.96Z" fill="#EBEBEB"/>
<path d="M1193.89 482.365H1181.77V507.919H1193.89V482.365Z" fill="#F9F9F9"/>
<path d="M1193.89 534.008H1181.77V559.562H1193.89V534.008Z" fill="#F9F9F9"/>
<path d="M1225.05 517.942C1225.05 518.228 1209 518.442 1189.24 518.442C1169.48 518.442 1153.43 518.228 1153.43 517.942C1153.43 517.657 1169.48 517.461 1189.24 517.461C1209 517.461 1225.05 517.675 1225.05 517.942Z" fill="#EBEBEB"/>
<path d="M1121.65 276.812H1109.53V302.366H1121.65V276.812Z" fill="white"/>
<path d="M1152.86 312.388C1152.86 312.673 1136.81 312.887 1117.07 312.887C1097.33 312.887 1081.26 312.673 1081.26 312.388C1081.26 312.102 1097.31 311.906 1117.07 311.906C1136.83 311.906 1152.86 312.12 1152.86 312.388Z" fill="#F1F1F1"/>
<path d="M1121.65 328.33H1109.53V353.884H1121.65V328.33Z" fill="white"/>
<path d="M1152.86 363.923C1152.86 364.191 1136.81 364.405 1117.07 364.405C1097.33 364.405 1081.26 364.191 1081.26 363.923C1081.26 363.656 1097.31 363.424 1117.07 363.424C1136.83 363.424 1152.86 363.656 1152.86 363.923Z" fill="#F1F1F1"/>
<path d="M1121.65 379.848H1109.53V405.402H1121.65V379.848Z" fill="white"/>
<path d="M1152.86 415.442C1152.86 415.71 1136.81 415.924 1117.07 415.924C1097.33 415.924 1081.26 415.71 1081.26 415.442C1081.26 415.175 1097.31 414.961 1117.07 414.961C1136.83 414.961 1152.86 415.175 1152.86 415.442Z" fill="#F1F1F1"/>
<path d="M1121.65 431.365H1109.53V456.919H1121.65V431.365Z" fill="white"/>
<path d="M1152.86 466.96C1152.86 467.227 1136.81 467.459 1117.07 467.459C1097.33 467.459 1081.26 467.227 1081.26 466.96C1081.26 466.692 1097.31 466.479 1117.07 466.479C1136.83 466.479 1152.86 466.692 1152.86 466.96Z" fill="#F1F1F1"/>
<path d="M1121.65 482.883H1109.53V508.437H1121.65V482.883Z" fill="white"/>
<path d="M1152.86 518.476C1152.86 518.743 1136.81 518.975 1117.07 518.975C1097.33 518.975 1081.26 518.743 1081.26 518.476C1081.26 518.208 1097.31 517.994 1117.07 517.994C1136.83 517.994 1152.86 518.208 1152.86 518.476Z" fill="#F1F1F1"/>
<path d="M1121.65 534.42H1109.53V559.974H1121.65V534.42Z" fill="white"/>
<path d="M1118.37 347.893H995.703V580.695H1118.37V347.893Z" fill="#F1F1F1"/>
<path d="M1118.37 347.893H1060.86V580.695H1118.37V347.893Z" fill="#EBEBEB"/>
<path d="M1032.44 369.791H1021.42V396.593H1032.44V369.791Z" fill="#F9F9F9"/>
<path d="M1032.44 474.662H1021.42V501.464H1032.44V474.662Z" fill="#F9F9F9"/>
<path d="M1060.86 407.112C1060.86 407.343 1046.28 407.522 1028.28 407.522C1010.29 407.522 995.703 407.343 995.703 407.112C995.703 406.88 1010.29 406.684 1028.28 406.684C1046.28 406.684 1060.86 406.88 1060.86 407.112Z" fill="#F9F9F9"/>
<path d="M1032.44 422.627H1021.42V449.429H1032.44V422.627Z" fill="#F9F9F9"/>
<path d="M1060.86 459.951C1060.86 460.183 1046.28 460.362 1028.28 460.362C1010.29 460.362 995.703 460.183 995.703 459.951C995.703 459.72 1010.29 459.523 1028.28 459.523C1046.28 459.523 1060.86 459.72 1060.86 459.951Z" fill="#F9F9F9"/>
<path d="M1084.1 369.791H1073.08V396.593H1084.1V369.791Z" fill="#F1F1F1"/>
<path d="M1108.01 369.791H1096.99V396.593H1108.01V369.791Z" fill="#F1F1F1"/>
<path d="M1084.1 420.648H1073.08V447.451H1084.1V420.648Z" fill="#F1F1F1"/>
<path d="M1108.01 420.648H1096.99V447.451H1108.01V420.648Z" fill="#F1F1F1"/>
<path d="M1084.1 471.488H1073.08V498.29H1084.1V471.488Z" fill="#F1F1F1"/>
<path d="M1108.01 471.488H1096.99V498.29H1108.01V471.488Z" fill="#F1F1F1"/>
<path d="M1127.59 342.256H986.484V348.087H1127.59V342.256Z" fill="#F1F1F1"/>
<path d="M1119.23 348.643C1119.23 348.874 1091.82 349.053 1057.99 349.053C1024.16 349.053 996.756 348.874 996.756 348.643C996.756 348.411 1024.18 348.232 1057.99 348.232C1091.8 348.232 1119.23 348.411 1119.23 348.643Z" fill="#EBEBEB"/>
<path d="M1024.91 435.197H915.102V580.05H1024.91V435.197Z" fill="#EBEBEB"/>
<path d="M1024.89 435.197H973.412V580.05H1024.89V435.197Z" fill="#F1F1F1"/>
<path d="M948.002 454.814H938.123V478.799H948.002V454.814Z" fill="#F9F9F9"/>
<path d="M948.002 548.703H938.123V572.688H948.002V548.703Z" fill="#F9F9F9"/>
<path d="M973.413 488.214C973.413 488.482 960.36 488.696 944.258 488.696C928.155 488.696 915.102 488.482 915.102 488.214C915.102 487.947 928.155 487.715 944.258 487.715C960.36 487.715 973.413 487.947 973.413 488.214Z" fill="#F9F9F9"/>
<path d="M948.002 502.109H938.123V526.094H948.002V502.109Z" fill="#F9F9F9"/>
<path d="M973.412 535.507C973.412 535.774 960.358 536.006 944.256 536.006C928.153 536.006 915.1 535.774 915.1 535.507C915.1 535.239 928.153 535.025 944.256 535.025C960.358 535.025 973.412 535.239 973.412 535.507Z" fill="#F9F9F9"/>
<path d="M994.223 454.814H984.344V478.799H994.223V454.814Z" fill="#F9F9F9"/>
<path d="M1015.66 454.814H1005.78V478.799H1015.66V454.814Z" fill="#F9F9F9"/>
<path d="M994.223 500.324H984.344V524.309H994.223V500.324Z" fill="#F9F9F9"/>
<path d="M1015.66 500.324H1005.78V524.309H1015.66V500.324Z" fill="#F9F9F9"/>
<path d="M994.223 545.85H984.344V569.834H994.223V545.85Z" fill="#F9F9F9"/>
<path d="M1015.66 545.85H1005.78V569.834H1015.66V545.85Z" fill="#F9F9F9"/>
<path d="M1033.17 430.152H906.844V435.377H1033.17V430.152Z" fill="#F1F1F1"/>
<path d="M1025.68 435.878C1025.68 436.146 1001.13 436.36 970.864 436.36C940.602 436.36 916.047 436.146 916.047 435.878C916.047 435.611 940.584 435.379 970.864 435.379C1001.14 435.379 1025.68 435.646 1025.68 435.878Z" fill="#EBEBEB"/>
<path d="M1382 150.505H1482.15C1482.15 150.505 1473.23 134.455 1447.52 136.72C1422.89 138.967 1421.64 128.803 1409.12 127.554C1396.6 126.306 1386.17 135.9 1382 150.505Z" fill="#64ACC2" fill-opacity="0.6"/>
<path d="M985.877 70.9019H1085.95C1085.95 70.9019 1077.04 54.8527 1051.32 57.1352C1026.7 59.3821 1025.45 49.2177 1012.93 47.9516C1000.41 46.6855 990.05 56.2971 985.877 70.9019Z" fill="#EBEBEB"/>
<path d="M773.723 581.299H677V604.053H773.723V581.299Z" fill="#EBEBEB"/>
<path d="M872.639 581.299H775.916V604.053H872.639V581.299Z" fill="#F9F9F9"/>
<path d="M971.555 581.299H874.832V604.053H971.555V581.299Z" fill="#EBEBEB"/>
<path d="M1070.47 581.299H973.748V604.053H1070.47V581.299Z" fill="#F9F9F9"/>
<path d="M1169.39 581.299H1072.66V604.053H1169.39V581.299Z" fill="#EBEBEB"/>
<path d="M1268.3 581.299H1171.58V604.053H1268.3V581.299Z" fill="#F9F9F9"/>
<path d="M1367.22 581.299H1270.5V604.053H1367.22V581.299Z" fill="#EBEBEB"/>
<path d="M1466.14 581.299H1369.41V604.053H1466.14V581.299Z" fill="#EBEBEB"/>
<path d="M774.899 603.947C774.281 597.167 774.281 590.345 774.899 583.564C775.517 590.345 775.517 597.167 774.899 603.947Z" fill="#E3E3E3"/>
<path d="M873.887 603.948C873.275 597.197 873.275 590.405 873.887 583.654C874.506 590.434 874.506 597.257 873.887 604.037V603.948Z" fill="#E3E3E3"/>
<path d="M972.893 603.947C972.275 597.167 972.275 590.345 972.893 583.564C973.512 590.345 973.512 597.167 972.893 603.947Z" fill="#E3E3E3"/>
<path d="M1071.83 603.948C1071.21 597.197 1071.21 590.405 1071.83 583.654C1072.44 590.434 1072.44 597.257 1071.83 604.037V603.948Z" fill="#E3E3E3"/>
<path d="M1170.89 603.947C1170.27 597.167 1170.27 590.345 1170.89 583.564C1171.5 590.345 1171.5 597.167 1170.89 603.947Z" fill="#E3E3E3"/>
<path d="M1269.87 603.947C1269.26 597.167 1269.26 590.345 1269.87 583.564C1270.49 590.345 1270.49 597.167 1269.87 603.947Z" fill="#E3E3E3"/>
<path d="M1368.86 603.947C1368.24 597.167 1368.24 590.345 1368.86 583.564C1369.48 590.345 1369.48 597.167 1368.86 603.947Z" fill="#E3E3E3"/>
<path d="M1467.87 603.947C1467.25 597.167 1467.25 590.345 1467.87 583.564C1468.48 590.345 1468.48 597.167 1467.87 603.947Z" fill="#E3E3E3"/>
<path d="M65.9423 341.115H90.5469V584.973H65.9423V341.115Z" fill="#F1F1F1"/>
<path d="M72.094 98.4355H84.3965V367.919H72.094V98.4355Z" fill="#F1F1F1"/>
<path d="M78.2458 138.968C57.2384 138.968 40.2085 124.996 40.2085 107.761C40.2085 90.5264 57.2384 76.5547 78.2458 76.5547C99.2533 76.5547 116.283 90.5264 116.283 107.761C116.283 124.996 99.2533 138.968 78.2458 138.968Z" fill="#EBEBEB"/>
<path d="M70.1159 141.412H87.0045C87.3089 141.412 87.6103 141.362 87.8912 141.266C88.1722 141.17 88.4271 141.029 88.6413 140.852C88.8556 140.674 89.0248 140.464 89.1393 140.232C89.2538 140.001 89.3114 139.753 89.3085 139.504C89.3114 139.255 89.2537 139.008 89.1389 138.777C89.0242 138.547 88.8547 138.338 88.6401 138.162C88.4256 137.986 88.1704 137.847 87.8895 137.752C87.6087 137.658 87.3079 137.611 87.0045 137.613H70.1159C69.8115 137.611 69.5095 137.658 69.2274 137.752C68.9454 137.846 68.6888 137.985 68.4726 138.161C68.2563 138.336 68.0847 138.546 67.9675 138.776C67.8504 139.007 67.7901 139.254 67.7902 139.504C67.7902 140.01 68.0352 140.495 68.4714 140.853C68.9075 141.211 69.4991 141.412 70.1159 141.412Z" fill="#F1F1F1"/>
<path d="M59.6397 341.134H97.0251C97.3608 341.136 97.6939 341.084 98.0049 340.98C98.316 340.877 98.5989 340.723 98.8374 340.529C99.0758 340.335 99.265 340.104 99.3942 339.85C99.5233 339.596 99.5899 339.323 99.5898 339.048C99.5898 338.771 99.5235 338.498 99.3946 338.242C99.2657 337.987 99.0767 337.755 98.8386 337.56C98.6004 337.364 98.3177 337.209 98.0065 337.104C97.6953 336.998 97.3619 336.943 97.0251 336.943H59.6397C59.3039 336.943 58.9714 336.998 58.6615 337.104C58.3515 337.21 58.0702 337.365 57.8338 337.561C57.5974 337.756 57.4105 337.989 57.284 338.244C57.1575 338.499 57.0938 338.772 57.0967 339.048C57.0967 339.601 57.3646 340.132 57.8415 340.523C58.3184 340.914 58.9653 341.134 59.6397 341.134Z" fill="#F1F1F1"/>
<path d="M1123.42 338.727H1148.03V582.585H1123.42V338.727Z" fill="#F1F1F1"/>
<path d="M1129.58 96.0449H1141.88V365.528H1129.58V96.0449Z" fill="#F1F1F1"/>
<path d="M1060.34 58.1243C1057.94 41.0018 1072.92 25.5276 1093.79 23.5616C1114.66 21.5956 1133.52 33.8823 1135.92 51.0048C1138.31 68.1273 1123.34 83.6016 1102.47 85.5676C1081.6 87.5336 1062.74 75.2468 1060.34 58.1243Z" fill="#FFD25C"/>
<path d="M1127.6 139.039H1144.49C1145.1 139.039 1145.7 138.838 1146.13 138.48C1146.57 138.122 1146.81 137.637 1146.81 137.131C1146.81 136.625 1146.57 136.139 1146.13 135.782C1145.7 135.424 1145.1 135.223 1144.49 135.223H1127.6C1126.98 135.223 1126.39 135.424 1125.95 135.782C1125.52 136.139 1125.27 136.625 1125.27 137.131C1125.27 137.637 1125.52 138.122 1125.95 138.48C1126.39 138.838 1126.98 139.039 1127.6 139.039Z" fill="#F1F1F1"/>
<path d="M1117.17 338.726H1154.57C1155.25 338.721 1155.9 338.497 1156.37 338.103C1156.85 337.709 1157.12 337.177 1157.12 336.622C1157.12 336.068 1156.85 335.538 1156.37 335.146C1155.89 334.755 1155.25 334.535 1154.57 334.535H1117.17C1116.49 334.535 1115.84 334.755 1115.37 335.146C1114.89 335.538 1114.62 336.068 1114.62 336.622C1114.62 336.897 1114.68 337.17 1114.81 337.425C1114.94 337.681 1115.12 337.913 1115.36 338.108C1115.6 338.304 1115.88 338.459 1116.19 338.565C1116.5 338.671 1116.83 338.726 1117.17 338.726Z" fill="#F1F1F1"/>
<path d="M389.847 51.9102H593.205V580.694H389.847V51.9102Z" fill="#F9F9F9"/>
<path d="M389.827 51.9102H491.506V579.232H389.827V51.9102Z" fill="#FD8A36" fill-opacity="0.61"/>
<path d="M498.156 0H569.971V51.9101H498.156V0Z" fill="#F9F9F9"/>
<path d="M498.177 0H515.283V51.9101H498.177V0Z" fill="#EBEBEB"/>
<path d="M610.137 51.9104V48.8789H383.869V51.9104" fill="#F1F1F1"/>
<path d="M535.846 74.5586H553.061V104.339H535.846V74.5586Z" fill="#FAFAFA"/>
<path d="M491.504 116.018C491.504 116.339 514.283 116.589 542.344 116.589C570.404 116.589 593.205 116.339 593.205 116.018C593.205 115.697 570.448 115.447 542.344 115.447C514.239 115.447 491.504 115.715 491.504 116.018Z" fill="#F1F1F1"/>
<path d="M433.276 74.5586H450.49V104.339H433.276V74.5586Z" fill="#F1F1F1"/>
<path d="M388.936 116.018C388.936 116.339 411.715 116.589 439.775 116.589C467.836 116.589 490.637 116.339 490.637 116.018C490.637 115.697 467.88 115.447 439.775 115.447C411.671 115.447 388.936 115.715 388.936 116.018Z" fill="#F1F1F1"/>
<path d="M433.276 133.672H450.49V163.452H433.276V133.672Z" fill="#F1F1F1"/>
<path d="M388.936 175.151C388.936 175.454 411.715 175.721 439.775 175.721C467.836 175.721 490.637 175.454 490.637 175.151C490.637 174.848 467.88 174.58 439.775 174.58C411.671 174.58 388.936 174.83 388.936 175.151Z" fill="#F1F1F1"/>
<path d="M433.276 194.588H450.49V224.368H433.276V194.588Z" fill="#F1F1F1"/>
<path d="M388.936 236.047C388.936 236.368 411.715 236.618 439.775 236.618C467.836 236.618 490.637 236.368 490.637 236.047C490.637 235.726 467.88 235.477 439.775 235.477C411.671 235.477 388.936 235.744 388.936 236.047Z" fill="#F1F1F1"/>
<path d="M433.276 255.504H450.49V285.284H433.276V255.504Z" fill="#F1F1F1"/>
<path d="M388.936 296.963C388.936 297.284 411.715 297.534 439.775 297.534C467.836 297.534 490.637 297.284 490.637 296.963C490.637 296.642 467.88 296.393 439.775 296.393C411.671 296.393 388.936 296.642 388.936 296.963Z" fill="#F1F1F1"/>
<path d="M433.276 314.652H450.49V344.432H433.276V314.652Z" fill="#F1F1F1"/>
<path d="M388.936 356.129C388.936 356.432 411.715 356.7 439.775 356.7C467.836 356.7 490.637 356.432 490.637 356.129C490.637 355.826 467.88 355.559 439.775 355.559C411.671 355.559 388.936 355.808 388.936 356.129Z" fill="#F1F1F1"/>
<path d="M433.276 374.07H450.49V403.85H433.276V374.07Z" fill="#F1F1F1"/>
<path d="M433.276 434.252H450.49V464.032H433.276V434.252Z" fill="#F1F1F1"/>
<path d="M388.936 415.532C388.936 415.853 411.715 416.102 439.775 416.102C467.836 416.102 490.637 415.853 490.637 415.532C490.637 415.211 467.88 414.961 439.775 414.961C411.671 414.961 388.936 415.211 388.936 415.532Z" fill="#F1F1F1"/>
<path d="M535.846 134.58H553.061V164.36H535.846V134.58Z" fill="#FAFAFA"/>
<path d="M491.504 176.041C491.504 176.362 514.283 176.612 542.344 176.612C570.404 176.612 593.205 176.362 593.205 176.041C593.205 175.72 570.448 175.471 542.344 175.471C514.239 175.471 491.504 175.738 491.504 176.041Z" fill="#F1F1F1"/>
<path d="M535.846 194.605H553.061V224.386H535.846V194.605Z" fill="#FAFAFA"/>
<path d="M491.504 236.066C491.504 236.387 514.283 236.637 542.344 236.637C570.404 236.637 593.205 236.387 593.205 236.066C593.205 235.745 570.448 235.514 542.344 235.514C514.239 235.514 491.504 235.763 491.504 236.066Z" fill="#F1F1F1"/>
<path d="M535.846 254.629H553.061V284.409H535.846V254.629Z" fill="#FAFAFA"/>
<path d="M491.504 296.108C491.504 296.411 514.283 296.678 542.344 296.678C570.404 296.678 593.205 296.411 593.205 296.108C593.205 295.805 570.448 295.537 542.344 295.537C514.239 295.537 491.504 295.787 491.504 296.108Z" fill="#F1F1F1"/>
<path d="M535.846 314.652H553.061V344.432H535.846V314.652Z" fill="#FAFAFA"/>
<path d="M491.504 356.129C491.504 356.432 514.283 356.7 542.344 356.7C570.404 356.7 593.205 356.432 593.205 356.129C593.205 355.826 570.448 355.559 542.344 355.559C514.239 355.559 491.504 355.808 491.504 356.129Z" fill="#F1F1F1"/>
<path d="M535.846 374.695H553.061V404.475H535.846V374.695Z" fill="#FAFAFA"/>
<path d="M491.504 416.155C491.504 416.476 514.283 416.725 542.344 416.725C570.404 416.725 593.205 416.476 593.205 416.155C593.205 415.834 570.448 415.584 542.344 415.584C514.239 415.584 491.504 415.834 491.504 416.155Z" fill="#F1F1F1"/>
<path d="M535.846 434.719H553.061V464.499H535.846V434.719Z" fill="#FAFAFA"/>
<path d="M244.479 347.893H393.998V580.695H244.479V347.893Z" fill="#F1F1F1"/>
<path d="M244.479 347.893H314.576V580.695H244.479V347.893Z" fill="#EBEBEB"/>
<path d="M349.224 369.791H362.656V396.593H349.224V369.791Z" fill="#F9F9F9"/>
<path d="M349.224 474.662H362.656V501.464H349.224V474.662Z" fill="#F9F9F9"/>
<path d="M314.576 407.112C314.576 407.343 332.356 407.522 354.287 407.522C376.218 407.522 393.998 407.343 393.998 407.112C393.998 406.88 376.218 406.684 354.287 406.684C332.356 406.684 314.576 406.88 314.576 407.112Z" fill="#F9F9F9"/>
<path d="M349.224 422.627H362.656V449.429H349.224V422.627Z" fill="#F9F9F9"/>
<path d="M314.576 459.951C314.576 460.183 332.356 460.362 354.287 460.362C376.218 460.362 393.998 460.183 393.998 459.951C393.998 459.72 376.218 459.523 354.287 459.523C332.356 459.523 314.576 459.72 314.576 459.951Z" fill="#F9F9F9"/>
<path d="M286.255 369.791H299.688V396.593H286.255V369.791Z" fill="#F1F1F1"/>
<path d="M257.108 369.791H270.541V396.593H257.108V369.791Z" fill="#F1F1F1"/>
<path d="M286.255 420.648H299.688V447.451H286.255V420.648Z" fill="#F1F1F1"/>
<path d="M257.108 420.648H270.541V447.451H257.108V420.648Z" fill="#F1F1F1"/>
<path d="M286.255 471.488H299.688V498.29H286.255V471.488Z" fill="#F1F1F1"/>
<path d="M257.108 471.488H270.541V498.29H257.108V471.488Z" fill="#F1F1F1"/>
<path d="M233.242 342.256H405.236V348.087H233.242V342.256Z" fill="#F1F1F1"/>
<path d="M243.437 348.643C243.437 348.874 276.866 349.053 318.077 349.053C359.287 349.053 392.717 348.874 392.717 348.643C392.717 348.411 359.287 348.232 318.077 348.232C276.866 348.232 243.437 348.411 243.437 348.643Z" fill="#EBEBEB"/>
<path d="M558.08 205.857H732.639V580.694H558.08V205.857Z" fill="#EBEBEB"/>
<path d="M558.102 205.857H645.371V580.694H558.102V205.857Z" fill="#F1F1F1"/>
<path d="M651.067 161.293H712.709V205.856H651.067V161.293Z" fill="#EBEBEB"/>
<path d="M651.067 161.293H665.76V205.856H651.067V161.293Z" fill="#F1F1F1"/>
<path d="M552.974 203.254H747.182V205.857H552.974V203.254Z" fill="#F1F1F1"/>
<path d="M683.409 225.277H698.189V250.831H683.409V225.277Z" fill="white"/>
<path d="M645.37 260.89C645.37 261.157 664.932 261.389 688.993 261.389C713.055 261.389 732.639 261.157 732.639 260.89C732.639 260.622 713.077 260.408 688.993 260.408C664.91 260.408 645.37 260.604 645.37 260.89Z" fill="#F1F1F1"/>
<path d="M595.357 225.277H610.137V250.831H595.357V225.277Z" fill="#F9F9F9"/>
<path d="M557.385 260.89C557.385 261.157 576.948 261.389 601.031 261.389C625.114 261.389 644.676 261.157 644.676 260.89C644.676 260.622 625.114 260.408 601.031 260.408C576.948 260.408 557.385 260.604 557.385 260.89Z" fill="#EBEBEB"/>
<path d="M595.357 276.027H610.137V301.581H595.357V276.027Z" fill="#F9F9F9"/>
<path d="M557.385 311.622C557.385 311.89 576.948 312.104 601.031 312.104C625.114 312.104 644.676 311.89 644.676 311.622C644.676 311.355 625.114 311.141 601.031 311.141C576.948 311.141 557.385 311.355 557.385 311.622Z" fill="#EBEBEB"/>
<path d="M595.357 328.312H610.137V353.866H595.357V328.312Z" fill="#F9F9F9"/>
<path d="M557.385 363.906C557.385 364.173 576.948 364.387 601.031 364.387C625.114 364.387 644.676 364.173 644.676 363.906C644.676 363.638 625.114 363.406 601.031 363.406C576.948 363.406 557.385 363.638 557.385 363.906Z" fill="#EBEBEB"/>
<path d="M595.357 380.58H610.137V406.134H595.357V380.58Z" fill="#F9F9F9"/>
<path d="M557.385 416.175C557.385 416.442 576.948 416.674 601.031 416.674C625.114 416.674 644.676 416.442 644.676 416.175C644.676 415.907 625.114 415.693 601.031 415.693C576.948 415.693 557.385 415.907 557.385 416.175Z" fill="#EBEBEB"/>
<path d="M595.357 431.365H610.137V456.919H595.357V431.365Z" fill="#F9F9F9"/>
<path d="M557.385 466.96C557.385 467.227 576.948 467.459 601.031 467.459C625.114 467.459 644.676 467.227 644.676 466.96C644.676 466.692 625.114 466.479 601.031 466.479C576.948 466.479 557.385 466.692 557.385 466.96Z" fill="#EBEBEB"/>
<path d="M595.357 482.365H610.137V507.919H595.357V482.365Z" fill="#F9F9F9"/>
<path d="M595.357 534.008H610.137V559.562H595.357V534.008Z" fill="#F9F9F9"/>
<path d="M557.385 517.942C557.385 518.228 576.948 518.442 601.031 518.442C625.114 518.442 644.676 518.228 644.676 517.942C644.676 517.657 625.114 517.461 601.031 517.461C576.948 517.461 557.385 517.675 557.385 517.942Z" fill="#EBEBEB"/>
<path d="M683.409 276.812H698.189V302.366H683.409V276.812Z" fill="white"/>
<path d="M645.37 312.388C645.37 312.673 664.932 312.887 688.993 312.887C713.055 312.887 732.639 312.673 732.639 312.388C732.639 312.102 713.077 311.906 688.993 311.906C664.91 311.906 645.37 312.12 645.37 312.388Z" fill="#F1F1F1"/>
<path d="M683.409 328.33H698.189V353.884H683.409V328.33Z" fill="white"/>
<path d="M645.37 363.923C645.37 364.191 664.932 364.405 688.993 364.405C713.055 364.405 732.639 364.191 732.639 363.923C732.639 363.656 713.077 363.424 688.993 363.424C664.91 363.424 645.37 363.656 645.37 363.923Z" fill="#F1F1F1"/>
<path d="M683.409 379.848H698.189V405.402H683.409V379.848Z" fill="white"/>
<path d="M645.37 415.442C645.37 415.71 664.932 415.924 688.993 415.924C713.055 415.924 732.639 415.71 732.639 415.442C732.639 415.175 713.077 414.961 688.993 414.961C664.91 414.961 645.37 415.175 645.37 415.442Z" fill="#F1F1F1"/>
<path d="M683.409 431.365H698.189V456.919H683.409V431.365Z" fill="white"/>
<path d="M645.37 466.96C645.37 467.227 664.932 467.459 688.993 467.459C713.055 467.459 732.639 467.227 732.639 466.96C732.639 466.692 713.077 466.479 688.993 466.479C664.91 466.479 645.37 466.692 645.37 466.96Z" fill="#F1F1F1"/>
<path d="M683.409 482.883H698.189V508.437H683.409V482.883Z" fill="white"/>
<path d="M645.37 518.476C645.37 518.743 664.932 518.975 688.993 518.975C713.055 518.975 732.639 518.743 732.639 518.476C732.639 518.208 713.077 517.994 688.993 517.994C664.91 517.994 645.37 518.208 645.37 518.476Z" fill="#F1F1F1"/>
<path d="M683.409 534.42H698.189V559.974H683.409V534.42Z" fill="white"/>
<path d="M687.408 347.893H836.928V580.695H687.408V347.893Z" fill="#F1F1F1"/>
<path d="M687.408 347.893H757.506V580.695H687.408V347.893Z" fill="#EBEBEB"/>
<path d="M792.151 369.791H805.584V396.593H792.151V369.791Z" fill="#F9F9F9"/>
<path d="M792.151 474.662H805.584V501.464H792.151V474.662Z" fill="#F9F9F9"/>
<path d="M757.506 407.112C757.506 407.343 775.285 407.522 797.217 407.522C819.148 407.522 836.928 407.343 836.928 407.112C836.928 406.88 819.148 406.684 797.217 406.684C775.285 406.684 757.506 406.88 757.506 407.112Z" fill="#F9F9F9"/>
<path d="M792.151 422.627H805.584V449.429H792.151V422.627Z" fill="#F9F9F9"/>
<path d="M757.506 459.951C757.506 460.183 775.285 460.362 797.217 460.362C819.148 460.362 836.928 460.183 836.928 459.951C836.928 459.72 819.148 459.523 797.217 459.523C775.285 459.523 757.506 459.72 757.506 459.951Z" fill="#F9F9F9"/>
<path d="M729.185 369.791H742.617V396.593H729.185V369.791Z" fill="#F1F1F1"/>
<path d="M700.036 369.791H713.469V396.593H700.036V369.791Z" fill="#F1F1F1"/>
<path d="M729.185 420.648H742.617V447.451H729.185V420.648Z" fill="#F1F1F1"/>
<path d="M700.036 420.648H713.469V447.451H700.036V420.648Z" fill="#F1F1F1"/>
<path d="M729.185 471.488H742.617V498.29H729.185V471.488Z" fill="#F1F1F1"/>
<path d="M700.036 471.488H713.469V498.29H700.036V471.488Z" fill="#F1F1F1"/>
<path d="M676.17 342.256H848.164V348.087H676.17V342.256Z" fill="#F1F1F1"/>
<path d="M686.364 348.643C686.364 348.874 719.772 349.053 761.004 349.053C802.237 349.053 835.645 348.874 835.645 348.643C835.645 348.411 802.215 348.232 761.004 348.232C719.794 348.232 686.364 348.411 686.364 348.643Z" fill="#EBEBEB"/>
<path d="M801.324 435.197H935.172V580.05H801.324V435.197Z" fill="#EBEBEB"/>
<path d="M801.347 435.197H864.098V580.05H801.347V435.197Z" fill="#F1F1F1"/>
<path d="M895.07 454.814H907.111V478.799H895.07V454.814Z" fill="#F9F9F9"/>
<path d="M895.07 548.703H907.111V572.688H895.07V548.703Z" fill="#F9F9F9"/>
<path d="M864.096 488.214C864.096 488.482 880.007 488.696 899.634 488.696C919.261 488.696 935.172 488.482 935.172 488.214C935.172 487.947 919.261 487.715 899.634 487.715C880.007 487.715 864.096 487.947 864.096 488.214Z" fill="#F9F9F9"/>
<path d="M895.07 502.109H907.111V526.094H895.07V502.109Z" fill="#F9F9F9"/>
<path d="M864.098 535.507C864.098 535.774 880.009 536.006 899.636 536.006C919.263 536.006 935.174 535.774 935.174 535.507C935.174 535.239 919.263 535.025 899.636 535.025C880.009 535.025 864.098 535.239 864.098 535.507Z" fill="#F9F9F9"/>
<path d="M838.732 454.814H850.773V478.799H838.732V454.814Z" fill="#F9F9F9"/>
<path d="M812.605 454.814H824.646V478.799H812.605V454.814Z" fill="#F9F9F9"/>
<path d="M838.732 500.324H850.773V524.309H838.732V500.324Z" fill="#F9F9F9"/>
<path d="M812.605 500.324H824.646V524.309H812.605V500.324Z" fill="#F9F9F9"/>
<path d="M838.732 545.85H850.773V569.834H838.732V545.85Z" fill="#F9F9F9"/>
<path d="M812.605 545.85H824.646V569.834H812.605V545.85Z" fill="#F9F9F9"/>
<path d="M791.261 430.152H945.236V435.377H791.261V430.152Z" fill="#F1F1F1"/>
<path d="M800.389 435.878C800.389 436.146 830.319 436.36 867.204 436.36C904.09 436.36 934.02 436.146 934.02 435.878C934.02 435.611 904.111 435.379 867.204 435.379C830.297 435.379 800.389 435.646 800.389 435.878Z" fill="#EBEBEB"/>
<path d="M339.812 150.505H217.745C217.745 150.505 228.613 134.455 259.956 136.72C289.973 138.967 291.494 128.803 306.753 127.554C322.011 126.306 334.726 135.9 339.812 150.505Z" fill="#64ACC2" fill-opacity="0.6"/>
<path d="M848.904 70.9019H726.924C726.924 70.9019 737.792 54.8527 769.135 57.1352C799.151 59.3821 800.673 49.2177 815.931 47.9516C831.19 46.6855 843.818 56.2971 848.904 70.9019Z" fill="#EBEBEB"/>
<path d="M1107.5 581.299H1225.39V604.053H1107.5V581.299Z" fill="#EBEBEB"/>
<path d="M986.928 581.299H1104.82V604.053H986.928V581.299Z" fill="#F9F9F9"/>
<path d="M866.362 581.299H984.256V604.053H866.362V581.299Z" fill="#EBEBEB"/>
<path d="M745.793 581.299H863.688V604.053H745.793V581.299Z" fill="#F9F9F9"/>
<path d="M625.227 581.299H743.121V604.053H625.227V581.299Z" fill="#EBEBEB"/>
<path d="M504.659 581.299H622.553V604.053H504.659V581.299Z" fill="#F9F9F9"/>
<path d="M384.09 581.299H501.984V604.053H384.09V581.299Z" fill="#EBEBEB"/>
<path d="M263.524 581.299H381.418V604.053H263.524V581.299Z" fill="#EBEBEB"/>
<path d="M142.956 581.299H260.85V604.053H142.956V581.299Z" fill="#F9F9F9"/>
<path d="M22.3892 581.299H140.283V604.053H22.3892V581.299Z" fill="#EBEBEB"/>
<path d="M1106.06 603.947C1106.82 597.167 1106.82 590.345 1106.06 583.564C1105.31 590.345 1105.31 597.167 1106.06 603.947Z" fill="#E3E3E3"/>
<path d="M985.407 603.948C986.154 597.197 986.154 590.405 985.407 583.654C984.653 590.434 984.653 597.257 985.407 604.037V603.948Z" fill="#E3E3E3"/>
<path d="M864.732 603.947C865.485 597.167 865.485 590.345 864.732 583.564C863.978 590.345 863.978 597.167 864.732 603.947Z" fill="#E3E3E3"/>
<path d="M744.141 603.948C744.888 597.197 744.888 590.405 744.141 583.654C743.387 590.434 743.387 597.257 744.141 604.037V603.948Z" fill="#E3E3E3"/>
<path d="M623.402 603.947C624.155 597.167 624.155 590.345 623.402 583.564C622.648 590.345 622.648 597.167 623.402 603.947Z" fill="#E3E3E3"/>
<path d="M502.745 603.947C503.499 597.167 503.499 590.345 502.745 583.564C501.992 590.345 501.992 597.167 502.745 603.947Z" fill="#E3E3E3"/>
<path d="M382.091 603.947C382.845 597.167 382.845 590.345 382.091 583.564C381.338 590.345 381.338 597.167 382.091 603.947Z" fill="#E3E3E3"/>
<path d="M261.415 603.947C262.169 597.167 262.169 590.345 261.415 583.564C260.662 590.345 260.662 597.167 261.415 603.947Z" fill="#E3E3E3"/>
<path d="M140.761 603.947C141.515 597.167 141.515 590.345 140.761 583.564C140.008 590.345 140.008 597.167 140.761 603.947Z" fill="#E3E3E3"/>
<path d="M20.1067 603.947C20.8603 597.167 20.8603 590.345 20.1067 583.564C19.3532 590.345 19.3532 597.167 20.1067 603.947Z" fill="#E3E3E3"/>
<path d="M134.479 412.992C110.054 406.61 88.6999 390.549 76.8128 369.603C70.9413 359.211 67.3635 347.682 66.32 335.792C65.2766 323.901 66.7917 311.926 70.7635 300.67C77.0699 283.142 89.1989 267.701 94.4165 249.855C100.315 229.605 96.806 208.115 93.1462 187.395C89.4863 166.676 85.7962 145.262 91.3313 124.921C96.8665 104.58 114.304 85.4635 136.702 84.0873C157.496 82.7413 176.718 97.1388 185.384 114.833C194.05 132.528 194.125 152.838 192.099 172.302C190.072 191.766 186.125 211.033 187.365 230.482C189.876 269.803 213.468 306.855 210.701 346.192C209.188 366.684 200.765 379.781 186.246 395.191C173.724 408.47 152.974 417.211 134.463 413.128" fill="#8DEABA" fill-opacity="0.71"/>
<path d="M141.843 607.962C141.617 607.962 141.45 520.806 141.45 413.293C141.45 305.781 141.617 218.609 141.843 218.609C142.07 218.609 142.237 305.751 142.237 413.293C142.237 520.836 142.055 607.962 141.843 607.962Z" fill="#E2E2E2"/>
<path d="M140.709 344.967C139.426 344.018 138.227 342.961 137.125 341.806C134.978 339.78 132.074 336.921 129.004 333.64C125.934 330.358 123.121 327.469 121.079 325.352C119.923 324.264 118.856 323.086 117.888 321.828C119.175 322.779 120.379 323.836 121.488 324.989C123.62 327.015 126.539 329.889 129.594 333.156C132.649 336.422 135.492 339.326 137.518 341.443C138.675 342.53 139.742 343.709 140.709 344.967Z" fill="#E2E2E2"/>
<path d="M208.039 591.811H77.8413V607.72H208.039V591.811Z" fill="#E2E2E2"/>
<path d="M143.145 263.407C145.932 262.718 148.588 261.579 151.009 260.034C153.564 258.37 155.739 256.185 157.391 253.622C159.398 250.581 160.595 247.077 160.869 243.444V243.096L161.323 243.489C157.637 244.147 154.269 245.996 151.735 248.752C149.663 250.91 147.87 253.318 146.396 255.921C145.111 258.129 144.203 259.974 143.598 261.244C143.323 261.932 142.989 262.595 142.6 263.225C142.773 262.507 143.016 261.808 143.326 261.138C144.07 259.267 144.928 257.444 145.897 255.679C147.333 252.995 149.118 250.513 151.205 248.298C153.823 245.385 157.343 243.435 161.202 242.763L161.701 242.688V243.141V243.489C161.428 247.244 160.177 250.863 158.071 253.985C156.337 256.604 154.057 258.817 151.387 260.473C149.546 261.648 147.529 262.521 145.413 263.059C144.84 263.201 144.26 263.307 143.674 263.376C143.281 263.422 143.145 263.437 143.145 263.407Z" fill="#E2E2E2"/>
<path d="M143.144 263.406C144.759 260.994 146.581 258.727 148.588 256.631C150.415 254.354 152.439 252.244 154.638 250.324C153.02 252.738 151.193 255.006 149.178 257.1C147.355 259.374 145.336 261.484 143.144 263.406Z" fill="#E2E2E2"/>
<path d="M161.504 574.072C148.195 563.138 146.381 544.627 148.286 528.263C148.589 525.526 148.528 522.607 150.01 520.308C151.492 518.009 154.683 516.603 157.043 517.949C158.994 519.068 159.704 521.503 160.687 523.56C161.998 526.292 164.059 528.595 166.631 530.199C167.413 530.801 168.33 531.202 169.303 531.368C170.276 531.534 171.274 531.46 172.211 531.152C174.677 530.032 175.236 526.781 175.403 524.059C175.786 519.018 176.154 513.936 176.507 508.814C176.571 506.078 177.082 503.371 178.019 500.799C178.482 499.516 179.247 498.364 180.25 497.44C181.254 496.516 182.465 495.847 183.781 495.491C185.104 495.221 186.479 495.482 187.611 496.218C188.743 496.953 189.54 498.104 189.83 499.423C189.853 500.56 189.792 501.697 189.649 502.825C189.589 503.394 189.701 503.967 189.971 504.472C190.241 504.976 190.655 505.387 191.161 505.653C191.71 505.757 192.276 505.719 192.806 505.541C193.335 505.364 193.81 505.054 194.186 504.64C197.1 501.956 199.557 498.815 201.46 495.339C203.366 491.862 205.67 488.619 208.326 485.675C209.653 484.211 211.26 483.028 213.052 482.196C214.845 481.365 216.787 480.902 218.761 480.836C222.694 480.927 226.656 483.649 227.336 487.566C228.017 491.483 225.476 495.128 222.799 498.152C218.816 502.476 214.232 506.204 209.188 509.223C208.217 509.668 207.413 510.409 206.89 511.34C206.148 513.109 207.736 515.045 209.476 515.786C211.531 516.404 213.644 516.809 215.782 516.996C216.855 517.111 217.879 517.505 218.752 518.139C219.625 518.774 220.317 519.626 220.758 520.611C221.65 523.484 219.094 526.221 216.659 527.945C211.762 531.409 206.31 534.012 200.538 535.643C198.426 536.048 196.406 536.838 194.579 537.972C193.676 538.567 192.988 539.437 192.618 540.453C192.248 541.469 192.214 542.577 192.522 543.613C193.039 544.558 193.84 545.317 194.812 545.781C195.783 546.245 196.877 546.392 197.936 546.199C200.04 545.785 202.1 545.177 204.092 544.385C207.948 543.265 212.757 543.916 214.905 547.409C215.549 548.581 215.913 549.885 215.968 551.221C216.023 552.557 215.768 553.887 215.223 555.107C214.117 557.536 212.532 559.717 210.565 561.519C204.071 568.142 195.942 572.931 187.002 575.403C178.079 577.732 169.958 577.913 161.58 574.072" fill="#E2E2E2"/>
<g opacity="0.4">
<path opacity="0.4" d="M161.504 574.072C148.195 563.138 146.381 544.627 148.286 528.263C148.589 525.526 148.528 522.607 150.01 520.308C151.492 518.009 154.683 516.603 157.043 517.949C158.994 519.068 159.704 521.503 160.687 523.56C161.998 526.292 164.059 528.595 166.631 530.199C167.413 530.801 168.33 531.202 169.303 531.368C170.276 531.534 171.274 531.46 172.211 531.152C174.677 530.032 175.236 526.781 175.403 524.059C175.786 519.018 176.154 513.936 176.507 508.814C176.571 506.078 177.082 503.371 178.019 500.799C178.482 499.516 179.247 498.364 180.25 497.44C181.254 496.516 182.465 495.847 183.781 495.491C185.104 495.221 186.479 495.482 187.611 496.218C188.743 496.953 189.54 498.104 189.83 499.423C189.853 500.56 189.792 501.697 189.649 502.825C189.589 503.394 189.701 503.967 189.971 504.472C190.241 504.976 190.655 505.387 191.161 505.653C191.71 505.757 192.276 505.719 192.806 505.541C193.335 505.364 193.81 505.054 194.186 504.64C197.1 501.956 199.557 498.815 201.46 495.339C203.366 491.862 205.67 488.619 208.326 485.675C209.653 484.211 211.26 483.028 213.052 482.196C214.845 481.365 216.787 480.902 218.761 480.836C222.694 480.927 226.656 483.649 227.336 487.566C228.017 491.483 225.476 495.128 222.799 498.152C218.816 502.476 214.232 506.204 209.188 509.223C208.217 509.668 207.413 510.409 206.89 511.34C206.148 513.109 207.736 515.045 209.476 515.786C211.531 516.404 213.644 516.809 215.782 516.996C216.855 517.111 217.879 517.505 218.752 518.139C219.625 518.774 220.317 519.626 220.758 520.611C221.65 523.484 219.094 526.221 216.659 527.945C211.762 531.409 206.31 534.012 200.538 535.643C198.426 536.048 196.406 536.838 194.579 537.972C193.676 538.567 192.988 539.437 192.618 540.453C192.248 541.469 192.214 542.577 192.522 543.613C193.039 544.558 193.84 545.317 194.812 545.781C195.783 546.245 196.877 546.392 197.936 546.199C200.04 545.785 202.1 545.177 204.092 544.385C207.948 543.265 212.757 543.916 214.905 547.409C215.549 548.581 215.913 549.885 215.968 551.221C216.023 552.557 215.768 553.887 215.223 555.107C214.117 557.536 212.532 559.717 210.565 561.519C204.071 568.142 195.942 572.931 187.002 575.403C178.079 577.732 169.958 577.913 161.58 574.072" fill="#AAECCA"/>
</g>
<path d="M223.662 483.543C223.662 483.543 223.571 483.634 223.374 483.785L222.512 484.435C221.756 485.01 220.622 485.872 219.215 486.991C215.193 490.176 211.417 493.659 207.918 497.411C205.695 499.77 203.381 502.477 200.901 505.411C198.421 508.345 195.865 511.461 193.264 514.939C190.546 518.507 188.022 522.217 185.702 526.055C184.492 528.051 183.388 530.153 182.254 532.301C181.12 534.448 179.985 536.626 178.836 538.834C174.436 547.091 170.502 555.589 167.055 564.287C164.266 571.406 162.16 578.774 160.763 586.292C159.814 591.36 159.307 596.501 159.251 601.657C159.251 603.487 159.251 604.909 159.327 605.861C159.327 606.33 159.327 606.693 159.327 606.965V607.328C159.311 607.208 159.311 607.086 159.327 606.965C159.327 606.693 159.296 606.33 159.236 605.876C159.16 604.909 159.1 603.487 159.07 601.657C159.033 596.486 159.468 591.323 160.37 586.231C161.742 578.68 163.828 571.277 166.601 564.121C170.021 555.391 173.945 546.867 178.352 538.592C179.516 536.399 180.651 534.222 181.785 532.074C182.919 529.927 184.023 527.809 185.248 525.798C187.606 521.943 190.176 518.222 192.946 514.652C195.562 511.219 198.179 508.073 200.629 505.139C203.079 502.205 205.453 499.513 207.707 497.169C211.238 493.429 215.061 489.975 219.14 486.84C220.577 485.736 221.726 484.904 222.497 484.36L223.405 483.74L223.662 483.543Z" fill="#84E7B3"/>
<path d="M185.354 525.782C185.258 525.395 185.198 525.001 185.173 524.603C185.173 523.832 185.006 522.728 184.931 521.351C184.749 518.614 184.643 514.818 184.537 510.629C184.432 506.44 184.28 502.659 184.069 499.921C183.963 498.56 183.872 497.456 183.796 496.685C183.744 496.288 183.744 495.887 183.796 495.49C183.919 495.874 184 496.269 184.038 496.67C184.174 497.426 184.326 498.53 184.477 499.891C184.779 502.629 185.006 506.424 185.097 510.614C185.188 514.803 185.278 518.478 185.339 521.336C185.339 522.622 185.339 523.711 185.43 524.588C185.45 524.988 185.425 525.388 185.354 525.782Z" fill="#E2E2E2"/>
<path d="M220.894 521.987C220.426 522.041 219.954 522.041 219.487 521.987C218.58 521.987 217.279 521.987 215.661 522.062C212.424 522.153 207.948 522.44 203.048 522.97C198.148 523.499 193.702 524.195 190.511 524.784C188.998 525.057 187.637 525.314 186.745 525.495C186.289 525.613 185.823 525.689 185.354 525.722C185.788 525.54 186.239 525.398 186.7 525.299C187.577 525.072 188.862 524.754 190.45 524.421C193.626 523.756 198.012 523.015 202.987 522.471C207.963 521.926 212.409 521.714 215.646 521.699C217.279 521.699 218.58 521.699 219.487 521.79C219.96 521.818 220.431 521.884 220.894 521.987Z" fill="#E2E2E2"/>
<path d="M167.024 563.515C166.945 563.37 166.879 563.218 166.828 563.061L166.329 561.746C165.89 560.611 165.315 558.933 164.635 556.861C163.259 552.717 161.534 546.925 159.735 540.528C157.935 534.13 156.256 528.308 154.971 524.149C154.336 522.122 153.822 520.444 153.459 519.203C153.307 518.674 153.171 518.236 153.05 517.857C152.991 517.707 152.956 517.549 152.944 517.389C152.944 517.389 153.035 517.525 153.156 517.827C153.277 518.13 153.443 518.614 153.655 519.143C154.079 520.292 154.653 521.956 155.334 524.028C156.71 528.172 158.434 533.964 160.249 540.376C162.064 546.789 163.712 552.581 164.998 556.755C165.633 558.782 166.147 560.445 166.51 561.685L166.918 563.031C167.009 563.349 167.054 563.5 167.024 563.515Z" fill="#E2E2E2"/>
<path d="M214.769 552.172L214.285 552.324L212.894 552.671L207.782 553.896C203.472 554.925 197.528 556.422 190.965 558.086C184.401 559.749 178.428 561.201 174.087 562.139C171.909 562.608 170.155 562.97 168.93 563.197L167.523 563.454C167.358 563.479 167.19 563.479 167.024 563.454C167.178 563.381 167.341 563.331 167.508 563.303L168.9 562.955L174.011 561.73C178.322 560.687 184.265 559.19 190.844 557.541C197.423 555.893 203.366 554.426 207.706 553.488C209.884 553.004 211.639 552.641 212.864 552.414L214.27 552.157C214.436 552.142 214.604 552.147 214.769 552.172Z" fill="#E2E2E2"/>
<path d="M136.883 560.628C163.122 541.618 168.567 507.061 166.994 476.103C166.722 470.931 167.206 465.517 164.665 460.98C162.124 456.443 156.332 453.494 151.749 455.747C147.938 457.622 146.335 462.114 144.263 465.849C141.469 470.818 137.334 474.9 132.331 477.631C129.064 479.4 125.011 480.504 121.745 478.765C117.208 476.39 116.618 470.235 116.557 465.154C116.456 455.565 116.356 445.987 116.255 436.419C116.255 431.277 116.119 426.029 114.44 421.175C112.761 416.32 109.147 411.844 104.232 410.588C99.3165 409.333 93.3125 412.222 92.3597 417.273C92.2159 419.408 92.2159 421.55 92.3597 423.685C92.2538 425.818 91.3011 428.222 89.335 428.827C87.369 429.432 85.2215 428.041 83.6486 426.559C78.2647 421.462 74.5745 414.838 71.0659 408.244C67.5573 401.65 64.1999 394.89 59.2848 389.31C54.3696 383.729 47.6397 379.358 40.2746 379.071C32.9095 378.784 25.1512 383.457 23.3968 390.716C21.6425 397.975 25.9981 405.28 30.7015 411.072C37.6779 419.659 45.8585 427.193 54.9897 433.44C56.7661 434.377 58.1929 435.862 59.0579 437.674C60.2375 441.077 57.0465 444.54 53.6891 445.72C49.878 447.066 45.7039 446.733 41.7113 447.232C37.7187 447.732 33.3934 449.622 31.9416 453.433C29.915 458.726 34.4067 464.156 38.7925 467.694C47.5813 474.772 57.5209 480.286 68.1773 483.998C71.9884 485.313 75.9962 486.463 79.0813 489.064C82.1665 491.665 84.1023 496.263 82.3177 499.907C80.5332 503.552 75.8298 504.807 71.8523 504.142C67.8749 503.477 64.2906 501.374 60.4946 500.028C53.3866 497.473 44.2672 498.123 39.8511 504.308C36.9323 508.361 36.8265 513.957 38.3388 518.721C40.1432 523.404 42.8688 527.678 46.3542 531.288C57.7845 544.55 72.5267 554.543 89.0779 560.25C105.562 565.649 120.837 566.919 136.974 560.688" fill="#E2E2E2"/>
<path d="M138.91 606.555C139.409 599.689 139.031 595.832 137.67 583.582C136.001 569.245 132.963 555.1 128.596 541.343C123.166 524.561 116.779 508.105 109.464 492.055C107.549 487.771 105.653 483.551 103.778 479.397C101.903 475.238 100.058 471.125 97.9858 467.208C94.0064 459.701 89.6138 452.42 84.8284 445.4C80.2914 438.655 75.7543 432.424 71.4895 426.631C67.2247 420.839 63.0809 415.531 59.1337 410.843C52.9152 403.397 46.1134 396.458 38.7927 390.093C36.2217 387.84 34.1649 386.161 32.7433 385.042L31.2309 383.832C31.0539 383.677 30.8613 383.54 30.6562 383.424C30.8093 383.604 30.9817 383.766 31.1704 383.908L32.6828 385.239C34.0439 386.403 36.0704 388.127 38.5961 390.426C45.7706 396.86 52.449 403.826 58.5741 411.266C62.476 415.969 66.5442 421.293 70.809 427.1C75.0738 432.908 79.5654 439.199 84.0571 445.868C88.8055 452.879 93.1675 460.144 97.1237 467.631C99.1654 471.533 101.01 475.616 102.886 479.73L108.557 492.388C115.852 508.408 122.249 524.823 127.718 541.554C132.126 555.246 135.235 569.323 137.004 583.598C138.517 595.802 138.925 599.613 138.517 606.479" fill="#E2E2E2"/>
<path d="M97.668 467.226C97.9025 466.508 98.0596 465.768 98.1368 465.018C98.3788 463.596 98.6661 461.524 98.9837 458.968C99.6189 453.841 100.269 446.718 100.95 438.869C101.63 431.02 102.356 423.927 103.082 418.831C103.43 416.275 103.732 414.203 103.959 412.781C104.124 412.046 104.211 411.296 104.216 410.543C103.921 411.235 103.713 411.962 103.596 412.706C103.264 414.112 102.855 416.169 102.417 418.755C101.524 423.852 100.678 430.96 99.997 438.824C99.3164 446.688 98.772 453.569 98.3183 458.923C98.1065 461.343 97.9099 463.384 97.7738 464.972C97.655 465.717 97.6195 466.473 97.668 467.226Z" fill="#E2E2E2"/>
<path d="M31.3516 455.957C32.2245 456.121 33.1101 456.207 33.9982 456.214C35.692 456.351 38.1571 456.502 41.1818 456.804C47.2312 457.349 55.5944 458.407 64.7592 459.98C73.924 461.553 82.1663 463.338 88.0796 464.805C91.1042 465.515 93.4333 466.151 95.0817 466.589C95.9241 466.864 96.7897 467.061 97.6678 467.179C96.8706 466.789 96.0407 466.47 95.1876 466.226C93.5542 465.697 91.195 464.956 88.2459 464.154C82.3478 462.521 74.1206 460.615 64.9256 459.027C57.081 457.658 49.1711 456.694 41.2272 456.139C38.2025 455.912 35.7071 455.852 33.9982 455.852C33.1147 455.793 32.2275 455.829 31.3516 455.957Z" fill="#E2E2E2"/>
<path d="M127.719 540.149C127.902 539.899 128.049 539.624 128.157 539.333C128.46 538.682 128.808 537.82 129.246 536.928C130.184 534.826 131.454 531.756 132.982 527.945C136.006 520.383 139.938 509.645 144.082 497.819C148.226 485.992 152.022 475.285 154.911 467.572C156.332 463.837 157.497 460.767 158.374 458.498C158.737 457.515 159.054 456.698 159.296 456.018C159.43 455.74 159.522 455.445 159.569 455.141C159.383 455.384 159.235 455.654 159.13 455.942L158.026 458.362C157.104 460.449 155.818 463.534 154.291 467.345C151.266 474.907 147.334 485.645 143.19 497.471C139.046 509.298 135.265 519.99 132.362 527.718L128.913 536.792L127.976 539.272C127.852 539.552 127.766 539.847 127.719 540.149Z" fill="#E2E2E2"/>
<path d="M39.3828 513.336C39.6606 513.486 39.955 513.603 40.26 513.684L42.831 514.485L52.2982 517.374C60.2834 519.824 71.263 523.317 83.4071 527.189C95.5512 531.061 106.591 534.479 114.637 536.747C118.645 537.896 121.911 538.789 124.18 539.348L126.796 539.983C127.095 540.078 127.405 540.134 127.719 540.15C127.441 540 127.147 539.883 126.842 539.802L124.271 538.985L114.818 536.112C106.833 533.662 95.8386 530.168 83.6945 526.282C71.5504 522.395 60.5254 519.007 52.4797 516.724C48.4569 515.589 45.2053 514.697 42.9368 514.137L40.3053 513.487C40.0065 513.393 39.6959 513.342 39.3828 513.336Z" fill="#E2E2E2"/>
</svg>
