<svg width="244" height="195" viewBox="0 0 244 195" fill="none" xmlns="http://www.w3.org/2000/svg">
<path d="M244 172.611H0V172.733H244V172.611Z" fill="#EBEBEB"/>
<path d="M115.656 150.846H21.4281C20.6899 150.845 19.9824 150.551 19.4609 150.029C18.9394 149.506 18.6465 148.798 18.6465 148.06V15.602C18.6529 14.8681 18.9487 14.1663 19.4695 13.6492C19.9903 13.132 20.6941 12.8412 21.4281 12.84H115.656C116.395 12.84 117.104 13.1335 117.626 13.6561C118.149 14.1787 118.443 14.8874 118.443 15.6264V148.06C118.443 148.799 118.149 149.508 117.626 150.03C117.104 150.553 116.395 150.846 115.656 150.846ZM21.4281 12.9376C20.7223 12.9389 20.0458 13.2201 19.5472 13.7197C19.0485 14.2192 18.7685 14.8962 18.7685 15.602V148.06C18.7685 148.766 19.0485 149.443 19.5472 149.942C20.0458 150.442 20.7223 150.723 21.4281 150.724H115.656C116.362 150.723 117.039 150.442 117.539 149.943C118.038 149.443 118.319 148.766 118.321 148.06V15.602C118.319 14.8958 118.038 14.2188 117.539 13.7194C117.039 13.22 116.362 12.9389 115.656 12.9376H21.4281Z" fill="#EBEBEB"/>
<path d="M221.215 150.846H126.983C126.244 150.845 125.536 150.551 125.014 150.029C124.491 149.507 124.197 148.799 124.196 148.06V15.602C124.204 14.8677 124.501 14.1659 125.022 13.6489C125.544 13.1318 126.248 12.8412 126.983 12.84H221.215C221.948 12.8425 222.651 13.1339 223.171 13.6509C223.691 14.1679 223.986 14.8689 223.992 15.602V148.06C223.992 148.797 223.7 149.505 223.179 150.027C222.659 150.549 221.953 150.844 221.215 150.846ZM126.983 12.9376C126.276 12.9389 125.599 13.22 125.1 13.7194C124.6 14.2188 124.319 14.8958 124.318 15.602V148.06C124.319 148.766 124.6 149.443 125.1 149.943C125.599 150.442 126.276 150.723 126.983 150.724H221.215C221.922 150.723 222.599 150.442 223.098 149.943C223.597 149.443 223.878 148.766 223.88 148.06V15.602C223.878 14.8958 223.597 14.2188 223.098 13.7194C222.599 13.22 221.922 12.9389 221.215 12.9376H126.983Z" fill="#EBEBEB"/>
<path d="M219.551 180.463H206.863V180.585H219.551V180.463Z" fill="#EBEBEB"/>
<path d="M173.743 181.79H151.768V181.912H173.743V181.79Z" fill="#EBEBEB"/>
<path d="M206.375 175.934H176.71V176.056H206.375V175.934Z" fill="#EBEBEB"/>
<path d="M34.9846 176.754H25.6003V176.876H34.9846V176.754Z" fill="#EBEBEB"/>
<path d="M66.3143 176.754H39.3328V176.876H66.3143V176.754Z" fill="#EBEBEB"/>
<path d="M119.14 178.814H82.7991V178.936H119.14V178.814Z" fill="#EBEBEB"/>
<path d="M60.8536 0.303223H46.1404V4.46098H60.8536V0.303223Z" fill="#F0F0F0"/>
<path d="M68.2127 4.46094H53.4995V8.61869H68.2127V4.46094Z" fill="#E6E6E6"/>
<path d="M86.337 32.5404H71.6238V36.6982H86.337V32.5404Z" fill="#F0F0F0"/>
<path d="M93.6912 36.7032H78.978V40.861H93.6912V36.7032Z" fill="#E6E6E6"/>
<path d="M39.6109 136.475H24.8977V140.632H39.6109V136.475Z" fill="#F5F5F5"/>
<path d="M45.3304 65.1438H30.6172V69.3016H45.3304V65.1438Z" fill="#F5F5F5"/>
<path d="M168.218 106.624H153.505V110.782H168.218V106.624Z" fill="#F5F5F5"/>
<path d="M17.5436 144.79H32.2568V140.632H17.5436V144.79Z" fill="#E6E6E6"/>
<path d="M120.755 2.38208H106.042V6.53984H120.755V2.38208Z" fill="#F0F0F0"/>
<path d="M200.036 161.163H214.749V157.005H200.036V161.163Z" fill="#F5F5F5"/>
<path d="M230.268 95.9414H215.554V100.099H230.268V95.9414Z" fill="#F5F5F5"/>
<path d="M93.1885 87.5381H78.4753V91.6958H93.1885V87.5381Z" fill="#F5F5F5"/>
<path d="M207.39 165.32H222.104V161.163H207.39V165.32Z" fill="#F0F0F0"/>
<path d="M174.621 4.45605L189.334 4.45605V0.298293L174.621 0.298293V4.45605Z" fill="#F0F0F0"/>
<path d="M195.713 36.7032H210.426V32.5455H195.713V36.7032Z" fill="#F0F0F0"/>
<path d="M140.417 83.5707H155.13V79.4129H140.417V83.5707Z" fill="#F0F0F0"/>
<path d="M81.7497 161.163H96.4629V157.005H81.7497V161.163Z" fill="#F0F0F0"/>
<path d="M122 194.649C174.256 194.649 216.618 192.176 216.618 189.125C216.618 186.074 174.256 183.601 122 183.601C69.7439 183.601 27.3818 186.074 27.3818 189.125C27.3818 192.176 69.7439 194.649 122 194.649Z" fill="#F5F5F5"/>
<path d="M95.3455 91.1395H93.3252V186.138H95.3455V91.1395Z" fill="#263238"/>
<path d="M106.404 186.139H82.2625L82.9554 184.348L94.3356 183.308L105.716 184.348L106.404 186.139Z" fill="#263238"/>
<path d="M102.27 63.104C101.942 63.1045 101.615 63.1389 101.294 63.2065C100.001 63.4424 98.6654 63.1809 97.5562 62.4745C96.5877 61.8934 95.4795 61.5864 94.3501 61.5864C93.2206 61.5864 92.1124 61.8934 91.1439 62.4745C90.0326 63.1803 88.6963 63.4417 87.4009 63.2065C87.08 63.1386 86.7529 63.1043 86.4249 63.104C85.1974 63.1219 84.0235 63.6102 83.1454 64.4683C82.2673 65.3264 81.7521 66.4887 81.706 67.7156C81.6887 68.6051 81.9221 69.4815 82.3796 70.2446C82.8372 71.0076 83.5003 71.6264 84.293 72.0302C85.0858 72.434 85.9763 72.6064 86.8625 72.5278C87.7487 72.4491 88.5949 72.1225 89.3041 71.5854C89.8849 72.3668 90.6403 73.0014 91.5101 73.4386C92.3799 73.8759 93.3399 74.1036 94.3135 74.1036C95.287 74.1036 96.247 73.8759 97.1168 73.4386C97.9866 73.0014 98.742 72.3668 99.3228 71.5854C100.032 72.1374 100.884 72.4763 101.778 72.5627C102.673 72.649 103.573 72.4791 104.375 72.0729C105.177 71.6667 105.846 71.0409 106.306 70.2685C106.765 69.4962 106.995 68.609 106.97 67.7107C106.923 66.488 106.41 65.3297 105.536 64.4732C104.662 63.6166 103.494 63.1268 102.27 63.104Z" fill="#263238"/>
<path d="M104.613 96.0293H84.0534C81.9634 87.0119 80.8041 77.804 80.5935 68.55C89.6291 66.4174 99.0372 66.4174 108.073 68.55C107.692 77.7905 106.535 86.9827 104.613 96.0293Z" fill="#FF8832"/>
<path d="M104.613 96.0293H84.0533C83.497 99.6161 70.6284 113.324 70.2234 137.563C79.3783 140.794 109.263 140.794 118.448 137.563C117.877 113.588 105.14 99.865 104.613 96.0293Z" fill="#FF8832"/>
<path d="M157.59 91.1395H155.57V186.138H157.59V91.1395Z" fill="#263238"/>
<path d="M168.653 186.139H144.507L145.2 184.348L156.58 183.308L167.96 184.348L168.653 186.139Z" fill="#263238"/>
<path d="M164.52 65.4562C164.192 65.4562 163.864 65.4905 163.544 65.5586C162.248 65.7938 160.912 65.5325 159.801 64.8266C158.832 64.2455 157.724 63.9386 156.594 63.9386C155.465 63.9386 154.357 64.2455 153.388 64.8266C152.277 65.5334 150.941 65.7948 149.645 65.5586C149.325 65.4904 148.997 65.4561 148.669 65.4562C147.442 65.4752 146.268 65.9637 145.389 66.8215C144.511 67.6792 143.994 68.8409 143.946 70.0678C143.92 70.9661 144.15 71.8532 144.61 72.6256C145.069 73.398 145.739 74.0238 146.54 74.43C147.342 74.8362 148.243 75.006 149.137 74.9197C150.032 74.8334 150.883 74.4945 151.592 73.9425C152.174 74.7238 152.93 75.3585 153.8 75.7957C154.67 76.2329 155.63 76.4606 156.604 76.4606C157.578 76.4606 158.538 76.2329 159.409 75.7957C160.279 75.3585 161.035 74.7238 161.616 73.9425C162.325 74.4945 163.177 74.8334 164.071 74.9197C164.966 75.006 165.866 74.8362 166.668 74.43C167.47 74.0238 168.139 73.398 168.599 72.6256C169.058 71.8532 169.289 70.9661 169.263 70.0678C169.214 68.8375 168.695 67.673 167.812 66.8148C166.929 65.9566 165.751 65.4702 164.52 65.4562Z" fill="#263238"/>
<path d="M173.777 165.477C164.617 169.937 148.543 169.937 139.383 165.477C139.798 132 145.727 95.4632 146.303 90.5051C144.839 84.2343 143.833 74.3718 143.287 67.8424H143.428C144.345 67.9266 145.232 68.2085 146.029 68.6684C146.826 69.1284 147.513 69.7556 148.045 70.5069C149.704 72.7956 152.925 74.3426 156.58 74.3426C160.235 74.3426 163.461 72.7907 165.12 70.5069C165.651 69.7539 166.339 69.1254 167.137 68.6653C167.935 68.2052 168.824 67.9244 169.741 67.8424H169.775C169.185 74.2791 168.175 84.1318 166.847 90.5002C167.384 95.7999 173.206 132.361 173.777 165.477Z" fill="#FF8832"/>
<path opacity="0.6" d="M173.777 165.477C164.617 169.937 148.543 169.937 139.383 165.477C139.798 132 145.727 95.4632 146.303 90.5051C144.839 84.2343 143.833 74.3718 143.287 67.8424H143.428C144.345 67.9266 145.232 68.2085 146.029 68.6684C146.826 69.1284 147.513 69.7556 148.045 70.5069C149.704 72.7956 152.925 74.3426 156.58 74.3426C160.235 74.3426 163.461 72.7907 165.12 70.5069C165.651 69.7539 166.339 69.1254 167.137 68.6653C167.935 68.2052 168.824 67.9244 169.741 67.8424H169.775C169.185 74.2791 168.175 84.1318 166.847 90.5002C167.384 95.7999 173.206 132.361 173.777 165.477Z" fill="white"/>
<path d="M167.433 95.2583C160.276 96.7467 152.889 96.7467 145.732 95.2583C145.511 95.2048 145.314 95.0804 145.171 94.904C145.028 94.7276 144.948 94.5092 144.941 94.2823V87.992C144.936 87.8936 144.955 87.7955 144.996 87.7059C145.037 87.6163 145.099 87.5377 145.176 87.4766C145.253 87.4155 145.344 87.3738 145.441 87.3548C145.537 87.3358 145.637 87.3401 145.732 87.3673C152.889 88.8509 160.275 88.8509 167.433 87.3673C167.527 87.341 167.627 87.3374 167.723 87.3569C167.819 87.3763 167.909 87.4182 167.985 87.4792C168.062 87.5401 168.123 87.6184 168.164 87.7075C168.204 87.7966 168.223 87.8941 168.219 87.992V94.2969C168.21 94.5208 168.129 94.7358 167.987 94.9093C167.845 95.0828 167.651 95.2054 167.433 95.2583Z" fill="#263238"/>
<g opacity="0.6">
<path opacity="0.2" d="M203.818 23.3369H40.4358V187.69H203.818V23.3369Z" fill="#FF8832"/>
<path opacity="0.3" d="M116.452 23.3369H91.1682L48.8635 187.583H74.1468L116.452 23.3369Z" fill="white"/>
<path opacity="0.3" d="M135.684 23.3369H123.04L80.7397 187.583H93.379L135.684 23.3369Z" fill="white"/>
<path opacity="0.3" d="M181.419 23.3369H168.78L126.475 187.583H139.114L181.419 23.3369Z" fill="white"/>
</g>
<path opacity="0.1" d="M147.547 92.7549L144.316 94.0481L142.496 97.1859C141.906 97.5694 141.24 97.8208 140.544 97.9228C140.309 97.9479 140.072 97.8947 139.871 97.7715C139.679 97.6411 139.513 97.4755 139.383 97.2835C139.188 96.9856 139.024 96.6683 138.895 96.3368C138.773 96.0391 138.636 95.5414 138.509 95.107C138.255 94.2091 138.021 93.2429 137.841 92.301C137.467 90.3762 137.211 88.4303 137.075 86.4743C137.035 85.9863 137.011 85.5422 136.987 85.0738C136.987 84.8786 137.021 84.6882 137.035 84.5028C137.567 84.2002 138.046 83.9172 138.412 83.6732C138.285 79.6277 138.412 77.3292 134.742 76.6265H134.664C134.6 76.6265 134.547 76.5923 134.483 76.5826C133.449 76.4166 132.17 76.2263 130.887 76.0946C130.821 75.8616 130.679 75.6573 130.483 75.5141C130.288 75.3709 130.05 75.297 129.808 75.304C129.58 75.3036 129.358 75.3716 129.169 75.4992C129.07 75.3293 128.927 75.1891 128.755 75.093C128.584 74.9969 128.39 74.9484 128.193 74.9526C128.07 74.9558 127.948 74.9772 127.832 75.0161C127.007 74.123 127.134 72.8298 127.456 71.6001C130.038 71.5318 132.307 69.7408 132.478 66.9836C132.5 66.5658 132.5 66.1472 132.478 65.7294C132.782 65.7013 133.065 65.5624 133.273 65.339C132.93 65.0605 132.62 64.7428 132.351 64.3923C132.292 64.0166 132.219 63.6359 132.131 63.2553C132.204 63.1817 132.257 63.0905 132.284 62.9904C132.312 62.8903 132.313 62.7849 132.287 62.6843C132.261 62.5227 132.178 62.3758 132.053 62.2695C132.229 62.1817 132.37 62.0373 132.453 61.8596L131.824 62.1524C131.639 61.5827 131.41 61.028 131.14 60.4932C131.266 60.4363 131.399 60.3985 131.536 60.381C131.563 60.3821 131.59 60.3774 131.615 60.3673C131.64 60.3571 131.663 60.3417 131.681 60.3221C131.7 60.3024 131.714 60.279 131.723 60.2534C131.732 60.2278 131.736 60.2006 131.733 60.1736C131.731 60.1466 131.723 60.1204 131.709 60.0968C131.696 60.0732 131.677 60.0528 131.656 60.0369C131.634 60.0209 131.609 60.0098 131.582 60.0044C131.555 59.9989 131.528 59.9992 131.502 60.0052C131.314 60.0279 131.131 60.0807 130.96 60.1614C130.882 60.0198 130.799 59.8783 130.711 59.7417C132.663 59.0097 134.415 57.7165 134.478 56.4574C133.942 57.3261 131.858 57.7067 128.998 55.7352C127.046 54.3932 124.382 55.1642 122.708 56.1549C122.517 56.1549 122.332 56.1793 122.147 56.2037C121.922 55.7131 121.589 55.2807 121.171 54.9398C120.956 53.1488 119.458 51.9288 117.555 51.4506C114.378 50.66 112.387 52.7779 111.396 54.6714C110.405 56.5648 112.313 59.4342 115.471 60.0638C115.991 60.1713 116.521 60.2188 117.052 60.2053L117.276 60.2736C117.084 61.6602 117.207 63.0724 117.636 64.4049C118.065 65.7374 118.79 66.9559 119.755 67.9694C120.839 69.0722 121.844 69.5651 122.742 69.6481C122.844 69.7457 122.952 69.8433 123.064 69.936C123.259 71.7709 123.245 73.84 122.542 75.1869C122.424 75.1453 122.301 75.1238 122.176 75.1234C121.918 75.1196 121.667 75.208 121.469 75.3726C121.27 75.5372 121.137 75.7672 121.093 76.0214C119.345 76.1385 117.759 76.3532 116.657 76.5094C112.923 76.8022 113.119 79.3446 112.396 83.3414C112.611 83.5366 112.884 83.7513 113.167 83.9855C112.842 84.6752 112.526 85.3714 112.221 86.0742C111.293 88.2304 110.541 90.4581 109.971 92.7354C109.673 93.9279 109.467 95.1418 109.356 96.3661C109.313 97.6391 109.456 98.9116 109.781 100.143C110.103 101.36 110.596 102.525 111.245 103.603C111.56 104.144 111.919 104.658 112.318 105.14C112.406 105.253 112.499 105.355 112.587 105.462C112.679 106.243 112.93 106.997 113.324 107.678L114.212 110.811H114.544C113.831 119.619 116.13 131.263 112.592 148.06L113.88 148.245C111.147 158.308 109.273 172.304 108.678 177.13L108.575 177.062C108.518 177.017 108.448 176.992 108.375 176.992C108.303 176.992 108.232 177.017 108.175 177.062L105.618 179.16C105.554 179.208 105.503 179.27 105.469 179.342C105.435 179.413 105.419 179.492 105.423 179.572C105.426 179.651 105.449 179.728 105.489 179.797C105.529 179.866 105.585 179.923 105.652 179.965C106.838 180.775 108.58 181.917 110.044 182.957C111.767 184.177 110.742 183.591 112.757 185.021C113.977 185.885 115.271 184.923 114.807 184.484C113.481 183.354 112.532 181.845 112.089 180.161C111.996 179.868 112.089 179.531 111.816 179.35L111.196 178.906C112.748 174.705 118.169 160.26 121.62 149.348L125.27 149.88C125.426 163.715 128.886 179.116 129.969 183.62H129.52C129.449 183.618 129.379 183.641 129.322 183.685C129.265 183.728 129.225 183.79 129.208 183.86L129.179 186.997C129.161 187.075 129.162 187.156 129.181 187.234C129.2 187.311 129.237 187.383 129.288 187.444C129.34 187.505 129.405 187.553 129.478 187.585C129.551 187.617 129.631 187.631 129.711 187.627C131.175 187.603 132.575 187.52 134.41 187.52C136.557 187.52 135.386 187.632 137.88 187.632C139.402 187.632 139.832 186.124 139.188 186.031C137.41 185.877 135.715 185.211 134.308 184.113C134.049 183.933 133.898 183.625 133.576 183.625H132.6C132.624 178.984 132.712 162.9 132.868 150.983L134.176 151.173C135.347 131.77 135.44 117.062 134.708 100.909C134.913 99.7382 135.1 98.6206 135.269 97.5568C135.313 97.6544 135.357 97.7422 135.41 97.8447C135.745 98.4401 136.155 98.9896 136.63 99.4795C137.205 100.075 137.928 100.508 138.724 100.734C139.544 100.952 140.41 100.929 141.218 100.665C141.871 100.452 142.479 100.121 143.013 99.6894C143.14 99.5869 143.257 99.4844 143.375 99.3819C144.309 99.0826 145.149 98.5463 145.815 97.8252L148.621 95.9854L147.547 92.7549ZM113.172 96.615C113.351 95.6164 113.587 94.6291 113.88 93.6577C114.187 92.6378 114.524 91.6227 114.919 90.6126C115.315 89.6024 115.715 88.602 116.159 87.6114C116.33 87.2454 116.5 86.8794 116.676 86.5134L117.237 86.8989C118.213 93.0086 117.994 96.3807 117.799 100.919C116.823 102.282 116.071 103.791 115.568 105.389L114.973 104.745C114.924 104.672 114.88 104.594 114.836 104.525C114.709 104.301 114.587 104.072 114.47 103.842C114.246 103.379 114.036 102.905 113.855 102.432C113.51 101.486 113.275 100.504 113.158 99.5039C113.042 98.5441 113.047 97.5735 113.172 96.615Z" fill="#FF8832"/>
<path d="M54.2268 35.8589V39.7043L189.783 39.7043V35.8589L54.2268 35.8589Z" fill="#FF8832"/>
<path d="M55.7932 23.3369H53.2117V187.583H55.7932V23.3369Z" fill="#FF8832"/>
<path d="M190.789 23.3369H188.207V187.583H190.789V23.3369Z" fill="#FF8832"/>
<path d="M40.1772 21.7117V23.6344L203.818 23.6344V21.7117L40.1772 21.7117Z" fill="#FF8832"/>
<path d="M117.208 118.175L101.128 112.914L96.2141 134.796L112.294 140.052L117.208 118.175Z" fill="white"/>
<path d="M100.206 112.617L101.128 112.914L96.2142 134.796L90.8755 133.049L100.206 112.617Z" fill="#263238"/>
<path d="M112.118 116.511L111.864 116.428C112.175 115.52 112.165 114.533 111.835 113.631C111.706 113.236 111.486 112.877 111.192 112.584C110.898 112.29 110.539 112.069 110.144 111.94C109.749 111.811 109.329 111.776 108.918 111.839C108.508 111.903 108.118 112.062 107.78 112.304C106.98 112.836 106.387 113.627 106.101 114.544L105.847 114.461C106.152 113.484 106.782 112.642 107.633 112.075C108.006 111.814 108.434 111.645 108.884 111.578C109.334 111.512 109.793 111.552 110.225 111.694C110.657 111.836 111.049 112.077 111.372 112.397C111.695 112.717 111.939 113.108 112.084 113.539C112.436 114.496 112.449 115.546 112.118 116.511Z" fill="#263238"/>
<path d="M113.065 83.8538C112.577 84.7517 112.05 85.7618 111.576 86.7378C111.103 87.7138 110.64 88.724 110.2 89.7293C109.761 90.7346 109.356 91.7545 109 92.7793C108.644 93.8041 108.292 94.8337 107.99 95.8732C107.709 96.8608 107.481 97.8626 107.306 98.8744C107.193 99.8471 107.193 100.83 107.306 101.802C107.423 102.81 107.651 103.802 107.985 104.76C108.16 105.248 108.361 105.736 108.58 106.194C108.692 106.429 108.81 106.682 108.936 106.887C109.063 107.092 109.2 107.351 109.302 107.517L107.809 108.913C107.337 108.478 106.904 108.003 106.516 107.492C106.128 107.002 105.782 106.48 105.481 105.931C104.199 103.699 103.565 101.154 103.651 98.5816C103.756 97.3389 103.954 96.1057 104.242 94.8923C104.792 92.5828 105.521 90.3198 106.423 88.1238C106.867 87.0355 107.326 85.9522 107.848 84.8981C108.37 83.844 108.888 82.8192 109.527 81.7407L113.065 83.8538Z" fill="#FF8B7B"/>
<path d="M108.883 106.946L111.576 110.006L107.472 110.094C107.472 110.094 106.179 107.849 107.058 106.424L108.883 106.946Z" fill="#FF8B7B"/>
<path d="M111.772 113.388L108.331 113.275L107.472 110.094L111.576 110.006L111.772 113.388Z" fill="#FF8B7B"/>
<path d="M110.698 78.4418C107.087 78.7395 107.282 81.321 106.574 85.3714C108.307 86.9916 112.953 90.2221 112.953 90.2221C112.953 90.2221 117.803 78.232 110.698 78.4418Z" fill="#263238"/>
<path d="M116.574 69.4967C117.062 71.8928 117.511 76.275 115.837 77.8757C117.194 80.0709 119.211 81.7795 121.6 82.7557C124.801 80.75 123.274 77.8757 123.274 77.8757C120.605 77.2364 120.673 75.2551 121.137 73.3958L116.574 69.4967Z" fill="#FF8B7B"/>
<path d="M125.05 64.5095C125.109 64.8316 125.323 65.0609 125.538 65.0219C125.753 64.9829 125.87 64.6949 125.811 64.3777C125.753 64.0605 125.543 63.8263 125.323 63.8653C125.104 63.9044 124.992 64.1923 125.05 64.5095Z" fill="#263238"/>
<path d="M125.236 63.8995L125.968 63.5383C125.968 63.5383 125.68 64.2118 125.236 63.8995Z" fill="#263238"/>
<path d="M125.255 65.2317C125.671 65.9115 126.178 66.5306 126.763 67.0715C126.62 67.217 126.446 67.3299 126.255 67.4023C126.064 67.4748 125.859 67.5051 125.655 67.4911L125.255 65.2317Z" fill="#FF5652"/>
<path d="M123.855 62.9477C123.832 62.9573 123.808 62.9622 123.784 62.9622C123.76 62.9622 123.735 62.9573 123.713 62.9477C123.691 62.936 123.671 62.9199 123.655 62.9005C123.639 62.8811 123.627 62.8587 123.62 62.8347C123.613 62.8106 123.61 62.7854 123.613 62.7604C123.616 62.7354 123.623 62.7112 123.635 62.6891C123.772 62.4181 123.972 62.184 124.218 62.0065C124.464 61.829 124.75 61.7133 125.05 61.6692C125.075 61.6672 125.1 61.6702 125.124 61.6779C125.148 61.6857 125.17 61.6981 125.189 61.7144C125.208 61.7307 125.224 61.7507 125.235 61.773C125.247 61.7954 125.253 61.8198 125.255 61.8449C125.258 61.8696 125.256 61.8947 125.248 61.9185C125.241 61.9423 125.229 61.9645 125.213 61.9836C125.197 62.0027 125.178 62.0184 125.156 62.0298C125.133 62.0412 125.109 62.048 125.084 62.0498C124.848 62.0894 124.623 62.1843 124.43 62.3267C124.237 62.4692 124.08 62.6552 123.972 62.8697C123.959 62.8903 123.942 62.9079 123.922 62.9213C123.901 62.9348 123.879 62.9438 123.855 62.9477Z" fill="#263238"/>
<path d="M114.046 65.1098C114.987 69.0138 115.3 70.6681 117.647 72.3322C121.17 74.8405 125.748 72.8202 125.987 68.7454C126.206 65.061 124.635 59.3172 120.507 58.4339C119.597 58.2349 118.652 58.2716 117.761 58.5405C116.87 58.8095 116.062 59.3018 115.415 59.9706C114.768 60.6395 114.302 61.4628 114.062 62.3622C113.823 63.2617 113.817 64.2075 114.046 65.1098Z" fill="#FF8B7B"/>
<path d="M128.164 103.247C128.164 103.247 126.778 133.62 126.514 145.918C126.241 158.708 126.119 188.583 126.119 188.583H123.884C123.884 188.583 117.74 163.754 119.262 145.918C116.954 132.219 115.397 103.247 115.397 103.247H128.164Z" fill="#FF8B7B"/>
<path d="M123.884 103.247C123.884 103.247 120.204 135.05 117.052 146.942C113.748 159.435 105.242 182.776 104.988 183.669L102.753 182.4C102.753 182.4 105.589 155.98 110.01 144.888C110.01 130.999 112.45 103.247 112.45 103.247H123.884Z" fill="#FF8B7B"/>
<path d="M121.136 67.1106C120.243 69.7262 117.515 73.8108 113.699 69.7458C110.8 66.6518 110.449 61.279 112.533 59.2977C114.617 57.3164 119.277 56.9748 121.048 59.6344C122.82 62.294 122.171 64.0801 121.136 67.1106Z" fill="#263238"/>
<path d="M115.075 59.1073C115.563 57.9556 119.858 55.3155 122.625 57.3163C125.392 59.3171 127.407 58.9365 127.929 58.0532C127.827 60.2931 122.639 62.6453 120.434 61.8498C118.228 61.0544 113.797 62.1621 115.075 59.1073Z" fill="#263238"/>
<path d="M115.895 60.1272C115.173 61.6546 113.646 62.7526 110.991 61.8303C108.775 61.0642 108.312 58.1557 109.439 57.004C110.566 55.8523 112.445 54.7543 114.461 56.028C115.881 56.9503 116.676 58.4875 115.895 60.1272Z" fill="#FF8832"/>
<path d="M115.066 57.5506C114.773 59.7807 112.86 63.1479 108.849 62.3086C105.794 61.6644 104.881 58.7267 105.125 56.5892C105.403 54.1004 108.497 52.1631 111.572 52.9683C113.748 53.5392 115.378 55.1594 115.066 57.5506Z" fill="#263238"/>
<path d="M119.985 66.3493C120.033 66.7322 120.157 67.1019 120.349 67.4369C120.54 67.7719 120.796 68.0656 121.102 68.3013C121.917 68.921 122.703 68.3013 122.791 67.3253C122.869 66.4518 122.537 65.0805 121.566 64.8414C121.355 64.7939 121.136 64.7993 120.927 64.8569C120.719 64.9146 120.528 65.0229 120.372 65.1721C120.215 65.3213 120.098 65.5068 120.03 65.7122C119.963 65.9175 119.947 66.1364 119.985 66.3493Z" fill="#FF8B7B"/>
<path d="M121.927 68.8867C121.79 68.9286 121.644 68.9274 121.508 68.8833C121.372 68.8392 121.252 68.7544 121.166 68.6403C121.08 68.5262 121.031 68.3883 121.025 68.2454C121.02 68.1024 121.059 67.9613 121.136 67.8411C121.214 67.7209 121.327 67.6275 121.459 67.5734C121.591 67.5193 121.737 67.5072 121.877 67.5388C122.016 67.5704 122.143 67.644 122.239 67.7498C122.335 67.8557 122.397 67.9885 122.415 68.1303C122.446 68.2949 122.413 68.4651 122.322 68.6059C122.231 68.7466 122.09 68.8471 121.927 68.8867Z" fill="white"/>
<path d="M117.12 78.0758C117.12 78.2862 117.058 78.4919 116.941 78.6669C116.824 78.8418 116.658 78.9782 116.463 79.0587C116.269 79.1392 116.055 79.1603 115.849 79.1192C115.642 79.0782 115.453 78.9769 115.304 78.8281C115.155 78.6793 115.054 78.4897 115.013 78.2834C114.972 78.077 114.993 77.8631 115.073 77.6687C115.154 77.4743 115.29 77.3082 115.465 77.1913C115.64 77.0744 115.846 77.012 116.056 77.012C116.196 77.0113 116.335 77.0384 116.464 77.0916C116.594 77.1449 116.711 77.2232 116.81 77.3221C116.909 77.421 116.987 77.5386 117.04 77.6679C117.094 77.7973 117.121 77.9359 117.12 78.0758Z" fill="white"/>
<path d="M118.326 77.744C118.326 77.9544 118.263 78.1601 118.146 78.335C118.03 78.51 117.863 78.6463 117.669 78.7269C117.475 78.8074 117.261 78.8284 117.054 78.7874C116.848 78.7463 116.658 78.645 116.51 78.4962C116.361 78.3475 116.259 78.1579 116.218 77.9515C116.177 77.7452 116.198 77.5313 116.279 77.3369C116.359 77.1425 116.496 76.9764 116.671 76.8595C116.846 76.7426 117.051 76.6802 117.262 76.6802C117.402 76.6802 117.54 76.7077 117.669 76.7612C117.798 76.8146 117.915 76.893 118.014 76.9918C118.113 77.0905 118.191 77.2078 118.245 77.3369C118.298 77.466 118.326 77.6043 118.326 77.744Z" fill="white"/>
<path d="M118.662 78.7103C119.25 78.7103 119.726 78.234 119.726 77.6465C119.726 77.0589 119.25 76.5826 118.662 76.5826C118.075 76.5826 117.598 77.0589 117.598 77.6465C117.598 78.234 118.075 78.7103 118.662 78.7103Z" fill="white"/>
<path d="M120.336 78.803C120.924 78.803 121.4 78.3267 121.4 77.7391C121.4 77.1516 120.924 76.6753 120.336 76.6753C119.749 76.6753 119.272 77.1516 119.272 77.7391C119.272 78.3267 119.749 78.803 120.336 78.803Z" fill="white"/>
<path d="M122.903 77.9148C122.903 78.1252 122.84 78.3309 122.724 78.5058C122.607 78.6808 122.44 78.8171 122.246 78.8977C122.052 78.9782 121.838 78.9993 121.631 78.9582C121.425 78.9172 121.236 78.8158 121.087 78.6671C120.938 78.5183 120.837 78.3287 120.796 78.1223C120.755 77.916 120.776 77.7021 120.856 77.5077C120.937 77.3133 121.073 77.1471 121.248 77.0302C121.423 76.9133 121.629 76.851 121.839 76.851C122.121 76.851 122.392 76.963 122.591 77.1625C122.791 77.3621 122.903 77.6327 122.903 77.9148Z" fill="white"/>
<path d="M123.386 79.3301C123.974 79.3301 124.45 78.8538 124.45 78.2662C124.45 77.6787 123.974 77.2024 123.386 77.2024C122.799 77.2024 122.322 77.6787 122.322 78.2662C122.322 78.8538 122.799 79.3301 123.386 79.3301Z" fill="white"/>
<path d="M130.564 81.6041C130.549 80.8566 130.274 80.1378 129.785 79.5713C129.297 79.0049 128.627 78.6262 127.89 78.5004C126.582 78.2808 124.874 78.0124 123.274 77.8758C120.798 77.695 118.312 77.695 115.837 77.8758C113.872 77.9802 111.916 78.2101 109.981 78.5639C109.874 78.5838 109.773 78.6255 109.683 78.6862C109.593 78.747 109.517 78.8256 109.459 78.9172C109.4 79.0087 109.362 79.1112 109.345 79.2184C109.328 79.3255 109.334 79.4349 109.361 79.5399C112.352 92.589 112.035 96.7321 111.762 103.266C105.013 113.134 111.635 126.827 106.735 151.144L127.627 154.316C128.759 134.606 128.847 119.668 128.144 103.266C130.218 90.6126 130.628 84.5321 130.564 81.6041Z" fill="#263238"/>
<path d="M130.223 82.624C130.223 83.5561 130.223 84.576 130.223 85.5813C130.223 86.5866 130.306 87.5772 130.379 88.5776C130.512 90.5618 130.76 92.5366 131.121 94.4922C131.306 95.4682 131.521 96.4442 131.765 97.3421C131.892 97.7862 132.019 98.2888 132.141 98.5914C132.269 98.9329 132.432 99.2601 132.629 99.5674C132.749 99.7663 132.906 99.9402 133.092 100.08C133.285 100.206 133.517 100.26 133.746 100.231C134.541 100.105 135.293 99.7865 135.937 99.3038L137.45 100.68C137.087 101.18 136.664 101.634 136.191 102.032C135.675 102.459 135.087 102.79 134.454 103.008C133.676 103.274 132.835 103.298 132.043 103.076C131.265 102.837 130.565 102.396 130.013 101.798C129.549 101.299 129.154 100.741 128.837 100.138C128.568 99.599 128.346 99.0373 128.173 98.4596C127.812 97.3909 127.534 96.3563 127.285 95.2925C126.811 93.1885 126.485 91.054 126.309 88.9046C126.202 87.8359 126.143 86.7671 126.109 85.6935C126.075 84.6199 126.065 83.5756 126.109 82.4337L130.223 82.624Z" fill="#FF8B7B"/>
<path d="M135.459 99.8259L137.445 96.2684L138.909 100.104C138.909 100.104 137.226 102.056 135.591 101.719L135.459 99.8259Z" fill="#FF8B7B"/>
<path d="M140.569 94.9558L141.608 98.2352L138.895 100.104L137.445 96.2685L140.569 94.9558Z" fill="#FF8B7B"/>
<path d="M127.051 187.261H123.147C123.076 187.261 123.007 187.285 122.952 187.329C122.897 187.374 122.859 187.436 122.844 187.505L122.815 190.692C122.797 190.769 122.797 190.849 122.815 190.926C122.833 191.004 122.868 191.076 122.918 191.137C122.968 191.199 123.031 191.248 123.103 191.282C123.175 191.315 123.253 191.332 123.332 191.331C124.743 191.307 126.104 191.224 127.881 191.224C129.954 191.224 128.803 191.336 131.238 191.336C132.702 191.336 133.126 189.808 132.502 189.716C130.764 189.554 129.115 188.874 127.768 187.764C127.51 187.583 127.368 187.261 127.051 187.261Z" fill="#263238"/>
<path d="M106.009 182.923L102.866 180.585C102.811 180.54 102.742 180.515 102.671 180.515C102.599 180.515 102.53 180.54 102.475 180.585L100.006 182.718C99.9459 182.769 99.898 182.833 99.8661 182.905C99.8342 182.977 99.819 183.056 99.8219 183.135C99.8247 183.214 99.8454 183.291 99.8824 183.361C99.9194 183.43 99.9717 183.491 100.035 183.538C101.182 184.362 102.871 185.514 104.296 186.573C105.96 187.812 104.969 187.217 106.921 188.671C108.097 189.55 109.361 188.574 108.902 188.125C107.606 186.957 106.689 185.427 106.272 183.733C106.179 183.45 106.257 183.108 106.009 182.923Z" fill="#263238"/>
<path d="M128.139 78.5541C131.692 79.2861 131.555 81.6041 131.692 85.7131C129.74 87.0746 124.699 89.6171 124.699 89.6171C124.699 89.6171 121.112 77.5 128.139 78.5541Z" fill="#263238"/>
</svg>
