<svg width="234" height="234" viewBox="0 0 234 234" fill="none" xmlns="http://www.w3.org/2000/svg">
<path d="M234 178.072H0V178.199H234V178.072Z" fill="#EBEBEB"/>
<path d="M203.014 183.534H187.514V183.661H203.014V183.534Z" fill="#EBEBEB"/>
<path d="M146.517 183.472H142.45V183.6H146.517V183.472Z" fill="#EBEBEB"/>
<path d="M210.553 186.331H201.572V186.459H210.553V186.331Z" fill="#EBEBEB"/>
<path d="M53.6328 188.036H33.4199V188.163H53.6328V188.036Z" fill="#EBEBEB"/>
<path d="M51.8965 182.43H48.9341V182.558H51.8965V182.43Z" fill="#EBEBEB"/>
<path d="M116.275 182.979H87.7734V183.107H116.275V182.979Z" fill="#EBEBEB"/>
<path d="M34.983 162.825C34.7475 161.974 34.6184 161.091 34.5993 160.202C34.5993 156.721 37.1452 156.008 40.9688 156.008C44.7923 156.008 47.3382 156.721 47.3382 160.202C47.3269 160.951 47.2326 161.695 47.0574 162.419C45.3104 160.951 43.1545 160.189 40.9544 160.263C38.7542 160.337 36.6449 161.242 34.983 162.825ZM48.8312 164.339C49.2174 163 49.4239 161.606 49.4442 160.202C49.4442 152.712 43.524 152.712 40.9688 152.712C38.4135 152.712 32.4933 152.712 32.4933 160.212C32.5219 161.82 32.7858 163.413 33.2748 164.93C32.056 166.923 31.4941 169.314 31.6822 171.705C31.8702 174.097 32.797 176.347 34.3091 178.082H48.204C49.7962 176.259 50.7372 173.868 50.8549 171.347C50.9726 168.825 50.2593 166.342 48.8452 164.35L48.8312 164.339Z" fill="#E6E6E6"/>
<path d="M60.4236 164.006C60.2072 163.221 60.0892 162.408 60.0726 161.588C60.0726 158.385 62.4126 157.727 65.9459 157.727C69.4793 157.727 71.8147 158.385 71.8147 161.588C71.8067 162.282 71.7187 162.972 71.5526 163.641C69.9409 162.291 67.9544 161.591 65.9274 161.659C63.9004 161.728 61.9567 162.56 60.4236 164.016V164.006ZM73.1906 165.407C73.5469 164.171 73.7376 162.884 73.7569 161.588C73.7569 154.678 68.2813 154.678 65.9459 154.678C63.6106 154.678 58.1304 154.678 58.1304 161.588C58.1577 163.072 58.4011 164.541 58.8511 165.941C57.7273 167.777 57.2077 169.978 57.3778 172.182C57.548 174.385 58.3978 176.459 59.7871 178.061H72.5822C74.0485 176.381 74.9149 174.178 75.0232 171.855C75.1315 169.531 74.4743 167.243 73.1719 165.407H73.1906Z" fill="#E6E6E6"/>
<path d="M85.8686 165.207C85.6681 164.491 85.5595 163.748 85.5457 163C85.5457 160.063 87.6938 159.463 90.9183 159.463C94.1428 159.463 96.2909 160.063 96.2909 163C96.2809 163.631 96.2008 164.258 96.0523 164.868C94.5786 163.63 92.7607 162.988 90.9055 163.05C89.0502 163.112 87.2712 163.874 85.8686 165.207ZM97.5686 166.49C97.8953 165.361 98.0703 164.185 98.0881 163C98.0881 156.675 93.0758 156.675 90.937 156.675C88.7983 156.675 83.7719 156.675 83.7719 162.979C83.7988 164.335 84.0216 165.678 84.4318 166.958C83.4054 168.64 82.9323 170.655 83.0906 172.672C83.2488 174.689 84.0289 176.586 85.3023 178.051H97.0023C98.3432 176.512 99.1352 174.496 99.234 172.37C99.3328 170.244 98.7317 168.15 97.5405 166.47L97.5686 166.49Z" fill="#E6E6E6"/>
<path d="M111.309 166.403C111.131 165.751 111.033 165.076 111.019 164.396C111.019 161.732 112.966 161.187 115.891 161.187C118.816 161.187 120.767 161.732 120.767 164.396C120.758 164.97 120.686 165.54 120.552 166.095C119.214 164.972 117.565 164.389 115.881 164.445C114.197 164.501 112.582 165.193 111.309 166.403ZM121.909 167.563C122.205 166.538 122.363 165.471 122.377 164.396C122.377 158.657 117.833 158.657 115.891 158.657C113.949 158.657 109.404 158.657 109.404 164.396C109.43 165.621 109.632 166.834 110.003 167.989C109.071 169.515 108.642 171.343 108.785 173.173C108.929 175.002 109.638 176.723 110.794 178.051H121.418C122.635 176.655 123.354 174.826 123.444 172.897C123.534 170.968 122.99 169.068 121.909 167.543V167.563Z" fill="#E6E6E6"/>
<path d="M135.617 167.599C135.455 167.016 135.366 166.412 135.355 165.802C135.355 163.41 137.105 162.923 139.731 162.923C142.356 162.923 144.107 163.41 144.107 165.802C144.101 166.323 144.035 166.84 143.91 167.343C142.709 166.337 141.229 165.816 139.719 165.867C138.209 165.917 136.76 166.536 135.617 167.62V167.599ZM145.131 168.626C145.397 167.705 145.539 166.747 145.553 165.782C145.553 160.648 141.472 160.648 139.731 160.648C137.99 160.648 133.909 160.648 133.909 165.782C133.929 166.886 134.111 167.98 134.447 169.021C133.611 170.391 133.225 172.032 133.353 173.675C133.482 175.317 134.117 176.863 135.154 178.056H144.692C145.783 176.803 146.427 175.161 146.508 173.431C146.589 171.7 146.1 169.995 145.131 168.626Z" fill="#E6E6E6"/>
<path d="M116 22H12V116H116V22Z" fill="#F5F5F5"/>
<path d="M116.167 76.7357H39.312V115.863H116.167V76.7357Z" fill="#FAFAFA"/>
<path d="M11.9106 115.869H12.285L12.285 33.2754H11.9106L11.9106 115.869Z" fill="#E6E6E6"/>
<path d="M66 22H45.2007L24 116H44.7993L66 22Z" fill="white"/>
<path d="M76 22H68.8702L48 116H55.1298L76 22Z" fill="white"/>
<path d="M222 22H118V116H222V22Z" fill="#F5F5F5"/>
<path d="M199.419 60.5344H151.665V99.6621H199.419V60.5344Z" fill="#FAFAFA"/>
<path d="M210.24 99.6672H222.094V60.5395H210.24V99.6672Z" fill="#FAFAFA"/>
<path d="M117.833 115.869H118.208L118.208 33.2754H117.833L117.833 115.869Z" fill="#E6E6E6"/>
<path d="M161 22H149.937L129 116H140.063L161 22Z" fill="white"/>
<path d="M175 22H163.935L143 116H154.065L175 22Z" fill="white"/>
<path d="M222.197 127.388H15.299V131.839H222.197V127.388Z" fill="#EBEBEB"/>
<path d="M19.3565 127.388H15.299V131.839H19.3565V127.388Z" fill="#E0E0E0"/>
<path d="M165.597 139.591H166.065C175.57 139.858 184.032 148.369 185.075 158.831C186.119 169.293 179.347 177.805 169.884 178.066H169.416C159.733 178.066 151.014 169.452 149.957 158.831C148.899 148.21 155.914 139.591 165.597 139.591ZM168.031 162.029C168.401 162.038 168.769 161.959 169.109 161.797C169.449 161.635 169.753 161.393 169.999 161.09C170.246 160.786 170.429 160.427 170.537 160.038C170.645 159.649 170.674 159.239 170.623 158.836C170.523 157.968 170.142 157.167 169.549 156.581C168.957 155.994 168.192 155.659 167.394 155.638C167.023 155.629 166.654 155.709 166.314 155.871C165.974 156.034 165.669 156.275 165.422 156.579C165.175 156.883 164.991 157.243 164.883 157.632C164.776 158.022 164.746 158.433 164.797 158.836C164.898 159.701 165.278 160.498 165.867 161.084C166.456 161.669 167.217 162.005 168.012 162.029H168.031Z" fill="#E0E0E0"/>
<path d="M165.976 139.596H166.444C176.132 139.596 184.841 148.215 185.904 158.841C186.966 169.468 179.974 178.077 170.291 178.077H169.823C160.318 177.815 151.857 169.304 150.808 158.847C149.76 148.39 156.523 139.878 165.976 139.596ZM168.672 162.029C169.042 162.038 169.41 161.959 169.75 161.797C170.09 161.635 170.394 161.393 170.641 161.09C170.887 160.786 171.071 160.427 171.178 160.038C171.286 159.649 171.316 159.239 171.265 158.836C171.163 157.963 170.779 157.16 170.182 156.572C169.584 155.985 168.814 155.653 168.012 155.638C167.641 155.63 167.273 155.71 166.933 155.873C166.593 156.035 166.29 156.277 166.043 156.581C165.797 156.885 165.613 157.244 165.506 157.634C165.398 158.023 165.368 158.433 165.419 158.836C165.521 159.708 165.906 160.511 166.504 161.097C167.101 161.683 167.87 162.014 168.672 162.029Z" fill="#F0F0F0"/>
<path d="M156.977 148.266C158.174 146.913 159.612 145.843 161.2 145.121C162.789 144.4 164.496 144.043 166.215 144.072C174.012 144.072 181.027 151.002 181.884 159.555C182.098 161.422 181.968 163.317 181.501 165.128C181.034 166.938 180.239 168.627 179.164 170.094C180.433 168.598 181.387 166.814 181.958 164.868C182.529 162.923 182.703 160.864 182.469 158.836C181.612 150.279 174.601 143.348 166.805 143.348C164.936 143.313 163.083 143.736 161.383 144.587C159.682 145.438 158.177 146.695 156.977 148.266Z" fill="#E6E6E6"/>
<path d="M192.011 145.376H192.395C200.473 145.602 207.661 152.835 208.55 161.721C209.439 170.607 203.692 177.841 195.662 178.061H195.278C187.05 178.061 179.647 170.741 178.743 161.716C177.84 152.691 183.784 145.376 192.011 145.376ZM194.08 164.442C194.395 164.449 194.707 164.381 194.996 164.243C195.285 164.104 195.542 163.899 195.752 163.641C195.961 163.383 196.117 163.078 196.209 162.748C196.301 162.417 196.327 162.069 196.284 161.726C196.197 160.989 195.872 160.309 195.368 159.811C194.865 159.313 194.215 159.029 193.537 159.011C193.222 159.003 192.909 159.07 192.62 159.208C192.331 159.346 192.072 159.552 191.863 159.81C191.653 160.068 191.497 160.373 191.405 160.704C191.314 161.035 191.289 161.384 191.333 161.726C191.413 162.467 191.736 163.151 192.241 163.65C192.746 164.15 193.4 164.431 194.08 164.442Z" fill="#E0E0E0"/>
<path d="M192.348 145.381H192.732C200.964 145.381 208.363 152.702 209.266 161.732C210.169 170.761 204.23 178.077 195.998 178.077H195.624C187.546 177.856 180.358 170.623 179.469 161.737C178.579 152.851 184.303 145.607 192.348 145.381ZM194.636 164.442C194.952 164.45 195.265 164.382 195.554 164.244C195.843 164.106 196.101 163.901 196.311 163.643C196.52 163.385 196.676 163.08 196.768 162.749C196.859 162.418 196.884 162.069 196.841 161.726C196.755 160.988 196.43 160.308 195.926 159.81C195.422 159.312 194.772 159.028 194.094 159.011C193.778 159.003 193.465 159.071 193.176 159.209C192.887 159.346 192.629 159.552 192.419 159.81C192.21 160.068 192.054 160.373 191.962 160.704C191.871 161.035 191.846 161.384 191.889 161.726C191.975 162.462 192.297 163.14 192.799 163.638C193.3 164.136 193.947 164.421 194.622 164.442H194.636Z" fill="#F5F5F5"/>
<path d="M184.687 152.743C185.705 151.594 186.926 150.686 188.276 150.075C189.626 149.463 191.075 149.16 192.535 149.185C199.162 149.185 205.12 155.073 205.85 162.337C206.031 163.924 205.92 165.535 205.523 167.074C205.125 168.612 204.451 170.048 203.538 171.295C204.617 170.024 205.428 168.507 205.913 166.854C206.398 165.2 206.546 163.45 206.346 161.726C205.616 154.457 199.663 148.569 193.036 148.569C191.449 148.54 189.876 148.899 188.431 149.621C186.987 150.343 185.708 151.409 184.687 152.743Z" fill="#E6E6E6"/>
<path d="M117 200.098C167.115 200.098 207.741 197.726 207.741 194.8C207.741 191.874 167.115 189.503 117 189.503C66.8854 189.503 26.2595 191.874 26.2595 194.8C26.2595 197.726 66.8854 200.098 117 200.098Z" fill="#F5F5F5"/>
<path d="M109.98 93.4503C109.228 92.9688 108.316 92.8053 107.444 92.9957C106.572 93.1861 105.811 93.7149 105.328 94.4658L105.225 94.6296L105.029 94.9385L104.795 95.2848C104.64 95.5235 104.481 95.7528 104.327 95.9962C103.999 96.4642 103.667 96.9322 103.32 97.4002C102.65 98.3053 101.93 99.1725 101.163 99.9976C100.452 100.772 99.6688 101.476 98.8229 102.099C98.6217 102.249 98.4204 102.384 98.2192 102.515C98.0601 102.216 97.901 101.856 97.7512 101.476C97.3439 100.393 97.0063 99.2848 96.7403 98.1584C96.1694 95.8184 95.7294 93.3192 95.3129 90.8809V90.8248C95.2478 90.4205 95.0374 90.054 94.7211 89.794C94.4048 89.534 94.0044 89.3984 93.5952 89.4128C93.186 89.4271 92.7961 89.5905 92.4989 89.872C92.2016 90.1536 92.0173 90.534 91.9808 90.9418C91.7107 93.595 91.6794 96.2671 91.8872 98.9259C91.9867 100.329 92.1995 101.722 92.5236 103.091C92.7085 103.87 92.9671 104.63 93.2958 105.361C93.4968 105.804 93.7364 106.228 94.0119 106.629C94.3749 107.161 94.8278 107.625 95.3504 108C96.0621 108.516 96.9067 108.816 97.784 108.866C98.2139 108.892 98.6453 108.859 99.0663 108.768C99.2553 108.729 99.4414 108.678 99.6232 108.613L99.8759 108.525L100.021 108.473C100.782 108.188 101.518 107.839 102.221 107.429C103.521 106.659 104.732 105.746 105.829 104.706C106.87 103.724 107.834 102.663 108.712 101.533C109.142 100.976 109.559 100.409 109.952 99.8291C110.149 99.5343 110.34 99.2394 110.528 98.9352L110.804 98.4672L111.099 97.9524C111.523 97.2013 111.644 96.316 111.436 95.4787C111.228 94.6413 110.707 93.9154 109.98 93.4503Z" fill="#CE7A63"/>
<path d="M94.9057 91.611L97.5172 88.8826L92.3692 87.5535C92.3692 87.5535 90.1836 90.0245 92.21 92.1914L94.9057 91.611Z" fill="#CE7A63"/>
<path d="M95.3082 94.2879L91.9573 94.5032C91.8373 94.5137 91.7164 94.4989 91.6025 94.4597C91.4886 94.4206 91.3841 94.358 91.2959 94.2759C91.2077 94.1939 91.1377 94.0942 91.0904 93.9834C91.0431 93.8727 91.0196 93.7532 91.0213 93.6327V92.1117C91.0238 91.8632 91.1186 91.6246 91.2873 91.4421C91.4559 91.2596 91.6864 91.1463 91.9339 91.1242L95.2895 90.909C95.4078 90.9012 95.5264 90.918 95.6379 90.9584C95.7493 90.9989 95.8511 91.062 95.9369 91.1438C96.0227 91.2256 96.0906 91.3244 96.1362 91.4338C96.1819 91.5432 96.2043 91.6609 96.2021 91.7794V93.3004C96.2011 93.5463 96.1093 93.7831 95.9443 93.9654C95.7793 94.1477 95.5528 94.2625 95.3082 94.2879Z" fill="#263238"/>
<path d="M97.0117 86.0933L92.3691 86.3179V87.5534L97.5171 88.8825L97.0117 86.0933Z" fill="#CE7A63"/>
<path d="M105.164 94.667C105.005 99.0475 106.1 109.147 113.977 129.556L138.612 127.764C138.023 124.38 132.846 109.788 132.06 93.6796C131.957 91.6531 130.034 89.9356 127.811 89.8186C126.407 89.7577 124.797 89.725 123.234 89.7811C119.62 89.8671 116.014 90.1514 112.432 90.6329C110.794 90.9155 109.172 91.2889 107.574 91.7514C106.911 91.9101 106.317 92.2804 105.882 92.8063C105.447 93.3323 105.195 93.9854 105.164 94.667Z" fill="#FD7F37"/>
<path opacity="0.3" d="M118.872 102.913C118.817 102.914 118.763 102.894 118.72 102.858C118.678 102.822 118.651 102.772 118.643 102.717C118.632 102.656 118.645 102.593 118.68 102.542C118.715 102.491 118.769 102.457 118.83 102.445L123.042 101.696C123.104 101.685 123.168 101.699 123.22 101.735C123.272 101.771 123.307 101.826 123.318 101.888C123.329 101.95 123.315 102.014 123.279 102.066C123.243 102.118 123.188 102.153 123.126 102.164L118.914 102.913H118.872Z" fill="white"/>
<path opacity="0.3" d="M118.947 103.896C118.885 103.901 118.823 103.881 118.776 103.841C118.728 103.8 118.699 103.743 118.694 103.681C118.689 103.619 118.709 103.557 118.749 103.51C118.79 103.462 118.847 103.433 118.909 103.428L123.121 102.679C123.152 102.674 123.182 102.675 123.212 102.681C123.242 102.688 123.27 102.701 123.295 102.719C123.32 102.737 123.341 102.759 123.357 102.786C123.373 102.812 123.384 102.841 123.388 102.871C123.399 102.932 123.386 102.994 123.35 103.045C123.315 103.096 123.262 103.131 123.201 103.142L118.989 103.891L118.947 103.896Z" fill="white"/>
<path opacity="0.3" d="M119.012 104.916C118.957 104.917 118.903 104.897 118.861 104.861C118.819 104.825 118.791 104.775 118.783 104.72C118.772 104.659 118.786 104.596 118.821 104.545C118.856 104.495 118.909 104.46 118.97 104.448L123.182 103.704C123.243 103.693 123.306 103.707 123.357 103.742C123.407 103.777 123.442 103.831 123.454 103.891C123.463 103.953 123.449 104.015 123.413 104.066C123.377 104.117 123.323 104.151 123.262 104.163L119.05 104.912L119.012 104.916Z" fill="white"/>
<path opacity="0.3" d="M135.889 128.152C135.834 128.153 135.78 128.134 135.738 128.099C135.696 128.064 135.668 128.015 135.659 127.961C135.523 127.174 135.135 125.78 134.597 123.852C132.889 117.674 129.697 106.185 129.084 93.8434C129.081 93.7813 129.102 93.7206 129.144 93.6745C129.186 93.6284 129.244 93.6008 129.306 93.5977C129.368 93.5946 129.429 93.6163 129.475 93.658C129.521 93.6997 129.549 93.7579 129.552 93.82C130.165 106.11 133.343 117.566 135.051 123.725C135.589 125.667 135.987 127.071 136.118 127.881C136.129 127.942 136.115 128.004 136.08 128.055C136.045 128.106 135.991 128.141 135.931 128.152H135.889Z" fill="white"/>
<path opacity="0.4" d="M132.327 97.5733C130.02 96.525 127.811 95.8745 128.115 97.5733C128.885 101.412 130.851 104.908 133.731 107.56C133.137 104.406 132.645 101.046 132.327 97.5733Z" fill="black"/>
<path d="M146.086 91.728L148.085 88.4988L142.562 87.4504C142.562 87.4504 140.938 90.3567 143.498 92.5984L146.086 91.728Z" fill="#CE7A63"/>
<path d="M147.5 85.9014L142.791 85.9809L142.562 87.427L148.085 88.4754L147.5 85.9014Z" fill="#CE7A63"/>
<path d="M69.1376 103.629C65.3936 103.629 62.3563 96.8199 62.3563 88.4193C62.3563 80.0187 65.3936 73.214 69.1376 73.214H71.6789V103.634L69.1376 103.629Z" fill="#FD7F37"/>
<path d="M71.6789 103.625C75.4241 103.625 78.4602 96.817 78.4602 88.4193C78.4602 80.0216 75.4241 73.214 71.6789 73.214C67.9337 73.214 64.8976 80.0216 64.8976 88.4193C64.8976 96.817 67.9337 103.625 71.6789 103.625Z" fill="#FD7F37"/>
<path opacity="0.2" d="M71.6789 103.625C75.4241 103.625 78.4602 96.817 78.4602 88.4193C78.4602 80.0216 75.4241 73.214 71.6789 73.214C67.9337 73.214 64.8976 80.0216 64.8976 88.4193C64.8976 96.817 67.9337 103.625 71.6789 103.625Z" fill="black"/>
<path d="M73.1109 103.629C69.3669 103.629 66.3296 96.8199 66.3296 88.4193C66.3296 80.0187 69.3669 73.214 73.1109 73.214H75.6522V103.634L73.1109 103.629Z" fill="#FD7F37"/>
<path d="M75.6522 103.625C79.3974 103.625 82.4335 96.817 82.4335 88.4193C82.4335 80.0216 79.3974 73.214 75.6522 73.214C71.9069 73.214 68.8708 80.0216 68.8708 88.4193C68.8708 96.817 71.9069 103.625 75.6522 103.625Z" fill="#FD7F37"/>
<path opacity="0.2" d="M75.6522 103.625C79.3974 103.625 82.4335 96.817 82.4335 88.4193C82.4335 80.0216 79.3974 73.214 75.6522 73.214C71.9069 73.214 68.8708 80.0216 68.8708 88.4193C68.8708 96.817 71.9069 103.625 75.6522 103.625Z" fill="black"/>
<path opacity="0.2" d="M76.2325 88.8826L82.1621 92.664C82.3315 91.3682 82.4206 90.0631 82.4289 88.7562L76.2325 88.8826Z" fill="black"/>
<path d="M164.235 89.2523H76.6164C76.3954 89.2523 76.1835 89.1645 76.0273 89.0083C75.8711 88.852 75.7833 88.6402 75.7833 88.4192C75.7833 88.1983 75.8711 87.9864 76.0273 87.8302C76.1835 87.674 76.3954 87.5862 76.6164 87.5862H164.235C164.456 87.5874 164.667 87.6756 164.823 87.8315C164.979 87.9875 165.067 88.1987 165.068 88.4192C165.067 88.6398 164.979 88.8509 164.823 89.0069C164.667 89.1629 164.456 89.251 164.235 89.2523Z" fill="#263238"/>
<path opacity="0.9" d="M123.215 89.7811C119.602 89.8671 115.996 90.1514 112.414 90.6329C112.002 90.6984 111.59 90.778 111.192 90.8575C110.139 93.1601 111.37 96.5812 114.683 100.442L115.657 101.575L116.251 100.203C118.371 95.341 120.931 92.0229 123.65 90.6095L125.316 89.7577C124.619 89.7484 123.912 89.7577 123.215 89.7811Z" fill="white"/>
<path d="M119.625 78.5773C119.663 81.8533 120.304 87.8203 123.215 89.7812C120.178 91.3537 117.468 95.0041 115.39 99.8292C112.287 96.2162 110.799 92.6313 112.414 90.633C116.097 89.4676 115.404 86.8094 114.169 84.3571L119.625 78.5773Z" fill="#CE7A63"/>
<path opacity="0.2" d="M117.402 80.9359L114.169 84.3523C114.463 84.913 114.708 85.4987 114.899 86.1026C116.335 85.7891 118.034 84.123 117.87 82.6722C117.823 82.0694 117.665 81.4807 117.402 80.9359Z" fill="black"/>
<path d="M108.67 69.4278C107.411 70.1205 106.358 75.1281 109.311 77.0609C112.264 78.9938 111.478 67.8928 108.67 69.4278Z" fill="#263238"/>
<path d="M120.875 73.4011C120.618 77.9781 120.702 80.6691 118.404 83.0653C114.945 86.6736 109.292 84.708 108.173 80.1684C107.172 76.0827 107.762 69.2827 112.226 67.3592C113.196 66.9248 114.262 66.7491 115.32 66.8491C116.377 66.9492 117.391 67.3216 118.262 67.9301C119.133 68.5386 119.832 69.3624 120.29 70.3212C120.748 71.28 120.949 72.3411 120.875 73.4011Z" fill="#CE7A63"/>
<path d="M109.311 70.3357C105.169 68.6743 101.823 63.6527 104.032 60.943C106.952 57.33 110.205 63.3345 119.611 65.4826C127.221 67.2142 124.408 73.8411 121.881 76.4993C120.262 76.9299 118.75 77.2762 118.75 77.2762C118.75 77.2762 117.08 73.3169 118.722 70.8552C116.949 71.4168 112.147 71.473 109.311 70.3357Z" fill="#263238"/>
<path d="M103.334 66.587C103.334 66.587 106.339 70.4059 118.722 70.8552C113.256 72.3902 106.236 71.473 103.334 66.587Z" fill="#263238"/>
<path d="M112.685 80.2666C112.659 80.2631 112.634 80.2495 112.618 80.2285C112.601 80.2075 112.593 80.1809 112.596 80.1543C112.598 80.1254 112.612 80.0985 112.634 80.0793C112.656 80.0601 112.684 80.0501 112.713 80.0514C113.178 80.0841 113.643 80.0086 114.074 79.8307C114.504 79.6529 114.888 79.3776 115.193 79.0265C115.202 79.0151 115.213 79.0055 115.225 78.9983C115.237 78.9911 115.251 78.9864 115.265 78.9844C115.279 78.9825 115.294 78.9833 115.307 78.9869C115.321 78.9905 115.334 78.9968 115.346 79.0054C115.357 79.014 115.367 79.0248 115.374 79.0371C115.381 79.0494 115.386 79.063 115.388 79.0771C115.39 79.0912 115.389 79.1056 115.385 79.1194C115.382 79.1332 115.375 79.1461 115.367 79.1575C115.04 79.54 114.628 79.8403 114.164 80.0338C113.699 80.2273 113.196 80.3087 112.694 80.2713L112.685 80.2666Z" fill="#263238"/>
<path d="M122.967 78.3947C122.358 79.3833 121.388 80.0953 120.262 80.379C118.774 80.7394 118.975 79.6303 119.452 78.259C119.883 77.0188 120.309 75.1141 121.792 75.3621C123.276 75.6101 123.702 77.1779 122.967 78.3947Z" fill="#CE7A63"/>
<path d="M113.944 74.8332C113.944 75.2076 113.752 75.5118 113.509 75.5165C113.265 75.5212 113.064 75.2264 113.064 74.852C113.064 74.4776 113.256 74.178 113.499 74.1687C113.743 74.1593 113.944 74.4635 113.944 74.8332Z" fill="#263238"/>
<path d="M109.62 74.9269C109.62 75.3013 109.428 75.6055 109.184 75.6148C108.941 75.6242 108.716 75.32 108.716 74.9503C108.716 74.5805 108.908 74.2717 109.152 74.2623C109.395 74.2529 109.62 74.5571 109.62 74.9269Z" fill="#263238"/>
<path d="M111.075 75.0859C111.075 75.0859 110.237 77.2481 109.311 78.3058C109.975 78.9095 111.094 78.6006 111.094 78.6006L111.075 75.0859Z" fill="#BA4D3C"/>
<path d="M115.811 72.8957C115.782 72.8978 115.753 72.8939 115.726 72.8843C115.698 72.8746 115.673 72.8594 115.652 72.8396C115.463 72.6425 115.228 72.4941 114.969 72.4069C114.71 72.3197 114.434 72.2964 114.164 72.3388C114.136 72.3457 114.107 72.3469 114.079 72.3423C114.051 72.3377 114.024 72.3274 114 72.3121C113.976 72.2968 113.955 72.2767 113.939 72.2532C113.923 72.2296 113.912 72.203 113.906 72.175C113.895 72.118 113.906 72.0589 113.938 72.01C113.969 71.9611 114.018 71.9263 114.075 71.9129C114.413 71.8566 114.759 71.8825 115.085 71.9884C115.411 72.0943 115.707 72.2771 115.947 72.5213C115.988 72.5625 116.01 72.618 116.01 72.6758C116.01 72.7336 115.988 72.789 115.947 72.8302C115.911 72.868 115.863 72.8914 115.811 72.8957Z" fill="#263238"/>
<path d="M109.512 72.774C109.516 72.7972 109.516 72.821 109.512 72.8442C109.513 72.8731 109.509 72.9019 109.498 72.9288C109.488 72.9558 109.472 72.9803 109.452 73.001C109.432 73.0216 109.408 73.0378 109.381 73.0487C109.354 73.0596 109.326 73.0649 109.297 73.0642C108.947 73.0761 108.6 73.0056 108.283 72.8585C107.966 72.7113 107.688 72.4916 107.472 72.2171C107.455 72.194 107.443 72.1677 107.437 72.1399C107.431 72.1121 107.43 72.0833 107.435 72.0553C107.441 72.0273 107.452 72.0007 107.467 71.977C107.483 71.9533 107.504 71.9331 107.528 71.9176C107.576 71.885 107.634 71.8727 107.691 71.8832C107.748 71.8937 107.799 71.9262 107.832 71.9738C108.007 72.1883 108.23 72.3591 108.482 72.4728C108.735 72.5865 109.011 72.64 109.287 72.629C109.335 72.6266 109.383 72.6393 109.423 72.6654C109.463 72.6914 109.494 72.7294 109.512 72.774Z" fill="#263238"/>
<path d="M146.812 95.6405C146.646 94.2814 146.388 92.9352 146.039 91.611C145.935 91.2244 145.696 90.8876 145.366 90.6611C145.036 90.4345 144.636 90.3329 144.238 90.3746C143.839 90.4163 143.469 90.5985 143.193 90.8885C142.917 91.1786 142.753 91.5575 142.731 91.9573V92.0275C142.664 94.4567 142.41 96.8771 141.972 99.2675C141.864 99.7895 141.722 100.304 141.547 100.807C141.442 101.099 141.312 101.381 141.158 101.65L141.083 101.612C140.23 101.223 139.434 100.718 138.72 100.11C137.86 99.3804 137.046 98.5989 136.282 97.7699C135.491 96.9088 134.709 96.0055 133.942 95.0649C133.567 94.5969 133.202 94.1289 132.832 93.6609L132.294 92.9401L131.793 92.2568L131.714 92.1445C131.197 91.4311 130.421 90.9484 129.553 90.7999C128.685 90.6514 127.793 90.8489 127.068 91.3501C126.344 91.8513 125.844 92.6163 125.677 93.4812C125.509 94.3461 125.688 95.2422 126.173 95.9775C126.402 96.3285 126.58 96.5905 126.781 96.8854C126.982 97.1802 127.184 97.4517 127.39 97.7325C127.797 98.2894 128.227 98.8276 128.663 99.3658C129.542 100.448 130.48 101.482 131.471 102.464C131.981 102.96 132.505 103.447 133.057 103.919C133.609 104.392 134.204 104.855 134.821 105.281C136.159 106.255 137.653 106.992 139.239 107.462C140.503 107.859 141.864 107.816 143.1 107.341C143.767 107.062 144.369 106.649 144.869 106.128C145.272 105.71 145.614 105.238 145.885 104.724C146.3 103.92 146.587 103.057 146.737 102.164C146.875 101.412 146.96 100.65 146.989 99.8853C147.047 98.4678 146.987 97.0482 146.812 95.6405Z" fill="#CE7A63"/>
<path d="M121.68 128.995L113.981 129.556C113.981 129.556 86.9965 135.818 88.0355 150.036C88.7328 159.583 92.7904 175.027 95.575 184.776H101.893C101.514 175.027 102.197 160.056 99.553 150.298C103.643 149.545 117.693 144.523 122.653 142.866C123.848 140.707 124.392 138.248 124.219 135.787C124.046 133.325 123.165 130.966 121.68 128.995Z" fill="#263238"/>
<path opacity="0.4" d="M112.727 137.737C107.415 141.771 106.681 146.84 107.415 148.033C109.755 147.275 112.273 146.419 114.646 145.604C114.66 142.763 114.908 136.085 112.727 137.737Z" fill="black"/>
<path d="M131.854 128.255L121.68 128.995L131.854 128.26V128.255Z" fill="#263238"/>
<path d="M138.612 127.764L121.68 128.995C121.68 128.995 109.044 138.757 109.461 143.503C109.577 145.38 109.969 147.23 110.626 148.993C114.028 158.044 120.819 174.517 124.965 184.766H131.391C129.486 174.241 127.422 157.318 123.22 149.666C127.666 147.682 133.745 145.174 137.934 141.977C142.632 138.416 138.612 127.764 138.612 127.764Z" fill="#263238"/>
<path d="M98.2472 193.752L102.197 193.822C102.197 193.822 102.099 190.153 101.893 184.766H95.575C97.1006 190.125 98.2472 193.752 98.2472 193.752Z" fill="#CE7A63"/>
<path d="M97.2597 190.804L102.408 190.841C102.5 190.841 102.59 190.874 102.66 190.934C102.73 190.994 102.777 191.077 102.791 191.169L103.433 195.381C103.447 195.486 103.438 195.593 103.407 195.694C103.376 195.795 103.324 195.889 103.254 195.968C103.184 196.048 103.098 196.111 103.001 196.154C102.904 196.198 102.799 196.219 102.693 196.218C100.821 196.172 98.1396 196.041 95.7996 196.022C93.0571 196.022 93.1273 196.134 89.9121 196.111C87.9699 196.111 87.5721 194.122 88.3911 193.953C92.1351 193.172 92.7342 193.106 96.0757 191.145C96.4307 190.923 96.8409 190.805 97.2597 190.804Z" fill="#263238"/>
<path d="M128.602 193.752L132.954 193.822C132.954 193.822 132.355 190.12 131.391 184.766H124.956C127.123 190.116 128.602 193.752 128.602 193.752Z" fill="#CE7A63"/>
<path d="M127.605 190.804L132.753 190.841C132.847 190.843 132.938 190.876 133.011 190.936C133.083 190.995 133.134 191.077 133.155 191.169L134.059 195.381C134.081 195.483 134.081 195.588 134.056 195.69C134.032 195.792 133.985 195.886 133.919 195.967C133.853 196.048 133.769 196.113 133.674 196.156C133.579 196.2 133.475 196.221 133.371 196.218C131.499 196.172 128.808 196.041 126.463 196.022C123.72 196.022 125.958 196.134 122.742 196.111C120.8 196.111 120.281 194.154 121.09 193.953C124.118 193.186 125.213 192.399 126.44 191.145C126.601 191.013 126.787 190.914 126.987 190.855C127.188 190.796 127.398 190.779 127.605 190.804Z" fill="#263238"/>
<path d="M165.204 103.629C161.46 103.629 158.423 96.8199 158.423 88.4193C158.423 80.0187 161.46 73.214 165.204 73.214H167.745V103.634L165.204 103.629Z" fill="#FD7F37"/>
<path opacity="0.2" d="M165.204 103.629C161.46 103.629 158.423 96.8199 158.423 88.4193C158.423 80.0187 161.46 73.214 165.204 73.214H167.745V103.634L165.204 103.629Z" fill="black"/>
<path d="M167.745 103.625C171.491 103.625 174.527 96.817 174.527 88.4193C174.527 80.0216 171.491 73.214 167.745 73.214C164 73.214 160.964 80.0216 160.964 88.4193C160.964 96.817 164 103.625 167.745 103.625Z" fill="#FD7F37"/>
<path d="M169.177 103.629C165.433 103.629 162.396 96.8199 162.396 88.4193C162.396 80.0187 165.433 73.214 169.177 73.214H171.719V103.634L169.177 103.629Z" fill="#FD7F37"/>
<path opacity="0.2" d="M169.177 103.629C165.433 103.629 162.396 96.8199 162.396 88.4193C162.396 80.0187 165.433 73.214 169.177 73.214H171.719V103.634L169.177 103.629Z" fill="black"/>
<path d="M179.071 81.989C178.453 78.8487 177.391 76.256 176.001 74.501L176.366 74.2108C177.807 76.036 178.898 78.6989 179.534 81.9141L179.071 81.989Z" fill="#FD7F37"/>
<path d="M180.138 88.4193H179.67C179.671 87.1781 179.607 85.9378 179.478 84.7033L179.946 84.6519C180.077 85.9033 180.141 87.1609 180.138 88.4193Z" fill="#FD7F37"/>
<path d="M171.719 103.625C175.464 103.625 178.5 96.817 178.5 88.4193C178.5 80.0216 175.464 73.214 171.719 73.214C167.973 73.214 164.937 80.0216 164.937 88.4193C164.937 96.817 167.973 103.625 171.719 103.625Z" fill="#FD7F37"/>
<path d="M172.51 96.7263C170.464 96.7263 168.803 92.9823 168.803 88.4193C168.803 83.8563 170.464 80.1169 172.51 80.1169H173.914V96.7263H172.51Z" fill="#FD7F37"/>
<path opacity="0.2" d="M173.895 96.7263H172.491C170.45 96.7263 168.789 92.9823 168.789 88.4239C168.789 83.8656 170.45 80.1169 172.491 80.1169H173.895C171.85 80.1169 170.193 83.8329 170.193 88.4239C170.193 93.015 171.85 96.7263 173.895 96.7263Z" fill="black"/>
<path opacity="0.1" d="M173.895 96.7216C175.939 96.7216 177.597 93.0045 177.597 88.4193C177.597 83.834 175.939 80.1169 173.895 80.1169C171.85 80.1169 170.193 83.834 170.193 88.4193C170.193 93.0045 171.85 96.7216 173.895 96.7216Z" fill="white"/>
<path d="M199.209 150.228L186.344 194.8H188.707L201.572 150.228H199.209Z" fill="#263238"/>
<path d="M159.981 194.8H162.344L175.21 150.228H172.842L159.981 194.8Z" fill="#263238"/>
<path d="M157.866 190.981C155.354 190.981 152.944 189.984 151.168 188.207C149.391 186.431 148.393 184.021 148.393 181.509C148.393 178.997 149.391 176.588 151.168 174.811C152.944 173.035 155.354 172.037 157.866 172.037H159.307V190.981H157.866Z" fill="#FD7F37"/>
<path opacity="0.2" d="M157.866 190.981C155.354 190.981 152.944 189.984 151.168 188.207C149.391 186.431 148.393 184.021 148.393 181.509C148.393 178.997 149.391 176.588 151.168 174.811C152.944 173.035 155.354 172.037 157.866 172.037H159.307V190.981H157.866Z" fill="black"/>
<path d="M159.307 190.981C164.539 190.981 168.78 186.741 168.78 181.509C168.78 176.278 164.539 172.037 159.307 172.037C154.076 172.037 149.835 176.278 149.835 181.509C149.835 186.741 154.076 190.981 159.307 190.981Z" fill="#FD7F37"/>
<path opacity="0.1" d="M157.866 172.037H159.307C161.819 172.037 164.229 173.035 166.005 174.811C167.782 176.588 168.78 178.997 168.78 181.509C168.78 184.021 167.782 186.431 166.005 188.207C164.229 189.984 161.819 190.981 159.307 190.981H157.866C155.354 190.981 152.944 189.984 151.168 188.207C149.391 186.431 148.393 184.021 148.393 181.509C148.393 178.997 149.391 176.588 151.168 174.811C152.944 173.035 155.354 172.037 157.866 172.037Z" fill="black"/>
<path d="M160.351 190.981C157.839 190.981 155.429 189.984 153.653 188.207C151.876 186.431 150.879 184.021 150.879 181.509C150.879 178.997 151.876 176.588 153.653 174.811C155.429 173.035 157.839 172.037 160.351 172.037H161.792V190.981H160.351Z" fill="#FD7F37"/>
<path opacity="0.2" d="M160.351 190.981C157.839 190.981 155.429 189.984 153.653 188.207C151.876 186.431 150.879 184.021 150.879 181.509C150.879 178.997 151.876 176.588 153.653 174.811C155.429 173.035 157.839 172.037 160.351 172.037H161.792V190.981H160.351Z" fill="black"/>
<path d="M161.792 190.981C167.024 190.981 171.265 186.741 171.265 181.509C171.265 176.278 167.024 172.037 161.792 172.037C156.561 172.037 152.32 176.278 152.32 181.509C152.32 186.741 156.561 190.981 161.792 190.981Z" fill="#FD7F37"/>
<path opacity="0.1" d="M160.351 172.037H161.792C164.304 172.037 166.714 173.035 168.49 174.811C170.267 176.588 171.265 178.997 171.265 181.509C171.265 184.021 170.267 186.431 168.49 188.207C166.714 189.984 164.304 190.981 161.792 190.981H160.351C157.839 190.981 155.429 189.984 153.653 188.207C151.877 186.431 150.879 184.021 150.879 181.509C150.879 178.997 151.877 176.588 153.653 174.811C155.429 173.035 157.839 172.037 160.351 172.037Z" fill="black"/>
<path d="M163.285 183.723H179.478C179.524 183.723 179.57 183.714 179.613 183.696C179.656 183.678 179.695 183.651 179.728 183.618C179.76 183.585 179.786 183.546 179.804 183.503C179.821 183.46 179.83 183.414 179.829 183.367V179.651C179.83 179.605 179.821 179.559 179.804 179.515C179.786 179.472 179.76 179.433 179.728 179.4C179.695 179.367 179.656 179.341 179.613 179.323C179.57 179.305 179.524 179.296 179.478 179.296H163.285C162.994 179.296 162.707 179.353 162.438 179.464C162.169 179.575 161.925 179.738 161.72 179.944C161.514 180.149 161.351 180.393 161.24 180.662C161.129 180.931 161.072 181.218 161.072 181.509C161.072 182.096 161.305 182.659 161.72 183.074C162.135 183.49 162.698 183.723 163.285 183.723Z" fill="#263238"/>
<path d="M182.249 190.981C179.736 190.981 177.327 189.984 175.551 188.207C173.774 186.431 172.776 184.021 172.776 181.509C172.776 178.997 173.774 176.588 175.551 174.811C177.327 173.035 179.736 172.037 182.249 172.037H183.69V190.981H182.249Z" fill="#FD7F37"/>
<path opacity="0.2" d="M182.249 190.981C179.736 190.981 177.327 189.984 175.551 188.207C173.774 186.431 172.776 184.021 172.776 181.509C172.776 178.997 173.774 176.588 175.551 174.811C177.327 173.035 179.736 172.037 182.249 172.037H183.69V190.981H182.249Z" fill="black"/>
<path d="M183.69 190.981C188.921 190.981 193.162 186.741 193.162 181.509C193.162 176.278 188.921 172.037 183.69 172.037C178.459 172.037 174.218 176.278 174.218 181.509C174.218 186.741 178.459 190.981 183.69 190.981Z" fill="#FD7F37"/>
<path d="M184.729 190.981C182.217 190.981 179.807 189.984 178.031 188.207C176.255 186.431 175.257 184.021 175.257 181.509C175.257 178.997 176.255 176.588 178.031 174.811C179.807 173.035 182.217 172.037 184.729 172.037H186.17V190.981H184.729Z" fill="#FD7F37"/>
<path opacity="0.2" d="M184.729 190.981C182.217 190.981 179.807 189.984 178.031 188.207C176.255 186.431 175.257 184.021 175.257 181.509C175.257 178.997 176.255 176.588 178.031 174.811C179.807 173.035 182.217 172.037 184.729 172.037H186.17V190.981H184.729Z" fill="black"/>
<path d="M186.17 190.981C191.402 190.981 195.643 186.741 195.643 181.509C195.643 176.278 191.402 172.037 186.17 172.037C180.939 172.037 176.698 176.278 176.698 181.509C176.698 186.741 180.939 190.981 186.17 190.981Z" fill="#FD7F37"/>
<path opacity="0.2" d="M185.51 186.442C184.202 186.442 182.948 185.922 182.023 184.997C181.097 184.072 180.578 182.817 180.578 181.509C180.578 180.201 181.097 178.946 182.023 178.021C182.948 177.096 184.202 176.576 185.51 176.576H186.835V186.442H185.51Z" fill="black"/>
<path d="M186.835 186.442C189.559 186.442 191.768 184.233 191.768 181.509C191.768 178.785 189.559 176.576 186.835 176.576C184.111 176.576 181.902 178.785 181.902 181.509C181.902 184.233 184.111 186.442 186.835 186.442Z" fill="#FD7F37"/>
<path d="M166.673 169.458C165.555 169.485 164.442 169.287 163.4 168.877C162.359 168.467 161.41 167.853 160.609 167.071C159.808 166.289 159.172 165.355 158.738 164.323C158.303 163.292 158.079 162.184 158.079 161.065C158.079 159.945 158.303 158.837 158.738 157.806C159.172 156.774 159.808 155.84 160.609 155.058C161.41 154.276 162.359 153.662 163.4 153.252C164.442 152.842 165.555 152.645 166.673 152.671H167.951V169.458H166.673Z" fill="#FD7F37"/>
<path opacity="0.2" d="M166.673 169.458C165.555 169.485 164.442 169.287 163.4 168.877C162.359 168.467 161.41 167.853 160.609 167.071C159.808 166.289 159.172 165.355 158.738 164.323C158.303 163.292 158.079 162.184 158.079 161.065C158.079 159.945 158.303 158.837 158.738 157.806C159.172 156.774 159.808 155.84 160.609 155.058C161.41 154.276 162.359 153.662 163.4 153.252C164.442 152.842 165.555 152.645 166.673 152.671H167.951V169.458H166.673Z" fill="black"/>
<path d="M176.331 161.177C176.401 156.543 172.7 152.73 168.067 152.661C163.433 152.591 159.62 156.291 159.55 160.925C159.481 165.559 163.181 169.372 167.815 169.441C172.449 169.511 176.261 165.811 176.331 161.177Z" fill="#FD7F37"/>
<path opacity="0.1" d="M166.673 152.671H167.951C170.143 152.723 172.228 153.63 173.759 155.198C175.291 156.767 176.149 158.872 176.149 161.065C176.149 163.257 175.291 165.362 173.759 166.931C172.228 168.499 170.143 169.406 167.951 169.458H166.673C165.555 169.485 164.442 169.287 163.4 168.877C162.359 168.467 161.41 167.853 160.609 167.071C159.808 166.289 159.172 165.355 158.738 164.323C158.303 163.292 158.079 162.184 158.079 161.065C158.079 159.945 158.303 158.837 158.738 157.806C159.172 156.774 159.808 155.84 160.609 155.058C161.41 154.276 162.359 153.662 163.4 153.252C164.442 152.842 165.555 152.645 166.673 152.671Z" fill="black"/>
<path d="M168.873 169.458C166.681 169.406 164.597 168.499 163.065 166.931C161.533 165.362 160.675 163.257 160.675 161.065C160.675 158.872 161.533 156.767 163.065 155.198C164.597 153.63 166.681 152.723 168.873 152.671H170.151V169.458H168.873Z" fill="#FD7F37"/>
<path opacity="0.2" d="M168.873 169.458C166.681 169.406 164.597 168.499 163.065 166.931C161.533 165.362 160.675 163.257 160.675 161.065C160.675 158.872 161.533 156.767 163.065 155.198C164.597 153.63 166.681 152.723 168.873 152.671H170.151V169.458H168.873Z" fill="black"/>
<path d="M178.531 161.182C178.6 156.548 174.9 152.735 170.266 152.666C165.633 152.596 161.82 156.296 161.75 160.93C161.681 165.564 165.381 169.377 170.015 169.446C174.648 169.516 178.461 165.816 178.531 161.182Z" fill="#FD7F37"/>
<path opacity="0.1" d="M168.873 152.671H170.151C171.27 152.645 172.383 152.842 173.424 153.252C174.466 153.662 175.415 154.276 176.215 155.058C177.016 155.84 177.652 156.774 178.087 157.806C178.521 158.837 178.745 159.945 178.745 161.065C178.745 162.184 178.521 163.292 178.087 164.323C177.652 165.355 177.016 166.289 176.215 167.071C175.415 167.853 174.466 168.467 173.424 168.877C172.383 169.287 171.27 169.485 170.151 169.458H168.873C166.681 169.406 164.597 168.499 163.065 166.931C161.533 165.362 160.675 163.257 160.675 161.065C160.675 158.872 161.533 156.767 163.065 155.198C164.597 153.63 166.681 152.723 168.873 152.671Z" fill="black"/>
<path d="M185.824 163.009H171.461C170.945 163.009 170.45 162.804 170.084 162.439C169.719 162.074 169.514 161.579 169.514 161.062C169.514 160.546 169.719 160.051 170.084 159.686C170.45 159.32 170.945 159.115 171.461 159.115H185.824C185.906 159.115 185.985 159.148 186.042 159.206C186.1 159.264 186.133 159.342 186.133 159.424V162.7C186.133 162.782 186.1 162.861 186.042 162.919C185.985 162.976 185.906 163.009 185.824 163.009Z" fill="#263238"/>
<path d="M188.276 169.458C187.157 169.485 186.045 169.287 185.003 168.877C183.962 168.467 183.013 167.853 182.212 167.071C181.411 166.289 180.775 165.355 180.34 164.323C179.906 163.292 179.682 162.184 179.682 161.065C179.682 159.945 179.906 158.837 180.34 157.806C180.775 156.774 181.411 155.84 182.212 155.058C183.013 154.276 183.962 153.662 185.003 153.252C186.045 152.842 187.157 152.645 188.276 152.671H189.54V169.458H188.276Z" fill="#FD7F37"/>
<path opacity="0.2" d="M188.276 169.458C187.157 169.485 186.045 169.287 185.003 168.877C183.962 168.467 183.013 167.853 182.212 167.071C181.411 166.289 180.775 165.355 180.34 164.323C179.906 163.292 179.682 162.184 179.682 161.065C179.682 159.945 179.906 158.837 180.34 157.806C180.775 156.774 181.411 155.84 182.212 155.058C183.013 154.276 183.962 153.662 185.003 153.252C186.045 152.842 187.157 152.645 188.276 152.671H189.54V169.458H188.276Z" fill="black"/>
<path d="M189.554 169.458C194.188 169.458 197.945 165.701 197.945 161.067C197.945 156.433 194.188 152.676 189.554 152.676C184.92 152.676 181.163 156.433 181.163 161.067C181.163 165.701 184.92 169.458 189.554 169.458Z" fill="#FD7F37"/>
<path d="M190.476 169.458C188.284 169.406 186.2 168.499 184.668 166.931C183.136 165.362 182.278 163.257 182.278 161.065C182.278 158.872 183.136 156.767 184.668 155.198C186.2 153.63 188.284 152.723 190.476 152.671H191.754V169.458H190.476Z" fill="#FD7F37"/>
<path opacity="0.2" d="M190.476 169.458C188.284 169.406 186.2 168.499 184.668 166.931C183.136 165.362 182.278 163.257 182.278 161.065C182.278 158.872 183.136 156.767 184.668 155.198C186.2 153.63 188.284 152.723 190.476 152.671H191.754V169.458H190.476Z" fill="black"/>
<path d="M191.749 169.458C196.383 169.458 200.14 165.701 200.14 161.067C200.14 156.433 196.383 152.676 191.749 152.676C187.115 152.676 183.358 156.433 183.358 161.067C183.358 165.701 187.115 169.458 191.749 169.458Z" fill="#FD7F37"/>
<path opacity="0.2" d="M191.164 165.433C190.578 165.453 189.995 165.354 189.448 165.143C188.901 164.932 188.402 164.613 187.981 164.206C187.56 163.798 187.225 163.31 186.996 162.77C186.768 162.231 186.65 161.651 186.65 161.065C186.65 160.479 186.768 159.898 186.996 159.359C187.225 158.819 187.56 158.331 187.981 157.924C188.402 157.516 188.901 157.197 189.448 156.986C189.995 156.775 190.578 156.677 191.164 156.696H192.348V165.433H191.164Z" fill="black"/>
<path d="M193.064 164.727C195.478 164.679 197.396 162.682 197.348 160.268C197.299 157.854 195.303 155.936 192.889 155.985C190.475 156.033 188.557 158.029 188.605 160.443C188.654 162.857 190.65 164.775 193.064 164.727Z" fill="#FD7F37"/>
<path d="M68.5012 174.19C68.5012 171.124 65.6932 168.635 62.2627 168.635C58.8323 168.635 56.0243 171.124 56.0243 174.19C56.0312 175.426 56.4831 176.619 57.2973 177.55C57.4611 177.746 57.5792 177.976 57.6431 178.223C57.707 178.471 57.7151 178.729 57.6667 178.98C57.6183 179.231 57.5147 179.468 57.3634 179.674C57.2121 179.88 57.0168 180.05 56.7918 180.171C56.5591 180.298 56.365 180.485 56.23 180.713C56.0949 180.942 56.0238 181.202 56.0243 181.467V193.85C56.0243 194.183 56.1564 194.502 56.3917 194.737C56.6269 194.972 56.9459 195.105 57.2785 195.105H67.2469C67.5796 195.105 67.8986 194.972 68.1338 194.737C68.369 194.502 68.5012 194.183 68.5012 193.85V181.467C68.5017 181.201 68.4301 180.941 68.2942 180.712C68.1582 180.484 67.9629 180.297 67.729 180.171C67.504 180.05 67.3087 179.88 67.1574 179.674C67.0061 179.468 66.9025 179.231 66.8541 178.98C66.8057 178.729 66.8138 178.471 66.8777 178.223C66.9416 177.976 67.0597 177.746 67.2235 177.55C68.0394 176.62 68.4929 175.427 68.5012 174.19Z" fill="#FD7F37"/>
<path opacity="0.2" d="M68.5012 174.19C68.5012 171.124 65.6932 168.635 62.2627 168.635C58.8323 168.635 56.0243 171.124 56.0243 174.19C56.0312 175.426 56.4831 176.619 57.2973 177.55C57.4611 177.746 57.5792 177.976 57.6431 178.223C57.707 178.471 57.7151 178.729 57.6667 178.98C57.6183 179.231 57.5147 179.468 57.3634 179.674C57.2121 179.88 57.0168 180.05 56.7918 180.171C56.5591 180.298 56.365 180.485 56.23 180.713C56.0949 180.942 56.0238 181.202 56.0243 181.467V193.85C56.0243 194.183 56.1564 194.502 56.3917 194.737C56.6269 194.972 56.9459 195.105 57.2785 195.105H67.2469C67.5796 195.105 67.8986 194.972 68.1338 194.737C68.369 194.502 68.5012 194.183 68.5012 193.85V181.467C68.5017 181.201 68.4301 180.941 68.2942 180.712C68.1582 180.484 67.9629 180.297 67.729 180.171C67.504 180.05 67.3087 179.88 67.1574 179.674C67.0061 179.468 66.9025 179.231 66.8541 178.98C66.8057 178.729 66.8138 178.471 66.8777 178.223C66.9416 177.976 67.0597 177.746 67.2235 177.55C68.0394 176.62 68.4929 175.427 68.5012 174.19Z" fill="white"/>
<path d="M64.8695 169.706H59.6513C59.3678 169.705 59.0964 169.592 58.8965 169.391C58.6965 169.19 58.5842 168.918 58.5842 168.635C58.5855 168.352 58.6983 168.081 58.8981 167.881C59.098 167.682 59.3687 167.569 59.6513 167.568H64.8695C65.1529 167.568 65.4248 167.68 65.6256 167.88C65.8265 168.08 65.9399 168.351 65.9412 168.635C65.9399 168.918 65.8266 169.19 65.6259 169.391C65.4252 169.592 65.1533 169.705 64.8695 169.706Z" fill="#263238"/>
<path d="M63.283 165.485H61.2425C60.8703 165.485 60.5686 165.787 60.5686 166.159V167.961C60.5686 168.333 60.8703 168.635 61.2425 168.635H63.283C63.6552 168.635 63.9569 168.333 63.9569 167.961V166.159C63.9569 165.787 63.6552 165.485 63.283 165.485Z" fill="#263238"/>
</svg>
