<svg width="247" height="185" viewBox="0 0 247 185" fill="none" xmlns="http://www.w3.org/2000/svg">
<path d="M247 161.906H0V162.029H247V161.906Z" fill="#EBEBEB"/>
<path d="M222.251 169.854H205.889V169.978H222.251V169.854Z" fill="#EBEBEB"/>
<path d="M163.623 171.198H159.33V171.321H163.623V171.198Z" fill="#EBEBEB"/>
<path d="M205.395 165.27H195.915V165.393H205.395V165.27Z" fill="#EBEBEB"/>
<path d="M47.2511 166.1H25.9153V166.223H47.2511V166.1Z" fill="#EBEBEB"/>
<path d="M54.7796 166.1H51.6526V166.223H54.7796V166.1Z" fill="#EBEBEB"/>
<path d="M111.224 168.184H64.9462V168.308H111.224V168.184Z" fill="#EBEBEB"/>
<path d="M117.078 139.873H21.6915C20.9443 139.872 20.2281 139.574 19.7002 139.045C19.1722 138.516 18.8757 137.8 18.8757 137.053V2.96608C18.8822 2.22312 19.1816 1.51273 19.7088 0.989204C20.2361 0.465682 20.9485 0.171317 21.6915 0.170044H117.078C117.826 0.170044 118.544 0.467228 119.073 0.99622C119.602 1.52521 119.899 2.24268 119.899 2.99078V137.053C119.899 137.801 119.602 138.518 119.073 139.047C118.544 139.576 117.826 139.873 117.078 139.873ZM21.6915 0.268844C20.977 0.270153 20.2923 0.554902 19.7875 1.06059C19.2827 1.56628 18.9992 2.25159 18.9992 2.96608V137.053C18.9992 137.767 19.2827 138.452 19.7875 138.958C20.2923 139.464 20.977 139.748 21.6915 139.75H117.078C117.793 139.748 118.478 139.464 118.984 138.958C119.489 138.453 119.774 137.767 119.775 137.053V2.96608C119.774 2.25113 119.489 1.56584 118.984 1.06029C118.478 0.554742 117.793 0.27015 117.078 0.268844H21.6915Z" fill="#EBEBEB"/>
<path d="M223.935 139.873H128.544C127.796 139.872 127.079 139.574 126.551 139.046C126.022 138.517 125.724 137.8 125.723 137.053V2.96608C125.731 2.22267 126.031 1.51228 126.559 0.988895C127.087 0.46551 127.8 0.171303 128.544 0.170044H223.935C224.677 0.172615 225.389 0.467555 225.915 0.990938C226.441 1.51432 226.74 2.22397 226.746 2.96608V137.053C226.746 137.799 226.45 138.515 225.923 139.044C225.396 139.572 224.682 139.871 223.935 139.873ZM128.544 0.268844C127.829 0.27015 127.144 0.554742 126.638 1.06029C126.132 1.56584 125.848 2.25113 125.847 2.96608V137.053C125.848 137.767 126.132 138.453 126.638 138.958C127.144 139.464 127.829 139.748 128.544 139.75H223.935C224.65 139.748 225.335 139.464 225.841 138.958C226.346 138.453 226.631 137.767 226.632 137.053V2.96608C226.631 2.25113 226.346 1.56584 225.841 1.06029C225.335 0.554742 224.65 0.27015 223.935 0.268844H128.544Z" fill="#EBEBEB"/>
<path d="M178.63 97.073H182.928C182.899 94.109 182.928 86.5558 183.23 69.2608C183.768 37.9165 184.756 36.0048 184.756 36.0048L179.653 51.4768C178.444 55.1147 177.74 58.901 177.558 62.7302C177.015 74.7936 179.124 84.4217 178.63 97.073Z" fill="#E6E6E6"/>
<path d="M175.37 46.8136C169.644 38.1439 158.208 33.6188 146.52 29.3605C141.931 27.6859 154.81 48.4339 164.171 57.8347C171.448 65.141 178.497 64.9779 180.592 72.2002C180.997 63.817 180.31 54.2828 175.37 46.8136Z" fill="#E6E6E6"/>
<path d="M181.93 41.2461C186.421 31.1092 197.768 17.959 210.518 8.69646C215.527 5.06062 203.172 36.2765 194.458 49.0711C187.676 59.0301 181.347 65.0915 180.359 72.2002C176.081 63.3082 177.445 51.383 181.93 41.2461Z" fill="#E6E6E6"/>
<path d="M181.506 106.449C179.079 106.448 176.744 105.52 174.979 103.854C173.214 102.188 172.152 99.9109 172.011 97.488L171.171 88.8875H191.84L191 97.488C190.861 99.9117 189.8 102.19 188.035 103.857C186.269 105.523 183.933 106.451 181.506 106.449Z" fill="#F0F0F0"/>
<path d="M193.179 88.9369H169.832L169.165 85.879H193.846L193.179 88.9369Z" fill="#F0F0F0"/>
<path d="M192.028 94.1733H170.983L170.381 91.1204H192.63L192.028 94.1733Z" fill="#F0F0F0"/>
<path d="M37.9096 84.486L147.75 84.486V14.3874L37.9096 14.3874L37.9096 84.486Z" fill="#E6E6E6"/>
<path d="M35.2221 84.486L146.496 84.486V14.3874L35.2221 14.3874L35.2221 84.486Z" fill="#F0F0F0"/>
<path d="M37.9096 89.4802L147.75 89.4802V84.4859L37.9096 84.4859V89.4802Z" fill="#E6E6E6"/>
<path d="M33.2412 84.486H139.52C139.847 84.4827 140.171 84.5442 140.473 84.6668C140.776 84.7895 141.051 84.9709 141.283 85.2006C141.515 85.4303 141.699 85.7037 141.825 86.005C141.95 86.3063 142.015 86.6295 142.015 86.956C142.016 87.284 141.952 87.6089 141.827 87.9122C141.702 88.2154 141.518 88.491 141.286 88.7232C141.054 88.9554 140.779 89.1396 140.476 89.2652C140.173 89.3909 139.848 89.4556 139.52 89.4556H33.2412C32.5783 89.4556 31.9425 89.1923 31.4737 88.7235C31.0049 88.2547 30.7416 87.6189 30.7416 86.956C30.7494 86.2982 31.0162 85.67 31.4841 85.2076C31.952 84.7452 32.5834 84.4859 33.2412 84.486Z" fill="#F0F0F0"/>
<path d="M142.736 80.7216V18.1516L38.9914 18.1516V80.7216H142.736Z" fill="#FAFAFA"/>
<path d="M135.534 80.7216L113.447 18.1516H103.019L125.106 80.7216H135.534Z" fill="white"/>
<path d="M140.993 59.4946C140.921 59.4946 140.851 59.466 140.8 59.415C140.749 59.3641 140.721 59.2949 140.721 59.2229V20.602C140.716 20.5635 140.719 20.5245 140.73 20.4873C140.741 20.4502 140.76 20.4159 140.785 20.3867C140.811 20.3575 140.842 20.3341 140.878 20.318C140.913 20.302 140.951 20.2937 140.99 20.2937C141.029 20.2937 141.067 20.302 141.102 20.318C141.138 20.3341 141.169 20.3575 141.195 20.3867C141.22 20.4159 141.239 20.4502 141.25 20.4873C141.261 20.5245 141.265 20.5635 141.259 20.602V59.2229C141.259 59.2941 141.231 59.3625 141.181 59.4133C141.132 59.4641 141.064 59.4933 140.993 59.4946Z" fill="#F0F0F0"/>
<path d="M122.868 80.7216L100.781 18.1516H96.7153L118.802 80.7216H122.868Z" fill="white"/>
<path d="M100.509 80.7216L78.4224 18.1516H67.999L90.0808 80.7216H100.509Z" fill="white"/>
<path d="M72.7958 80.7216L50.7091 18.1516H46.6434L68.7302 80.7216H72.7958Z" fill="white"/>
<path d="M39.4607 80.7216L39.4607 18.1516H38.9815L38.9815 80.7216H39.4607Z" fill="#E6E6E6"/>
<path opacity="0.4" d="M34.333 24.381H144.174L144.52 19.6139H34.6788L34.333 24.381Z" fill="#E6E6E6"/>
<path opacity="0.4" d="M34.333 27.8735H144.174L144.52 23.1014H34.6788L34.333 27.8735Z" fill="#E6E6E6"/>
<path opacity="0.4" d="M34.333 32.0578H144.174L144.52 27.2906H34.6788L34.333 32.0578Z" fill="#E6E6E6"/>
<path opacity="0.4" d="M34.333 36.7162H144.174L144.52 31.9491H34.6788L34.333 36.7162Z" fill="#E6E6E6"/>
<path opacity="0.4" d="M34.333 42.3033H144.174L144.52 37.5312H34.6788L34.333 42.3033Z" fill="#E6E6E6"/>
<path opacity="0.4" d="M34.333 48.582H144.174L144.52 43.8149H34.6788L34.333 48.582Z" fill="#E6E6E6"/>
<path d="M45.2587 161.704C54.4012 160.269 60.6493 151.694 59.2144 142.552C57.7794 133.41 49.2048 127.161 40.0624 128.596C30.9199 130.031 24.6718 138.606 26.1067 147.748C27.5417 156.891 36.1163 163.139 45.2587 161.704Z" fill="#F5F5F5"/>
<g style="mix-blend-mode:multiply" opacity="0.7">
<path d="M41.7233 132.256C40.2857 132.197 39.1495 131.579 39.1792 130.873C39.2088 130.166 40.3944 129.652 41.8319 129.712C43.2695 129.771 44.4057 130.393 44.376 131.095C44.3464 131.796 43.1608 132.315 41.7233 132.256Z" fill="#E6E6E6"/>
</g>
<g style="mix-blend-mode:multiply" opacity="0.7">
<path d="M34.5158 134.785C33.3104 135.561 32.0211 135.709 31.6407 135.121C31.2603 134.533 31.9322 133.417 33.1227 132.651C34.3132 131.885 35.5927 131.722 35.9978 132.315C36.4029 132.908 35.7261 134.005 34.5158 134.785Z" fill="#E6E6E6"/>
</g>
<g style="mix-blend-mode:multiply" opacity="0.7">
<path d="M39.5892 138.031C38.2751 138.623 36.9216 138.451 36.561 137.645C36.2003 136.84 36.966 135.709 38.2751 135.121C39.5842 134.533 40.9378 134.701 41.3033 135.506C41.6689 136.312 40.8983 137.438 39.5892 138.031Z" fill="#E6E6E6"/>
</g>
<path d="M63.3951 161.906H84.2073V106.449H63.3951L63.3951 161.906Z" fill="#E6E6E6"/>
<path d="M67.3471 161.906H63.3901V147.249H71.4917L67.3471 161.906Z" fill="#F0F0F0"/>
<path d="M182.143 161.906H202.955V106.449H182.143V161.906Z" fill="#E6E6E6"/>
<path d="M63.3951 157.904L185.596 157.904V106.449L63.3951 106.449V157.904Z" fill="#F0F0F0"/>
<path d="M181.639 161.906H185.591V147.249H177.494L181.639 161.906Z" fill="#F0F0F0"/>
<path d="M181.911 151.71H144.92V112.12H181.911V151.71ZM145.686 150.944H181.145V112.906H145.686V150.944Z" fill="#E6E6E6"/>
<path d="M142.988 151.71H105.998V112.12H142.988V151.71ZM106.763 150.944H142.223V112.906H106.763V150.944Z" fill="#E6E6E6"/>
<path d="M104.061 151.71H67.0703V112.12H104.061V151.71ZM67.836 150.944H103.295V112.906H67.836V150.944Z" fill="#E6E6E6"/>
<path d="M123.5 184.215C176.399 184.215 219.282 181.711 219.282 178.623C219.282 175.534 176.399 173.031 123.5 173.031C70.6012 173.031 27.7183 175.534 27.7183 178.623C27.7183 181.711 70.6012 184.215 123.5 184.215Z" fill="#F5F5F5"/>
<path d="M127.595 30.0322C120.185 27.1819 112.672 34.3103 113.269 47.5445C113.719 57.4245 104.269 56.3476 109.209 65.1458C114.149 73.9439 110.488 79.8966 105.257 78.296C109.209 83.2756 120.882 79.4322 120.916 71.3109C120.951 63.1895 140.933 75.0406 140.933 75.0406C140.933 75.0406 136.878 82.1739 148.2 80.519C159.522 78.8641 169.348 56.0957 169.388 45.9835C169.417 39.2799 162.254 36.1825 158.633 36.8396C158.5 28.2785 124.137 12.3619 127.595 30.0322Z" fill="#263238"/>
<path d="M107.736 77.9008C106.697 77.9017 105.67 77.674 104.728 77.2339L104.95 76.7943C104.95 76.7943 107.223 77.9305 109.396 77.145C110.71 76.651 111.733 75.584 112.439 73.9192L112.894 74.1118C112.133 75.91 111.012 77.0759 109.559 77.6094C108.973 77.8119 108.356 77.9105 107.736 77.9008Z" fill="#263238"/>
<path d="M109.861 58.6694L109.475 58.3631C112.207 54.9594 111.911 51.8571 111.565 48.2657C111.254 44.9954 110.898 41.2855 112.899 36.7605C115.146 31.6821 118.184 28.6638 121.687 28.0315C124.611 27.498 127.714 28.733 130.426 31.4895L130.075 31.8353C127.482 29.1874 124.532 28.0018 121.776 28.5008C118.441 29.1035 115.527 32.0279 113.378 36.9482C111.402 41.3547 111.777 44.9905 112.084 48.2015C112.395 51.7632 112.716 55.1126 109.861 58.6694Z" fill="#263238"/>
<path d="M69.3032 113.084L67.4705 107.432C66.9862 105.936 66.0826 104.611 64.8671 103.614L62.7429 101.865C62.0333 101.528 61.2381 101.416 60.4632 101.543C59.6883 101.671 58.9706 102.031 58.4056 102.576L55.0513 105.797C54.3482 106.472 53.9252 107.388 53.8666 108.361C53.808 109.334 54.1181 110.293 54.7352 111.048L56.1727 112.802C56.1727 112.802 60.5001 119.501 66.023 121.625L67.1296 120.405C68.0154 119.424 68.6704 118.257 69.0465 116.991C69.4226 115.724 69.5103 114.389 69.3032 113.084Z" fill="#FF8B7B"/>
<path d="M120.635 109.191L120.358 110.006L120.106 110.727L119.612 112.135C119.271 113.069 118.901 113.973 118.535 114.877C117.799 116.69 116.999 118.458 116.169 120.217C115.339 121.976 114.46 123.709 113.536 125.429C112.612 127.148 111.669 128.847 110.636 130.517C108.594 133.895 106.352 137.148 103.923 140.258C101.447 143.45 98.7215 146.44 95.7717 149.2C95.3963 149.546 95.0258 149.896 94.6405 150.237L93.4697 151.25L93.1782 151.502L93.03 151.63L92.6694 151.932C92.0052 152.467 91.2787 152.92 90.5057 153.28C89.6425 153.681 88.7256 153.954 87.7838 154.09C86.8965 154.219 85.9958 154.228 85.1063 154.115C83.7731 153.943 82.4824 153.53 81.2975 152.895C80.4881 152.46 79.7251 151.943 79.0202 151.354C77.9775 150.485 77.0228 149.515 76.1698 148.459C74.8069 146.768 73.5812 144.97 72.5043 143.084C71.4916 141.321 70.5975 139.572 69.7528 137.828C68.0929 134.326 66.6603 130.828 65.3809 127.291C64.1014 123.754 62.9553 120.222 61.992 116.522C61.759 115.554 61.8771 114.535 62.3254 113.647C62.7736 112.759 63.5229 112.058 64.4395 111.671C65.3562 111.283 66.3806 111.234 67.3302 111.532C68.2798 111.829 69.0929 112.455 69.6243 113.296L69.6737 113.38C73.3738 119.486 77.0393 125.769 80.9369 131.45C81.9002 132.873 82.8882 134.251 83.9009 135.521C84.7966 136.706 85.7773 137.823 86.8353 138.865C87.1691 139.199 87.5443 139.487 87.9517 139.725C88.0604 139.779 88.1049 139.725 87.9517 139.661C87.58 139.442 87.1656 139.305 86.7365 139.261C86.3005 139.201 85.8584 139.201 85.4224 139.261C84.9314 139.328 84.4524 139.464 83.9997 139.666C83.6377 139.827 83.2961 140.031 82.9821 140.273L82.8932 140.347L82.8536 140.377L82.8783 140.352L82.9821 140.244L83.1945 140.031L84.0294 139.182L84.8395 138.302C87.0238 135.878 89.0469 133.314 90.896 130.625C92.7583 127.884 94.5516 125.053 96.1818 122.089C97.812 119.125 99.3582 116.102 100.801 113.019C101.522 111.473 102.204 109.917 102.871 108.361L103.859 106.029L104.318 104.878L104.713 103.846L104.842 103.51C105.595 101.414 107.15 99.7024 109.165 98.7528C111.18 97.8032 113.49 97.693 115.586 98.4463C117.682 99.1997 119.393 100.755 120.343 102.77C121.293 104.785 121.403 107.095 120.65 109.191H120.635Z" fill="#FF8B7B"/>
<path d="M102.678 111.216C102.89 116.087 95.2036 127.345 104.693 133.871C105.81 143.707 107.208 153.389 109.831 169.518H159.349C157.314 155.568 157.759 139.671 164.289 108.262C164.649 106.544 164.643 104.77 164.272 103.055C163.901 101.34 163.173 99.7214 162.136 98.3056C161.099 96.8898 159.776 95.708 158.252 94.8369C156.729 93.9658 155.039 93.425 153.293 93.2495C151.317 93.0519 149.222 92.8839 147.079 92.7555C138.75 92.3553 131.918 92.0886 124.592 92.7555C122.166 92.9778 119.652 93.284 117.261 93.62C113.078 94.2161 109.267 96.3486 106.571 99.6017C103.875 102.855 102.487 106.995 102.678 111.216Z" fill="#263238"/>
<path opacity="0.2" d="M102.51 104.666C104.807 107.067 108.23 107.971 109.92 107.225C111.609 106.479 109.564 105.698 107.741 105.604C105.918 105.511 108.803 104.819 111.881 105.155C114.959 105.491 114.692 103.317 111.387 102.749C108.082 102.181 111.436 101.924 114.178 102.122C116.92 102.319 117.226 100.358 113.916 99.6517C110.607 98.9453 120.007 99.4442 116.88 96.1937C113.753 92.9432 112.123 100.556 112.108 97.7745C112.093 94.9933 109.688 94.7512 109.248 96.9693C108.808 99.1873 107.682 101.761 107.815 99.0144C107.949 96.2678 105.429 95.5317 105.074 98.0264C104.718 100.521 103.187 102.65 103.523 101.183C103.858 99.7159 103.434 97.9227 102.129 99.0688C100.825 100.215 100.218 102.265 102.51 104.666Z" fill="white"/>
<path opacity="0.2" d="M128.702 107.694C126.38 105.318 122.947 104.448 121.292 105.224C119.637 106 121.657 106.741 123.485 106.82C125.313 106.899 122.428 107.615 119.35 107.314C116.273 107.012 116.554 109.181 119.844 109.709C123.134 110.238 119.805 110.539 117.058 110.371C114.312 110.203 114.03 112.165 117.345 112.841C120.659 113.518 111.259 113.113 114.415 116.349C117.572 119.585 119.128 111.932 119.168 114.714C119.207 117.495 121.638 117.712 122.038 115.489C122.438 113.266 123.554 110.683 123.451 113.429C123.347 116.176 125.876 116.887 126.202 114.373C126.528 111.858 128.04 109.729 127.724 111.196C127.407 112.664 127.842 114.462 129.136 113.301C130.431 112.14 131.019 110.07 128.702 107.694Z" fill="white"/>
<path opacity="0.2" d="M95.7372 120.251C98.0343 122.652 101.463 123.561 103.147 122.81C104.832 122.059 102.796 121.289 100.969 121.195C99.1408 121.101 102.031 120.409 105.108 120.745C108.186 121.081 107.924 118.903 104.614 118.34C101.305 117.776 104.659 117.51 107.405 117.707C110.152 117.905 110.448 115.944 107.144 115.237C103.839 114.531 113.23 115.035 110.108 111.779C106.986 108.524 105.35 116.146 105.336 113.365C105.321 110.584 102.915 110.342 102.475 112.555C102.036 114.768 100.909 117.347 101.043 114.605C101.176 111.863 98.6567 111.117 98.301 113.617C97.9454 116.117 96.414 118.236 96.7499 116.774C97.0858 115.311 96.6609 113.508 95.3568 114.659C94.0526 115.81 93.445 117.856 95.7372 120.251Z" fill="white"/>
<path opacity="0.2" d="M121.929 123.28C119.607 120.904 116.174 120.034 114.519 120.81C112.864 121.585 114.89 122.331 116.712 122.405C118.535 122.479 115.66 123.201 112.578 122.899C109.495 122.598 109.787 124.767 113.072 125.3C116.357 125.834 113.032 126.125 110.285 125.957C107.539 125.789 107.262 127.755 110.572 128.427C113.882 129.099 104.486 128.694 107.648 131.93C110.809 135.165 112.355 127.518 112.4 130.294C112.444 133.071 114.87 133.293 115.27 131.075C115.67 128.857 116.787 126.263 116.678 129.01C116.569 131.757 119.103 132.468 119.434 129.954C119.765 127.439 121.267 125.315 120.951 126.782C120.635 128.249 121.07 130.043 122.364 128.882C123.658 127.721 124.251 125.646 121.929 123.28Z" fill="white"/>
<path opacity="0.2" d="M136.873 109.166C139.165 111.567 142.593 112.471 144.283 111.725C145.972 110.979 143.932 110.199 142.109 110.105C140.286 110.011 143.171 109.319 146.244 109.655C149.316 109.991 149.06 107.818 145.75 107.249C142.44 106.681 145.794 106.424 148.541 106.622C151.288 106.82 151.584 104.858 148.279 104.152C144.974 103.446 154.37 103.945 151.243 100.694C148.116 97.4435 146.491 105.056 146.476 102.275C146.461 99.4936 144.05 99.2516 143.616 101.47C143.181 103.688 142.045 106.261 142.178 103.515C142.312 100.768 139.792 100.032 139.436 102.527C139.081 105.022 137.549 107.151 137.885 105.683C138.221 104.216 137.801 102.423 136.492 103.569C135.183 104.715 134.575 106.765 136.873 109.166Z" fill="white"/>
<path opacity="0.2" d="M163.06 112.194C160.743 109.818 157.304 108.949 155.625 109.724C153.945 110.5 155.995 111.241 157.818 111.32C159.641 111.399 156.766 112.115 153.683 111.814C150.601 111.513 150.892 113.681 154.177 114.215C157.463 114.748 154.138 115.04 151.396 114.872C148.654 114.704 148.368 116.665 151.683 117.342C154.997 118.019 145.597 117.609 148.753 120.844C151.91 124.08 153.461 116.428 153.506 119.209C153.55 121.99 155.976 122.208 156.376 119.985C156.776 117.762 157.892 115.178 157.789 117.925C157.685 120.671 160.209 121.383 160.54 118.868C160.871 116.354 162.378 114.23 162.057 115.697C161.736 117.164 162.18 118.957 163.47 117.796C164.759 116.635 165.381 114.57 163.06 112.194Z" fill="white"/>
<path opacity="0.2" d="M130.1 124.757C132.397 127.153 135.82 128.062 137.51 127.311C139.199 126.56 137.154 125.789 135.331 125.695C133.508 125.602 136.393 124.91 139.471 125.246C142.549 125.582 142.282 123.408 138.977 122.84C135.672 122.272 139.026 122.01 141.768 122.208C144.51 122.405 144.816 120.449 141.506 119.738C138.197 119.026 147.597 119.535 144.47 116.28C141.343 113.024 139.713 120.647 139.698 117.866C139.683 115.084 137.278 114.842 136.838 117.055C136.398 119.268 135.272 121.847 135.405 119.105C135.539 116.364 133.019 115.618 132.659 118.117C132.298 120.617 130.777 122.736 131.108 121.274C131.439 119.812 131.024 118.009 129.719 119.16C128.415 120.311 127.808 122.356 130.1 124.757Z" fill="white"/>
<path opacity="0.2" d="M114.786 140.051C112.464 137.675 109.031 136.805 107.351 137.581C105.671 138.357 107.722 139.098 109.544 139.177C111.367 139.256 108.492 139.972 105.41 139.671C102.327 139.369 102.619 141.538 105.904 142.067C109.189 142.595 105.864 142.896 103.118 142.728C100.371 142.561 100.094 144.522 103.404 145.198C106.714 145.875 97.318 145.47 100.48 148.706C103.641 151.942 105.187 144.29 105.232 147.071C105.276 149.852 107.702 150.069 108.097 147.846C108.492 145.623 109.619 143.04 109.51 145.786C109.401 148.533 111.935 149.244 112.266 146.73C112.597 144.215 114.099 142.086 113.783 143.553C113.467 145.021 113.902 146.819 115.196 145.658C116.49 144.497 117.108 142.442 114.786 140.051Z" fill="white"/>
<path opacity="0.2" d="M108.013 155.637C105.696 153.261 102.258 152.391 100.578 153.167C98.8988 153.942 100.949 154.688 102.772 154.762C104.595 154.836 101.72 155.558 98.6419 155.256C95.5643 154.955 95.8459 157.124 99.1359 157.657C102.426 158.191 99.1013 158.482 96.3547 158.314C93.608 158.146 93.3265 160.112 96.6412 160.784C99.9559 161.456 90.5551 161.051 93.7118 164.287C96.8684 167.522 98.4196 159.875 98.4641 162.652C98.5085 165.428 100.934 165.65 101.334 163.432C101.734 161.214 102.851 158.62 102.747 161.367C102.643 164.114 105.168 164.825 105.499 162.311C105.83 159.796 107.336 157.672 107.015 159.139C106.694 160.606 107.139 162.4 108.433 161.239C109.727 160.078 110.335 158.013 108.013 155.637Z" fill="white"/>
<path opacity="0.2" d="M122.957 141.523C125.249 143.924 128.677 144.828 130.367 144.082C132.056 143.336 130.011 142.556 128.188 142.462C126.365 142.368 129.25 141.676 132.328 142.012C135.405 142.348 135.139 140.174 131.834 139.606C128.529 139.038 131.883 138.781 134.625 138.979C137.367 139.177 137.673 137.215 134.363 136.509C131.053 135.803 140.454 136.302 137.327 133.051C134.2 129.8 132.57 137.413 132.555 134.632C132.54 131.851 130.134 131.609 129.695 133.827C129.255 136.045 128.124 138.618 128.262 135.872C128.4 133.125 125.876 132.389 125.516 134.884C125.155 137.378 123.633 139.508 123.964 138.04C124.295 136.573 123.88 134.78 122.576 135.926C121.272 137.072 120.66 139.122 122.957 141.523Z" fill="white"/>
<path opacity="0.2" d="M116.184 157.114C118.481 159.51 121.904 160.419 123.594 159.668C125.283 158.917 123.243 158.146 121.415 158.052C119.587 157.958 122.477 157.267 125.555 157.603C128.633 157.939 128.366 155.765 125.061 155.197C121.756 154.629 125.105 154.367 127.852 154.565C130.599 154.762 130.895 152.806 127.59 152.095C124.285 151.383 133.676 151.892 130.554 148.637C127.432 145.381 125.797 153.004 125.782 150.222C125.767 147.441 123.362 147.199 122.922 149.412C122.482 151.625 121.356 154.204 121.489 151.462C121.623 148.721 119.103 147.975 118.748 150.474C118.392 152.974 116.861 155.093 117.197 153.631C117.532 152.169 117.108 150.366 115.803 151.517C114.499 152.668 113.892 154.713 116.184 157.114Z" fill="white"/>
<path opacity="0.2" d="M149.227 145.154C146.911 142.778 143.472 141.908 141.793 142.684C140.113 143.46 142.163 144.206 143.986 144.28C145.809 144.354 142.934 145.075 139.851 144.774C136.769 144.472 137.06 146.641 140.345 147.174C143.63 147.708 140.311 147.999 137.564 147.832C134.818 147.664 134.536 149.625 137.851 150.302C141.165 150.978 131.765 150.568 134.921 153.804C138.078 157.04 139.629 149.388 139.674 152.169C139.718 154.95 142.144 155.167 142.544 152.949C142.944 150.731 144.06 148.138 143.957 150.884C143.853 153.631 146.377 154.342 146.708 151.828C147.039 149.314 148.546 147.189 148.225 148.656C147.904 150.124 148.348 151.917 149.642 150.756C150.937 149.595 151.549 147.53 149.227 145.154Z" fill="white"/>
<path opacity="0.2" d="M142.46 160.745C140.138 158.368 136.705 157.499 135.025 158.275C133.345 159.05 135.391 159.791 137.218 159.87C139.046 159.949 136.161 160.666 133.084 160.364C130.006 160.063 130.293 162.232 133.578 162.76C136.863 163.289 133.538 163.59 130.791 163.422C128.045 163.254 127.763 165.215 131.078 165.892C134.393 166.569 124.992 166.164 128.149 169.395C131.305 172.625 132.861 164.983 132.906 167.764C132.95 170.546 135.376 170.763 135.771 168.54C136.166 166.317 137.288 163.733 137.184 166.475C137.08 169.217 139.609 169.933 139.935 167.424C140.261 164.914 141.773 162.78 141.457 164.247C141.141 165.714 141.575 167.512 142.87 166.352C144.164 165.191 144.777 163.116 142.46 160.745Z" fill="white"/>
<path opacity="0.2" d="M157.398 146.626C159.695 149.027 163.119 149.936 164.808 149.185C166.498 148.434 164.458 147.664 162.63 147.57C160.802 147.476 163.692 146.784 166.769 147.115C169.847 147.446 169.58 145.278 166.275 144.714C162.971 144.151 166.32 143.884 169.067 144.082C171.813 144.28 172.11 142.319 168.805 141.612C165.5 140.906 174.891 141.41 171.769 138.154C168.647 134.899 167.012 142.516 166.997 139.74C166.982 136.964 164.576 136.717 164.136 138.93C163.697 141.143 162.57 143.721 162.704 140.98C162.837 138.238 160.318 137.492 159.962 139.992C159.606 142.491 158.075 144.611 158.411 143.148C158.747 141.686 158.322 139.883 157.018 141.034C155.714 142.185 155.116 144.225 157.398 146.626Z" fill="white"/>
<path opacity="0.2" d="M107.919 172.764C110.211 175.164 113.64 176.069 115.329 175.318C117.019 174.567 114.978 173.796 113.156 173.702C111.333 173.608 114.218 172.917 117.295 173.253C120.373 173.589 120.106 171.415 116.801 170.847C113.496 170.279 116.846 170.022 119.592 170.22C122.339 170.417 122.635 168.456 119.331 167.75C116.026 167.043 125.422 167.547 122.295 164.292C119.168 161.036 117.542 168.654 117.527 165.872C117.513 163.091 115.102 162.849 114.667 165.062C114.232 167.275 113.096 169.859 113.23 167.112C113.363 164.366 110.844 163.63 110.488 166.124C110.132 168.619 108.601 170.743 108.937 169.281C109.273 167.819 108.853 166.021 107.544 167.167C106.235 168.313 105.622 170.363 107.919 172.764Z" fill="white"/>
<path opacity="0.2" d="M150.63 162.202C152.923 164.603 156.351 165.507 158.04 164.761C159.73 164.015 157.69 163.234 155.867 163.141C154.044 163.047 156.929 162.355 160.007 162.691C163.084 163.027 162.817 160.853 159.513 160.285C156.208 159.717 159.557 159.46 162.304 159.658C165.05 159.855 165.347 157.894 162.042 157.188C158.737 156.481 168.133 156.98 165.006 153.73C161.879 150.479 160.254 158.092 160.239 155.311C160.224 152.529 157.813 152.287 157.378 154.505C156.944 156.723 155.808 159.297 155.941 156.551C156.074 153.804 153.555 153.093 153.199 155.563C152.844 158.033 151.312 160.226 151.658 158.744C152.004 157.262 151.574 155.484 150.265 156.63C148.956 157.776 148.333 159.816 150.63 162.202Z" fill="white"/>
<path opacity="0.2" d="M156.292 127.78C153.97 125.404 150.537 124.534 148.857 125.31C147.177 126.086 149.223 126.827 151.05 126.901C152.878 126.975 149.993 127.696 146.916 127.395C143.838 127.093 144.12 129.262 147.41 129.796C150.7 130.329 147.375 130.625 144.628 130.453C141.882 130.28 141.6 132.251 144.915 132.923C148.23 133.594 138.829 133.189 141.985 136.425C145.142 139.661 146.698 132.014 146.738 134.79C146.777 137.566 149.208 137.788 149.608 135.57C150.008 133.352 151.124 130.764 151.021 133.506C150.917 136.247 153.441 136.964 153.772 134.454C154.103 131.944 155.61 129.81 155.294 131.278C154.978 132.745 155.412 134.543 156.707 133.377C158.001 132.211 158.609 130.156 156.292 127.78Z" fill="white"/>
<path opacity="0.2" d="M157.69 86.0024C155.368 83.6263 151.935 82.7569 150.28 83.5324C148.625 84.308 150.645 85.049 152.473 85.1281C154.301 85.2071 151.421 85.9234 148.338 85.6221C145.256 85.3207 145.547 87.4894 148.832 88.0229C152.117 88.5564 148.793 88.8479 146.046 88.6799C143.299 88.5119 143.023 90.4731 146.333 91.1499C149.642 91.8267 140.247 91.4167 143.408 94.6524C146.57 97.8881 148.116 90.236 148.16 93.0172C148.205 95.7984 150.63 96.0158 151.026 93.7928C151.421 91.5698 152.547 88.9862 152.438 91.7328C152.33 94.4795 154.864 95.1908 155.195 92.6764C155.526 90.1619 157.028 88.0377 156.712 89.5049C156.395 90.9721 156.83 92.7653 158.124 91.6044C159.419 90.4435 160.007 88.3786 157.69 86.0024Z" fill="white"/>
<path opacity="0.2" d="M153.002 105.827C152.117 113.143 155.235 126.209 159.537 135.985C160.288 129.875 161.41 122.949 162.966 114.926L153.002 105.827Z" fill="black"/>
<path d="M149.386 92.9333C148.635 92.8839 147.869 92.8394 147.098 92.7999C138.77 92.3948 131.938 92.133 124.612 92.7999L122.695 92.9926C121.028 95.6413 120.103 98.6888 120.017 101.817C119.93 104.945 120.684 108.039 122.201 110.777L123.189 112.624L124.597 111.068C134.664 99.958 147.276 94.03 147.405 93.9559L149.381 92.9333H149.386Z" fill="white"/>
<path d="M144.87 67.4824C143.453 74.7146 142.04 87.9735 147.098 92.7999C147.098 92.7999 133.913 98.5599 123.5 110.065C118.412 100.625 124.611 92.7999 124.611 92.7999C132.683 90.8733 132.471 84.8959 131.068 79.2643L144.87 67.4824Z" fill="#FF8B7B"/>
<path opacity="0.2" d="M139.244 72.2939L131.073 79.2593C131.422 80.5667 131.655 81.9024 131.769 83.2508C134.852 82.8062 139.086 79.4224 139.412 76.1965C139.592 74.8962 139.535 73.574 139.244 72.2939Z" fill="black"/>
<path d="M152.503 54.2086C149.682 65.9757 148.733 71.0046 141.758 76.078C131.27 83.6905 117.725 77.6835 117.058 65.3187C116.446 54.1888 121.163 36.8149 133.419 34.1028C145.478 31.4303 155.328 42.4415 152.503 54.2086Z" fill="#FF8B7B"/>
<path d="M153.525 39.4133C141.778 49.4612 130.332 32.8628 123.5 41.0385C119.548 37.5212 130.683 28.4662 137.381 28.1352C144.08 27.8043 158.599 32.4182 153.525 39.4133Z" fill="#263238"/>
<path d="M151.712 38.455C139.417 42.9553 144.865 66.613 155.442 65.1754C166.019 63.7379 164.285 40.6483 151.712 38.455Z" fill="#263238"/>
<path d="M135.059 54.3371C134.892 55.3251 134.239 56.0019 133.607 55.8882C132.975 55.7746 132.619 54.9002 132.767 53.9122C132.916 52.9242 133.592 52.2474 134.225 52.3611C134.857 52.4747 135.232 53.3688 135.059 54.3371Z" fill="#263238"/>
<path d="M123.12 52.4005C122.952 53.3885 122.3 54.0604 121.667 53.9467C121.035 53.8331 120.679 52.9587 120.827 51.9708C120.976 50.9828 121.652 50.3109 122.285 50.4196C122.917 50.5283 123.292 51.4323 123.12 52.4005Z" fill="#263238"/>
<path d="M122.556 50.5579L120.348 49.4761C120.348 49.4761 121.223 51.4916 122.556 50.5579Z" fill="#263238"/>
<path d="M126.163 54.5742C126.163 54.5742 123.777 58.4521 121.613 60.1465C122.68 61.5643 124.952 61.4013 124.952 61.4013L126.163 54.5742Z" fill="#FF5652"/>
<path d="M129.887 65.9707C129.334 65.9675 128.782 65.918 128.237 65.8225C128.2 65.8159 128.164 65.802 128.132 65.7815C128.1 65.761 128.073 65.7344 128.051 65.7031C128.029 65.6719 128.014 65.6366 128.006 65.5994C127.998 65.5623 127.998 65.5239 128.005 65.4866C128.011 65.4493 128.024 65.4137 128.044 65.3817C128.064 65.3497 128.091 65.3221 128.122 65.3004C128.152 65.2788 128.187 65.2635 128.224 65.2556C128.261 65.2477 128.299 65.2473 128.336 65.2544C129.537 65.4937 130.777 65.4472 131.956 65.1185C133.135 64.7898 134.22 64.1882 135.124 63.3624C135.178 63.3084 135.252 63.2781 135.329 63.2781C135.406 63.2781 135.479 63.3084 135.534 63.3624C135.588 63.4169 135.618 63.4906 135.618 63.5674C135.618 63.6441 135.588 63.7178 135.534 63.7724C134.008 65.2106 131.984 65.9989 129.887 65.9707Z" fill="#263238"/>
<path d="M153.323 65.6497C152.552 66.4904 151.611 67.1577 150.562 67.6073C149.514 68.057 148.382 68.2788 147.242 68.258C144.357 68.1048 144.026 64.7703 145.76 62.0879C147.316 59.6722 150.7 56.8416 153.14 58.3088C155.58 59.776 155.412 63.4662 153.323 65.6497Z" fill="#FF8B7B"/>
<path d="M135.781 65.1012C135.698 64.1123 135.825 63.1171 136.154 62.1806C136.483 61.2442 137.005 60.3877 137.688 59.6672C137.224 59.7184 136.794 59.9319 136.472 60.2699C135.877 60.8901 135.42 61.6295 135.131 62.4393C134.843 63.2491 134.729 64.1109 134.798 64.9679C134.906 66.7166 136.107 68.2974 137.584 68.6531C137.057 68.2155 136.625 67.6746 136.315 67.0637C136.005 66.4529 135.823 65.785 135.781 65.1012Z" fill="#FF8B7B"/>
<path opacity="0.2" d="M135.781 65.1012C135.698 64.1123 135.825 63.1171 136.154 62.1806C136.483 61.2442 137.005 60.3877 137.688 59.6672C137.224 59.7184 136.794 59.9319 136.472 60.2699C135.877 60.8901 135.42 61.6295 135.131 62.4393C134.843 63.2491 134.729 64.1109 134.798 64.9679C134.906 66.7166 136.107 68.2974 137.584 68.6531C137.057 68.2155 136.625 67.6746 136.315 67.0637C136.005 66.4529 135.823 65.785 135.781 65.1012Z" fill="black"/>
<path d="M139.012 50.4295C138.937 50.4037 138.869 50.3633 138.81 50.3107C138.752 50.2581 138.704 50.1944 138.671 50.1233C138.389 49.4556 137.954 48.864 137.4 48.397C136.846 47.9299 136.19 47.6005 135.484 47.4359C135.409 47.4245 135.337 47.3985 135.272 47.3592C135.207 47.3199 135.15 47.2682 135.105 47.2069C135.059 47.1457 135.027 47.0761 135.008 47.0023C134.99 46.9284 134.986 46.8517 134.998 46.7764C135.009 46.7011 135.035 46.6289 135.075 46.5637C135.114 46.4985 135.166 46.4417 135.227 46.3965C135.288 46.3513 135.358 46.3187 135.431 46.3003C135.505 46.282 135.582 46.2785 135.657 46.2898C136.554 46.4831 137.391 46.8886 138.098 47.4722C138.806 48.0559 139.363 48.8006 139.723 49.6441C139.769 49.7466 139.785 49.8605 139.767 49.9716C139.75 50.0828 139.7 50.1864 139.624 50.2698C139.549 50.3532 139.451 50.4127 139.342 50.4411C139.233 50.4695 139.118 50.4655 139.012 50.4295Z" fill="#263238"/>
<path d="M119.212 47.016C119.063 47.0251 118.917 46.9774 118.802 46.8826C118.744 46.8341 118.696 46.7746 118.661 46.7076C118.627 46.6405 118.605 46.5672 118.599 46.4919C118.592 46.4166 118.601 46.3408 118.624 46.2688C118.647 46.1968 118.684 46.1301 118.733 46.0725C119.302 45.3534 120.036 44.7819 120.873 44.4061C121.709 44.0304 122.624 43.8615 123.54 43.9137C123.689 43.9346 123.824 44.0129 123.916 44.1319C124.008 44.251 124.05 44.4013 124.034 44.5509C124.011 44.7005 123.932 44.8356 123.812 44.9278C123.692 45.0199 123.542 45.0619 123.391 45.0449C122.666 45.0146 121.944 45.1574 121.286 45.4615C120.627 45.7656 120.05 46.2223 119.602 46.7937C119.556 46.8555 119.497 46.9072 119.43 46.9454C119.363 46.9837 119.289 47.0077 119.212 47.016Z" fill="#263238"/>
<path d="M134.496 52.4846L132.288 51.4027C132.288 51.4027 133.163 53.4281 134.496 52.4846Z" fill="#263238"/>
<path d="M144.841 167.73C144.533 166.445 143.942 165.246 143.11 164.22C142.278 163.194 141.227 162.368 140.034 161.802L134.57 159.238C133.774 158.863 132.899 158.686 132.019 158.724C131.14 158.762 130.283 159.013 129.522 159.455L127.052 160.888C126.374 161.284 125.833 161.877 125.499 162.588C125.166 163.299 125.056 164.095 125.184 164.87L125.945 169.459C126.107 170.42 126.623 171.285 127.393 171.882C128.163 172.48 129.129 172.766 130.1 172.685L132.357 172.492C132.357 172.492 140.326 172.709 145.201 169.355L144.841 167.73Z" fill="#FF8B7B"/>
<path d="M162.462 98.886L162.956 99.5628L163.405 100.17L164.265 101.361C164.833 102.151 165.361 102.952 165.895 103.752C166.957 105.347 167.95 106.973 168.918 108.623C169.887 110.273 170.8 111.937 171.68 113.637C172.559 115.336 173.409 117.05 174.194 118.804C177.494 125.916 179.82 133.439 181.11 141.172C181.239 142.16 181.407 143.148 181.496 144.171L181.649 145.683L181.673 145.964L181.698 146.458C181.717 146.787 181.717 147.117 181.698 147.446C181.698 147.772 181.659 148.108 181.619 148.434C181.58 148.76 181.515 149.052 181.456 149.358C181.219 150.433 180.842 151.473 180.335 152.45C179.926 153.232 179.446 153.974 178.902 154.668C178.031 155.757 177.047 156.75 175.968 157.632C174.237 159.026 172.376 160.251 170.41 161.288C168.592 162.246 166.799 163.057 165.011 163.803C163.222 164.548 161.434 165.176 159.651 165.779C157.868 166.381 156.074 166.91 154.286 167.404C152.498 167.898 150.695 168.337 148.892 168.752C147.988 168.95 147.083 169.133 146.175 169.316C145.266 169.498 144.366 169.637 143.398 169.81C142.4 169.992 141.369 169.806 140.497 169.286C139.626 168.766 138.972 167.947 138.658 166.982C138.343 166.017 138.39 164.971 138.788 164.037C139.187 163.104 139.91 162.346 140.825 161.906L140.983 161.831C147.182 158.749 153.58 155.637 159.211 152.189C160.619 151.334 161.968 150.445 163.188 149.536C164.303 148.757 165.341 147.872 166.285 146.893C166.565 146.611 166.797 146.286 166.972 145.93C167.076 145.737 166.873 145.796 166.695 146.424C166.669 146.509 166.649 146.597 166.636 146.685C166.636 146.784 166.601 146.893 166.596 146.997C166.592 147.1 166.596 147.214 166.596 147.328C166.596 147.441 166.596 147.441 166.596 147.496V147.54V147.466L166.384 146.325C166.256 145.564 166.058 144.798 165.89 144.038C164.313 137.768 162.029 131.697 159.083 125.942C157.63 122.978 156.005 120.074 154.321 117.208C153.471 115.776 152.587 114.368 151.702 112.97L150.349 110.91L149.677 109.922L149.064 109.038L148.857 108.741C148.208 107.849 147.742 106.838 147.484 105.766C147.226 104.694 147.181 103.581 147.353 102.491C147.701 100.291 148.908 98.319 150.709 97.0088C152.511 95.6986 154.759 95.1577 156.959 95.5052C158.049 95.6772 159.094 96.0621 160.034 96.6379C160.975 97.2138 161.793 97.9693 162.442 98.8613L162.462 98.886Z" fill="#FF8B7B"/>
<path d="M67.342 84.9996C67.204 84.9954 67.0697 85.0442 66.9667 85.1362C66.8637 85.2281 66.8 85.3561 66.7887 85.4936L66.5219 91.6489C66.5178 91.7437 66.491 91.8362 66.4437 91.9185C66.3964 92.0009 66.33 92.0706 66.2501 92.1219C66.1702 92.1732 66.0792 92.2046 65.9846 92.2134C65.8901 92.2222 65.7948 92.2082 65.7068 92.1725L64.7188 91.7625C64.6069 91.7154 64.512 91.6353 64.4467 91.533C64.3814 91.4306 64.3488 91.3108 64.3533 91.1894L64.625 84.8712C64.6346 84.798 64.6289 84.7235 64.6083 84.6526C64.5877 84.5817 64.5526 84.5158 64.5052 84.4592C64.4578 84.4026 64.3992 84.3564 64.333 84.3236C64.2668 84.2908 64.1946 84.2721 64.1208 84.2686C64.047 84.2652 63.9733 84.2771 63.9044 84.3037C63.8355 84.3302 63.7728 84.3707 63.7204 84.4227C63.6679 84.4747 63.6269 84.537 63.5997 84.6057C63.5726 84.6744 63.5601 84.748 63.5629 84.8218L63.2912 91.145C63.2856 91.2665 63.2428 91.3833 63.1685 91.4796C63.0943 91.5759 62.9923 91.6471 62.8762 91.6834L61.8536 92.0045C61.763 92.0331 61.6669 92.0395 61.5733 92.0231C61.4797 92.0067 61.3914 91.9681 61.3158 91.9105C61.2403 91.8529 61.1797 91.7779 61.1392 91.692C61.0987 91.606 61.0794 91.5116 61.083 91.4167L61.3498 85.2614C61.3527 85.1914 61.3418 85.1214 61.3176 85.0556C61.2935 84.9897 61.2567 84.9293 61.2092 84.8777C61.1617 84.8261 61.1045 84.7843 61.0409 84.7548C60.9773 84.7253 60.9085 84.7086 60.8385 84.7057C60.7684 84.7028 60.6984 84.7137 60.6326 84.7378C60.5667 84.7619 60.5063 84.7988 60.4547 84.8462C60.4031 84.8937 60.3613 84.9509 60.3318 85.0145C60.3023 85.0781 60.2856 85.1469 60.2827 85.217L59.9814 92.212C59.9527 92.9088 60.1163 93.6001 60.4544 94.21C60.7925 94.82 61.292 95.3251 61.8981 95.67C62.2015 95.844 62.448 96.1023 62.6076 96.4136C62.7671 96.7249 62.833 97.0758 62.7972 97.4237C62.402 101.326 61.4486 110.663 60.6977 116.966C59.7097 125.103 60.9644 126.57 62.2933 126.629C63.6221 126.688 64.9905 125.33 64.7188 117.139C64.5113 110.796 64.3631 101.41 64.3039 97.4879C64.2982 97.1381 64.3941 96.7942 64.58 96.4978C64.7659 96.2014 65.0338 95.9654 65.3511 95.8182C65.9849 95.5269 66.5262 95.0667 66.9157 94.4881C67.3052 93.9095 67.5279 93.2348 67.5593 92.5381L67.8607 85.543C67.862 85.4027 67.8086 85.2674 67.7117 85.1659C67.6149 85.0644 67.4822 85.0048 67.342 84.9996Z" fill="#263238"/>
<path d="M58.4994 78.054C56.6716 83.7646 65.1585 91.9749 72.1289 87.4054C66.9814 83.2607 58.4994 78.054 58.4994 78.054Z" fill="#FF8832"/>
<path opacity="0.5" d="M60.0802 79.042C59.0922 83.3793 65.2623 89.2431 70.4987 86.1408C66.8875 83.4139 62.4119 80.5191 60.0802 79.042Z" fill="white"/>
<path d="M219.282 168.258H27.7183V174.517H219.282V168.258Z" fill="#FF8832"/>
<path opacity="0.2" d="M219.282 171.035H27.7183V171.741H219.282V171.035Z" fill="black"/>
<path d="M211.595 176.963H35.405L30.465 174.517H216.535L211.595 176.963Z" fill="#FF8832"/>
<path opacity="0.5" d="M211.595 176.963H35.405L30.465 174.517H216.535L211.595 176.963Z" fill="white"/>
<path d="M61.4239 151.013C59.7147 149.427 54.6265 152.001 54.9327 148.77C55.239 145.539 51.8107 147.881 51.3364 144.719C50.8622 141.558 55.4613 142.476 53.515 140.026C51.5686 137.576 53.1198 134.375 56.1035 134.34C59.0873 134.306 58.2425 138.139 60.8113 136.4C63.637 134.489 65.9687 136.178 65.9786 138.727C65.9885 141.276 68.3449 139.839 69.2983 142.511C70.553 146.028 64.7979 146.409 65.9391 148.498C67.0802 150.588 64.2446 153.621 61.4239 151.013Z" fill="#FF8832"/>
<path opacity="0.4" d="M61.4239 151.013C59.7147 149.427 54.6265 152.001 54.9327 148.77C55.239 145.539 51.8107 147.881 51.3364 144.719C50.8622 141.558 55.4613 142.476 53.515 140.026C51.5686 137.576 53.1198 134.375 56.1035 134.34C59.0873 134.306 58.2425 138.139 60.8113 136.4C63.637 134.489 65.9687 136.178 65.9786 138.727C65.9885 141.276 68.3449 139.839 69.2983 142.511C70.553 146.028 64.7979 146.409 65.9391 148.498C67.0802 150.588 64.2446 153.621 61.4239 151.013Z" fill="white"/>
<path d="M61.1176 149.733C59.2058 147.298 55.4366 150.904 55.6836 148.172C55.9306 145.441 52.2256 147.086 52.5566 144.398C52.8876 141.711 56.9285 141.607 54.6956 140.165C52.4627 138.722 53.757 135.358 56.2912 135.328C58.8254 135.299 58.4105 138.821 60.589 137.349C62.98 135.728 64.956 137.161 64.9659 139.325C64.9757 141.488 67.1839 140.313 68.3695 142.427C70.4246 146.053 63.5086 145.475 65.2919 147.955C66.4824 149.585 63.5827 152.87 61.1176 149.733Z" fill="#FF8832"/>
<path opacity="0.4" d="M60.9348 148.992C59.3738 146.863 56.0591 149.832 56.3604 147.51C56.6617 145.189 53.4507 146.488 53.8015 144.206C54.1522 141.923 57.6003 141.948 55.7429 140.659C53.8855 139.369 55.076 136.534 57.2249 136.578C59.3738 136.623 58.9292 139.616 60.8311 138.421C62.9158 137.107 64.5608 138.386 64.5065 140.224C64.4521 142.062 66.3688 141.148 67.3223 142.961C68.9722 146.112 63.0936 145.431 64.546 147.589C65.5142 149.017 62.9504 151.739 60.9348 148.992Z" fill="white"/>
<path d="M52.1614 146.7C52.3985 151.146 56.5333 159.905 66.8184 156.867C66.2354 150.795 61.0484 146.814 52.1614 146.7Z" fill="#FF8832"/>
<path opacity="0.3" d="M52.1614 146.7C52.3985 151.146 56.5333 159.905 66.8184 156.867C66.2354 150.795 61.0484 146.814 52.1614 146.7Z" fill="black"/>
<path d="M53.5593 147.841C54.6689 148.836 55.8603 149.735 57.1211 150.529C58.3758 151.354 59.6602 152.144 60.9397 152.93C62.2192 153.715 63.5332 154.466 64.8275 155.227L68.6955 157.544C68.739 157.567 68.7719 157.606 68.7879 157.653C68.8039 157.7 68.8018 157.751 68.7819 157.796C68.7621 157.842 68.7259 157.878 68.6807 157.898C68.6354 157.918 68.5843 157.92 68.5374 157.904C67.0764 157.445 65.6675 156.834 64.3335 156.081C62.9997 155.35 61.7054 154.555 60.421 153.745C59.1366 152.934 57.8868 152.065 56.6666 151.156C56.054 150.702 55.4514 150.237 54.8734 149.728C54.2768 149.236 53.7307 148.684 53.2432 148.083C53.2124 148.042 53.1989 147.99 53.2053 147.938C53.2117 147.887 53.2377 147.84 53.2778 147.807C53.3148 147.777 53.361 147.76 53.4087 147.76C53.4564 147.76 53.5026 147.777 53.5396 147.807L53.5593 147.841Z" fill="#FF8832"/>
<path d="M56.884 151.038H56.8544C56.8289 151.034 56.8045 151.025 56.7825 151.012C56.7604 150.999 56.7412 150.981 56.7261 150.961C56.7109 150.94 56.7 150.916 56.694 150.891C56.6881 150.867 56.6872 150.841 56.6914 150.815C56.86 149.977 56.7722 149.108 56.4394 148.321C56.4148 148.275 56.4092 148.221 56.424 148.171C56.4388 148.121 56.4728 148.079 56.5185 148.054C56.541 148.041 56.566 148.033 56.5918 148.03C56.6176 148.027 56.6438 148.029 56.6687 148.036C56.6936 148.044 56.7168 148.056 56.7368 148.073C56.7568 148.089 56.7733 148.11 56.7852 148.133C57.1682 148.993 57.2718 149.952 57.0816 150.875C57.0725 150.92 57.0479 150.962 57.0119 150.991C56.9759 151.021 56.9307 151.037 56.884 151.038Z" fill="#FF8832"/>
<path d="M56.5481 154.466C56.4957 154.466 56.4454 154.445 56.4083 154.408C56.3713 154.371 56.3505 154.321 56.3505 154.268C56.3505 154.216 56.3713 154.166 56.4083 154.129C56.4454 154.091 56.4957 154.071 56.5481 154.071C56.5481 154.071 58.9291 153.853 59.6109 152.658C59.6227 152.633 59.6394 152.611 59.66 152.594C59.6807 152.576 59.7048 152.562 59.7308 152.554C59.7568 152.546 59.7843 152.544 59.8113 152.547C59.8384 152.55 59.8646 152.559 59.8881 152.572C59.9117 152.586 59.9322 152.604 59.9483 152.626C59.9645 152.648 59.9759 152.673 59.9818 152.7C59.9878 152.727 59.9882 152.754 59.983 152.781C59.9778 152.808 59.9672 152.833 59.9517 152.855C59.1663 154.229 56.6864 154.456 56.5826 154.466H56.5481Z" fill="#FF8832"/>
<path d="M62.402 154.579C62.37 154.577 62.339 154.567 62.3119 154.55C62.2847 154.533 62.2623 154.509 62.2466 154.482C62.2309 154.454 62.2224 154.422 62.222 154.39C62.2215 154.358 62.229 154.326 62.2439 154.298C63.0491 152.791 61.7499 150.746 61.7499 150.721C61.7354 150.7 61.7254 150.675 61.7206 150.65C61.7157 150.624 61.7161 150.598 61.7216 150.573C61.7271 150.547 61.7377 150.523 61.7528 150.502C61.7678 150.481 61.787 150.463 61.8092 150.45C61.8531 150.422 61.9063 150.412 61.9572 150.423C62.0081 150.434 62.0525 150.465 62.0809 150.509C62.1402 150.603 63.5234 152.771 62.6095 154.461C62.594 154.502 62.5649 154.536 62.527 154.557C62.4892 154.579 62.445 154.587 62.402 154.579Z" fill="#FF8832"/>
<path d="M62.7774 156.639C62.7266 156.639 62.6778 156.62 62.641 156.585C62.6043 156.55 62.5823 156.502 62.5798 156.452C62.5784 156.4 62.5971 156.349 62.6321 156.31C62.667 156.272 62.7155 156.248 62.7675 156.244C63.4008 156.159 64.0004 155.908 64.5064 155.518C64.5275 155.503 64.5514 155.492 64.5767 155.486C64.602 155.48 64.6282 155.479 64.6539 155.483C64.6796 155.487 64.7042 155.496 64.7264 155.51C64.7485 155.524 64.7678 155.541 64.783 155.563C64.7983 155.584 64.8092 155.607 64.8152 155.633C64.8212 155.658 64.8222 155.684 64.8181 155.71C64.814 155.736 64.8048 155.76 64.7912 155.783C64.7775 155.805 64.7597 155.824 64.7386 155.839C64.1635 156.278 63.4811 156.555 62.7626 156.639H62.7774Z" fill="#FF8832"/>
<path d="M81.8162 139.374C75.7301 139.666 63.6963 145.277 67.7866 159.391C76.1055 158.625 81.5988 151.546 81.8162 139.374Z" fill="#FF8832"/>
<path opacity="0.3" d="M81.8162 139.374C75.7301 139.666 63.6963 145.277 67.7866 159.391C76.1055 158.625 81.5988 151.546 81.8162 139.374Z" fill="black"/>
<path d="M80.2453 141.281C78.8785 142.791 77.6486 144.419 76.57 146.147C75.4288 147.861 74.3272 149.605 73.2454 151.364C72.1635 153.122 71.1261 154.901 70.0739 156.674L66.8727 161.95C66.854 161.981 66.8294 162.007 66.8004 162.028C66.7714 162.049 66.7384 162.064 66.7035 162.073C66.6686 162.081 66.6324 162.082 66.5971 162.076C66.5617 162.071 66.5278 162.058 66.4973 162.039C66.4462 162.008 66.4068 161.962 66.3853 161.906C66.3638 161.851 66.3615 161.79 66.3787 161.733C67.0178 159.734 67.8656 157.808 68.908 155.987C69.896 154.165 71.0125 152.396 72.1289 150.642C73.2453 148.889 74.4408 147.184 75.6956 145.51C76.323 144.675 76.9701 143.855 77.6716 143.069C78.3536 142.257 79.113 141.512 79.9391 140.846C79.9669 140.825 79.9987 140.809 80.0327 140.8C80.0667 140.791 80.1022 140.788 80.1371 140.793C80.172 140.797 80.2056 140.809 80.2361 140.827C80.2665 140.844 80.2932 140.868 80.3145 140.896C80.3573 140.945 80.3808 141.008 80.3808 141.074C80.3808 141.139 80.3573 141.202 80.3145 141.251L80.2453 141.281Z" fill="#FF8832"/>
<path d="M77.3702 146.196C76.9331 146.194 76.4969 146.156 76.0661 146.083C76.0314 146.077 75.9981 146.064 75.9683 146.045C75.9385 146.027 75.9126 146.002 75.8922 145.974C75.8718 145.945 75.8572 145.913 75.8493 145.878C75.8415 145.844 75.8404 145.809 75.8462 145.774C75.8521 145.739 75.8647 145.706 75.8834 145.676C75.902 145.646 75.9264 145.62 75.9551 145.6C75.9838 145.58 76.0162 145.565 76.0505 145.557C76.0848 145.549 76.1203 145.548 76.155 145.554C77.3017 145.793 78.4939 145.678 79.5735 145.223C79.6059 145.206 79.6413 145.196 79.6778 145.193C79.7142 145.19 79.7509 145.194 79.7857 145.205C79.8206 145.216 79.853 145.233 79.881 145.257C79.9089 145.28 79.932 145.309 79.9489 145.342C79.9658 145.374 79.9761 145.409 79.9793 145.446C79.9824 145.482 79.9784 145.519 79.9674 145.554C79.9564 145.589 79.9386 145.621 79.9151 145.649C79.8916 145.677 79.8628 145.7 79.8304 145.717C79.0572 146.061 78.216 146.225 77.3702 146.196Z" fill="#FF8832"/>
<path d="M73.4676 150.015C73.4204 150.014 73.3743 150 73.3342 149.975C71.457 148.898 71.1606 145.495 71.1458 145.351C71.1403 145.28 71.1632 145.21 71.2094 145.155C71.2557 145.1 71.3216 145.066 71.3928 145.06C71.4641 145.055 71.5347 145.077 71.5893 145.124C71.6439 145.17 71.678 145.236 71.6843 145.307C71.6843 145.342 71.9708 148.572 73.601 149.511C73.6316 149.528 73.6584 149.552 73.68 149.58C73.7015 149.607 73.7173 149.639 73.7265 149.673C73.7357 149.707 73.7381 149.743 73.7335 149.777C73.7289 149.812 73.7175 149.846 73.6998 149.876C73.6773 149.918 73.6439 149.954 73.6029 149.978C73.562 150.002 73.5152 150.015 73.4676 150.015Z" fill="#FF8832"/>
<path d="M72.9094 154.021C72.2765 154.031 71.6514 153.882 71.0915 153.587C71.0595 153.57 71.0312 153.548 71.0083 153.521C70.9854 153.493 70.9683 153.462 70.9581 153.427C70.9479 153.393 70.9449 153.357 70.9491 153.322C70.9534 153.286 70.9648 153.252 70.9828 153.221C70.9993 153.19 71.022 153.162 71.0495 153.139C71.077 153.117 71.1086 153.1 71.1427 153.09C71.1767 153.08 71.2125 153.076 71.2478 153.08C71.2831 153.084 71.3173 153.095 71.3483 153.112C73.4083 154.224 76.2192 152.455 76.2439 152.436C76.274 152.416 76.3077 152.403 76.3429 152.397C76.3781 152.391 76.4141 152.392 76.449 152.4C76.4839 152.407 76.5169 152.422 76.5461 152.443C76.5753 152.463 76.6002 152.489 76.6193 152.52C76.6384 152.549 76.6513 152.583 76.6574 152.617C76.6635 152.652 76.6626 152.688 76.6548 152.722C76.647 152.757 76.6324 152.789 76.6119 152.818C76.5914 152.847 76.5654 152.871 76.5353 152.89C75.4415 153.567 74.1941 153.956 72.9094 154.021Z" fill="#FF8832"/>
<path d="M69.4317 156.659C69.3889 156.659 69.3468 156.649 69.3089 156.629C69.271 156.61 69.2385 156.581 69.2143 156.546C68.6202 155.766 68.245 154.841 68.1275 153.868C68.1248 153.797 68.1502 153.727 68.1983 153.675C68.2464 153.622 68.3132 153.59 68.3844 153.586C68.4196 153.584 68.455 153.588 68.4884 153.6C68.5218 153.611 68.5526 153.629 68.5789 153.652C68.6052 153.676 68.6265 153.705 68.6414 153.737C68.6564 153.768 68.6647 153.803 68.666 153.838C68.7825 154.708 69.123 155.531 69.654 156.229C69.675 156.258 69.6901 156.29 69.6985 156.324C69.7069 156.359 69.7084 156.395 69.7029 156.429C69.6974 156.464 69.685 156.498 69.6664 156.528C69.6478 156.558 69.6234 156.584 69.5947 156.605C69.5475 156.64 69.4904 156.659 69.4317 156.659Z" fill="#FF8832"/>
<path d="M61.2559 147.609C66.1959 152.302 78.7533 147.708 77.5579 138.332C70.7555 141.533 61.2559 147.609 61.2559 147.609Z" fill="#FF8832"/>
<path opacity="0.2" d="M63.0343 146.488C66.9863 149.649 76.0067 146.251 75.4337 139.374C70.8691 141.706 65.7019 144.838 63.0343 146.488Z" fill="white"/>
<path d="M74.2086 165.28C69.5601 170.22 56.7408 166.357 57.4126 156.926C64.3731 159.732 74.2086 165.28 74.2086 165.28Z" fill="#FF8832"/>
<path opacity="0.2" d="M72.3611 164.257C68.6067 167.636 59.3936 164.751 59.5813 157.835C64.2743 159.92 69.6095 162.76 72.3611 164.257Z" fill="white"/>
<path d="M86.7859 145.93C85.3335 147.051 87.0329 150.894 84.3949 150.44C81.7569 149.985 83.4069 152.623 80.7393 152.732C78.0717 152.841 79.2326 149.605 77.0639 150.84C74.8953 152.075 72.3561 150.716 72.5735 148.567C72.7908 146.419 75.8981 147.303 74.673 145.332C73.3293 143.158 74.92 141.607 77.0244 141.78C79.1289 141.953 78.1458 140.16 80.433 139.671C83.4464 139.018 83.2834 143.188 85.1063 142.521C86.9291 141.854 89.1818 144.092 86.7859 145.93Z" fill="#FF8832"/>
<path opacity="0.4" d="M86.7859 145.93C85.3335 147.051 87.0329 150.894 84.3949 150.44C81.7569 149.985 83.4069 152.623 80.7393 152.732C78.0717 152.841 79.2326 149.605 77.0639 150.84C74.8953 152.075 72.3561 150.716 72.5735 148.567C72.7908 146.419 75.8981 147.303 74.673 145.332C73.3293 143.158 74.92 141.607 77.0244 141.78C79.1289 141.953 78.1458 140.16 80.433 139.671C83.4464 139.018 83.2834 143.188 85.1063 142.521C86.9291 141.854 89.1818 144.092 86.7859 145.93Z" fill="white"/>
<path d="M85.704 146.063C83.5304 147.258 86.198 150.232 83.9602 149.847C81.7224 149.462 82.7746 152.248 80.5763 151.823C78.378 151.398 78.6299 148.479 77.2566 149.98C75.8833 151.482 73.2009 150.306 73.3836 148.498C73.5664 146.69 76.4514 147.229 75.414 145.534C74.2778 143.692 75.6264 142.378 77.39 142.526C79.1536 142.674 78.4076 141.004 80.2404 140.303C83.4118 139.088 82.3596 144.018 84.5579 142.916C86.03 142.19 88.505 144.512 85.704 146.063Z" fill="#FF8832"/>
<path opacity="0.4" d="M85.0766 146.137C83.1845 147.125 85.3631 149.704 83.4661 149.323C81.5692 148.943 82.3793 151.339 80.5021 150.924C78.6249 150.509 78.9509 148.024 77.7258 149.269C76.5007 150.514 74.2678 149.452 74.4753 147.901C74.6828 146.349 77.133 146.913 76.3031 145.431C75.3892 143.835 76.5847 142.748 78.1013 142.916C79.6178 143.084 79.0152 141.647 80.6009 141.088C83.3426 140.13 82.2854 144.309 84.1972 143.42C85.4619 142.847 87.512 144.912 85.0766 146.137Z" fill="white"/>
<path d="M68.33 159.93C70.1578 158.517 68.6659 154.026 71.6743 154.421C74.6828 154.817 73.1069 151.759 76.2043 151.457C79.3017 151.156 77.5678 155.103 80.265 153.522C82.9622 151.942 85.699 153.404 85.205 155.992C84.711 158.581 81.1888 157.687 82.3645 159.974C83.6538 162.488 81.6136 164.42 79.1881 164.341C76.7625 164.262 77.7061 166.317 74.9693 167.053C71.3878 167.997 72.0992 163.017 69.9009 163.916C67.7026 164.815 65.3215 162.261 68.33 159.93Z" fill="#FF8832"/>
<path opacity="0.4" d="M68.33 159.93C70.1578 158.517 68.6659 154.026 71.6743 154.421C74.6828 154.817 73.1069 151.759 76.2043 151.457C79.3017 151.156 77.5678 155.103 80.265 153.522C82.9622 151.942 85.699 153.404 85.205 155.992C84.711 158.581 81.1888 157.687 82.3645 159.974C83.6538 162.488 81.6136 164.42 79.1881 164.341C76.7625 164.262 77.7061 166.317 74.9693 167.053C71.3878 167.997 72.0992 163.017 69.9009 163.916C67.7026 164.815 65.3215 162.261 68.33 159.93Z" fill="white"/>
<path d="M69.6095 159.732C72.282 158.176 69.5551 154.792 72.1042 155.118C74.6532 155.444 73.7788 152.189 76.2784 152.569C78.7781 152.949 78.1211 156.447 79.9093 154.58C81.6976 152.712 84.6567 153.962 84.217 156.145C83.7774 158.329 80.4923 157.835 81.4852 159.771C82.5819 161.901 80.8479 163.546 78.7978 163.472C76.7477 163.397 77.4245 165.344 75.2114 166.282C71.373 167.913 73.2354 161.97 70.5233 163.412C68.7449 164.351 66.1613 161.708 69.6095 159.732Z" fill="#FF8832"/>
<path opacity="0.4" d="M70.3454 159.589C72.6672 158.329 70.459 155.35 72.6129 155.701C74.7667 156.052 74.1245 153.231 76.2339 153.621C78.3433 154.011 77.6714 156.99 79.2473 155.434C80.8232 153.878 83.2932 155.024 82.8486 156.886C82.404 158.749 79.6376 158.24 80.423 159.925C81.2826 161.777 79.7611 163.141 78.0222 163.027C76.2833 162.913 76.7971 164.593 74.8902 165.344C71.5854 166.643 73.3341 161.599 71.0024 162.765C69.4661 163.536 67.3567 161.214 70.3454 159.589Z" fill="white"/>
<path opacity="0.3" d="M51.3018 145.599V149.101C51.3161 154.177 53.3391 159.042 56.9286 162.631C60.5182 166.221 65.3827 168.244 70.4591 168.258C75.5355 168.244 80.3999 166.221 83.9895 162.631C87.5791 159.042 89.6021 154.177 89.6164 149.101V145.599H51.3018Z" fill="#FF8832"/>
<path opacity="0.5" d="M90.0858 145.599H50.8325C50.5394 145.597 50.2587 145.48 50.0515 145.273C49.8442 145.066 49.7273 144.785 49.726 144.492C49.7273 144.199 49.8442 143.918 50.0515 143.711C50.2587 143.504 50.5394 143.387 50.8325 143.385H90.0858C90.3788 143.387 90.6595 143.504 90.8668 143.711C91.074 143.918 91.191 144.199 91.1923 144.492C91.191 144.785 91.074 145.066 90.8668 145.273C90.6595 145.48 90.3788 145.597 90.0858 145.599Z" fill="#FF8832"/>
<path opacity="0.3" d="M70.992 164.349C73.0885 161.934 71.2177 156.877 66.8134 153.052C62.4091 149.228 57.1392 148.084 55.0427 150.499C52.9461 152.913 54.817 157.971 59.2212 161.795C63.6255 165.62 68.8955 166.763 70.992 164.349Z" fill="white"/>
<path opacity="0.3" d="M75.6758 157.756C74.1938 158.403 72.3413 157.43 71.5311 155.577C70.721 153.725 71.2594 151.704 72.7414 151.057C74.2234 150.41 76.0759 151.383 76.8861 153.231C77.6962 155.078 77.1528 157.084 75.6758 157.756Z" fill="white"/>
<path opacity="0.3" d="M207.643 148.301H189.311L191.178 167.102C191.209 167.419 191.356 167.713 191.592 167.927C191.827 168.14 192.134 168.259 192.452 168.258H204.516C204.834 168.259 205.141 168.14 205.376 167.927C205.612 167.713 205.76 167.419 205.79 167.102L207.643 148.301Z" fill="#FF8832"/>
<path opacity="0.3" d="M192.863 164.129L191.494 150.297C191.494 150.297 195.115 152.421 198.623 151.388C200.852 150.754 203.149 150.387 205.464 150.297L204.091 164.129C204.032 164.719 203.756 165.266 203.316 165.665C202.876 166.063 202.303 166.283 201.71 166.282H195.244C194.651 166.282 194.079 166.061 193.639 165.663C193.199 165.265 192.922 164.719 192.863 164.129Z" fill="#FF8832"/>
<path opacity="0.5" d="M198.331 151.368C196.104 150.734 193.808 150.367 191.494 150.277C191.494 150.277 195.016 152.337 198.479 151.403L198.331 151.368Z" fill="#FF8832"/>
<path opacity="0.3" d="M207.86 148.795H189.088C188.907 148.794 188.732 148.724 188.6 148.599C188.468 148.474 188.388 148.304 188.377 148.123L187.918 139.759C187.912 139.663 187.927 139.567 187.96 139.476C187.993 139.386 188.044 139.303 188.11 139.232C188.176 139.162 188.255 139.106 188.344 139.068C188.432 139.029 188.528 139.009 188.624 139.009H208.32C208.416 139.009 208.512 139.029 208.601 139.068C208.689 139.106 208.769 139.162 208.836 139.232C208.902 139.302 208.954 139.385 208.987 139.476C209.021 139.566 209.036 139.663 209.031 139.759L208.567 148.123C208.557 148.304 208.478 148.474 208.347 148.599C208.216 148.724 208.042 148.794 207.86 148.795Z" fill="#FF8832"/>
</svg>
