<svg width="99" height="120" viewBox="0 0 99 120" fill="none" xmlns="http://www.w3.org/2000/svg">
<path d="M88.7439 119.565H9.8931C7.5391 119.565 5.28073 118.632 3.61284 116.969C1.94589 115.307 1.00679 113.051 1 110.696V16.0593C1.00663 13.7053 1.94671 11.4498 3.61356 9.78677C5.28051 8.12455 7.53888 7.19116 9.89286 7.19116H26.1786C26.5065 7.19116 26.8201 7.32194 27.0514 7.55317C27.2835 7.7844 27.4134 8.09903 27.4134 8.42599V11.9457C27.4143 12.7815 28.0919 13.4591 28.9278 13.4591H68.2683C69.1041 13.4582 69.7807 12.7806 69.7817 11.9457V8.42599C69.7817 7.74461 70.3342 7.19119 71.0165 7.19119H88.7445C91.0985 7.19119 93.3568 8.12465 95.0238 9.7868C96.6907 11.45 97.6308 13.7053 97.6373 16.0593V110.696C97.6307 113.051 96.6916 115.307 95.0245 116.969C93.3566 118.632 91.0982 119.565 88.7442 119.565L88.7439 119.565ZM9.8931 9.66135C8.19299 9.65945 6.56216 10.3313 5.35861 11.5311C4.15413 12.7308 3.4756 14.3589 3.47087 16.059V110.696C3.47466 112.396 4.15413 114.025 5.35766 115.225C6.56214 116.425 8.19321 117.098 9.89312 117.096H88.7439C90.4441 117.098 92.0749 116.425 93.2794 115.225C94.4829 114.025 95.1624 112.396 95.1662 110.696V16.059C95.1615 14.3589 94.4829 12.7308 93.2785 11.5311C92.0749 10.3313 90.4439 9.65945 88.744 9.66135H72.2509V11.9452C72.2499 13.0009 71.8301 14.014 71.0833 14.7606C70.3366 15.5073 69.3245 15.9272 68.2679 15.9291H28.9274C27.8708 15.9282 26.8577 15.5083 26.111 14.7606C25.3643 14.0139 24.9445 13.0008 24.9435 11.9452V9.66135H9.8931Z" fill="#2D5BFF" stroke="#2D5BFF" stroke-width="0.840325"/>
<path d="M24.1557 46.2022C21.035 46.2022 18.0423 44.9626 15.8351 42.7555C13.6289 40.5493 12.3894 37.5555 12.3894 34.4349C12.3894 31.3143 13.629 28.3216 15.8351 26.1154C18.0422 23.9082 21.035 22.6687 24.1557 22.6687C27.2763 22.6687 30.269 23.9083 32.4762 26.1154C34.6824 28.3215 35.9219 31.3143 35.9219 34.4349C35.9191 37.5546 34.6786 40.5456 32.4723 42.7516C30.2661 44.9576 27.2753 46.1983 24.1557 46.2022ZM24.1557 25.1394C21.6898 25.1394 19.3254 26.1183 17.5826 27.8621C15.8389 29.6058 14.8589 31.9703 14.8589 34.4352C14.8589 36.901 15.8388 39.2654 17.5826 41.0092C19.3253 42.753 21.6898 43.732 24.1557 43.732C26.6215 43.732 28.9859 42.753 30.7297 41.0092C32.4725 39.2655 33.4524 36.901 33.4524 34.4352C33.4487 31.9713 32.4688 29.6086 30.7261 27.867C28.9833 26.1242 26.6207 25.1442 24.1559 25.1416L24.1557 25.1394Z" fill="#2D5BFF" stroke="#2D5BFF" stroke-width="0.840325"/>
<path d="M22.7 38.337C22.3721 38.337 22.0584 38.2072 21.8262 37.975L19.4087 35.5594H19.4097C19.1784 35.3273 19.0476 35.0136 19.0486 34.6857C19.0486 34.3578 19.1794 34.0432 19.4106 33.8119C19.8939 33.3296 20.6757 33.3305 21.1581 33.8129L22.7019 35.3557L27.1558 30.9017C27.6401 30.4345 28.4105 30.4412 28.8872 30.9169C29.3639 31.3936 29.3705 32.164 28.9024 32.6483L23.5755 37.9751C23.3433 38.2082 23.0287 38.339 22.6999 38.3371L22.7 38.337Z" fill="#2D5BFF" stroke="#2D5BFF" stroke-width="0.840325"/>
<path d="M85.0126 30.9667H44.7138C44.0315 30.9667 43.479 30.4142 43.479 29.7319C43.479 29.0496 44.0315 28.4971 44.7138 28.4971H85.0126C85.694 28.4971 86.2474 29.0496 86.2474 29.7319C86.2474 30.4142 85.694 30.9667 85.0126 30.9667Z" fill="#2D5BFF" stroke="#2D5BFF" stroke-width="0.840325"/>
<path d="M85.0126 40.3798H44.7138C44.0315 40.3798 43.479 39.8273 43.479 39.145C43.479 38.4626 44.0315 37.9102 44.7138 37.9102H85.0126C85.694 37.9102 86.2474 38.4626 86.2474 39.145C86.2474 39.8273 85.694 40.3798 85.0126 40.3798Z" fill="#2D5BFF" stroke="#2D5BFF" stroke-width="0.840325"/>
<path d="M24.1557 77.9881C21.035 77.9881 18.0423 76.7485 15.8351 74.5414C13.6289 72.3343 12.3894 69.3414 12.3894 66.2208C12.3894 63.1002 13.629 60.1075 15.8361 57.9003C18.0432 55.6941 21.036 54.4546 24.1566 54.4546C27.2772 54.4546 30.27 55.6951 32.4772 57.9022C34.6834 60.1084 35.9229 63.1022 35.9219 66.2228C35.9191 69.3424 34.6786 72.3335 32.4723 74.5385C30.2661 76.7447 27.2753 77.9851 24.1557 77.9881ZM24.1557 56.9262C21.6898 56.9262 19.3254 57.9061 17.5826 59.649C15.8389 61.3927 14.8589 63.7572 14.8589 66.223C14.8589 68.6879 15.8388 71.0532 17.5826 72.7961C19.3253 74.5398 21.6898 75.5188 24.1557 75.5188C26.6215 75.5188 28.9859 74.5399 30.7297 72.7961C32.4725 71.0533 33.4524 68.6879 33.4524 66.223C33.4496 63.7582 32.4697 61.3947 30.727 59.6519C28.9843 57.9091 26.6207 56.9291 24.1559 56.9265L24.1557 56.9262Z" fill="#2D5BFF" stroke="#2D5BFF" stroke-width="0.840325"/>
<path d="M22.7 70.1205C22.3721 70.1205 22.0585 69.9897 21.8263 69.7584L19.4088 67.3428H19.4097C18.9264 66.8595 18.9264 66.0767 19.4088 65.5935C19.8921 65.1101 20.6749 65.1092 21.1582 65.5925L22.7019 67.1353L27.1559 62.6814C27.6401 62.2132 28.4106 62.2199 28.8873 62.6965C29.3639 63.1732 29.3706 63.9437 28.9024 64.4279L23.5756 69.7548C23.3444 69.9888 23.0288 70.1205 22.6999 70.1205L22.7 70.1205Z" fill="#2D5BFF" stroke="#2D5BFF" stroke-width="0.840325"/>
<path d="M85.0126 62.7526H44.7138C44.0315 62.7526 43.479 62.1991 43.479 61.5168C43.479 60.8344 44.0315 60.282 44.7138 60.282H85.0126C85.694 60.282 86.2474 60.8345 86.2474 61.5168C86.2474 62.1991 85.694 62.7526 85.0126 62.7526Z" fill="#2D5BFF" stroke="#2D5BFF" stroke-width="0.840325"/>
<path d="M85.0126 72.1655H44.7138C44.0315 72.1655 43.479 71.613 43.479 70.9307C43.479 70.2484 44.0315 69.6959 44.7138 69.6959H85.0126C85.694 69.6959 86.2474 70.2484 86.2474 70.9307C86.2474 71.613 85.694 72.1655 85.0126 72.1655Z" fill="#2D5BFF" stroke="#2D5BFF" stroke-width="0.840325"/>
<path d="M24.1557 109.774C21.035 109.774 18.0423 108.534 15.8351 106.327C13.6289 104.121 12.3894 101.127 12.3894 98.0067C12.3894 94.8861 13.629 91.8934 15.8351 89.6871C18.0422 87.48 21.035 86.2405 24.1557 86.2405C27.2763 86.2405 30.269 87.48 32.4762 89.6871C34.6824 91.8933 35.9219 94.8861 35.9219 98.0067C35.9191 101.126 34.6786 104.118 32.4723 106.323C30.2661 108.53 27.2753 109.77 24.1557 109.774ZM24.1557 88.7111C21.6898 88.7111 19.3254 89.6901 17.5826 91.4339C15.8389 93.1776 14.8589 95.5421 14.8589 98.007C14.8589 100.473 15.8388 102.837 17.5826 104.581C19.3253 106.325 21.6898 107.304 24.1557 107.304C26.6215 107.304 28.9859 106.325 30.7297 104.581C32.4725 102.837 33.4524 100.473 33.4524 98.007C33.4496 95.5431 32.4697 93.1797 30.727 91.4368C28.9843 89.694 26.6207 88.7131 24.1559 88.7114L24.1557 88.7111Z" fill="#2D5BFF" stroke="#2D5BFF" stroke-width="0.840325"/>
<path d="M22.7 101.904C22.3721 101.904 22.0584 101.774 21.8262 101.542L19.4087 99.1243L19.4097 99.1252C18.9425 98.64 18.9501 97.8696 19.4268 97.3938C19.9044 96.9181 20.6748 96.9124 21.1581 97.3815L22.7019 98.9253L27.1558 94.4704C27.6401 93.9889 28.4229 93.9908 28.9043 94.4742C29.3857 94.9584 29.3838 95.7412 28.8995 96.2226L23.5727 101.55V101.551C23.3396 101.78 23.0259 101.907 22.6999 101.904L22.7 101.904Z" fill="#2D5BFF" stroke="#2D5BFF" stroke-width="0.840325"/>
<path d="M85.0126 94.536H44.7138C44.0315 94.536 43.479 93.9826 43.479 93.3002C43.479 92.6189 44.0315 92.0654 44.7138 92.0654H85.0126C85.694 92.0654 86.2474 92.6189 86.2474 93.3002C86.2474 93.9825 85.694 94.536 85.0126 94.536Z" fill="#2D5BFF" stroke="#2D5BFF" stroke-width="0.840325"/>
<path d="M85.0126 103.952H44.7138C44.0315 103.952 43.479 103.398 43.479 102.716C43.479 102.033 44.0315 101.481 44.7138 101.481H85.0126C85.694 101.481 86.2474 102.033 86.2474 102.716C86.2474 103.398 85.694 103.952 85.0126 103.952Z" fill="#2D5BFF" stroke="#2D5BFF" stroke-width="0.840325"/>
<path d="M68.2683 15.9293H28.9278C27.8711 15.9283 26.8581 15.5085 26.1114 14.7608C25.3646 14.0141 24.9448 13.001 24.9438 11.9454V4.98391C24.9448 3.92819 25.3646 2.91516 26.1114 2.16753C26.8581 1.42077 27.8712 1.00095 28.9278 1H68.2683C69.3249 1.00095 70.337 1.42172 71.0837 2.16847C71.8303 2.91523 72.2503 3.92829 72.2512 4.98388V11.9454C72.2503 13.0011 71.8304 14.0141 71.0837 14.7608C70.3369 15.5074 69.3248 15.9274 68.2683 15.9293V15.9293ZM28.9278 3.46943C28.0919 3.47038 27.4143 4.14797 27.4134 4.98381V11.9453C27.4143 12.7811 28.0919 13.4587 28.9278 13.4587H68.2683C69.1041 13.4578 69.7807 12.7802 69.7817 11.9453V4.98381C69.7807 4.14891 69.1041 3.47132 68.2683 3.46943H28.9278Z" fill="#2D5BFF" stroke="#2D5BFF" stroke-width="0.840325"/>
</svg>
