<svg width="87" height="87" viewBox="0 0 87 87" fill="none" xmlns="http://www.w3.org/2000/svg">
<path d="M0 5.96934V31.3384C0 32.5261 0.471544 33.6649 1.31057 34.504C2.15061 35.344 3.28943 35.8156 4.47614 35.8156H29.8463V26.8612H16.1316C20.8556 18.1514 29.1249 11.9183 38.7993 9.77498V0.671875C26.2911 2.8381 15.3738 10.4039 8.95308 21.3545V5.96932L0 5.96934Z" fill="#01B798"/>
<path d="M21.3533 77.6004H5.96813V86.5548L31.3372 86.5537C32.5249 86.5537 33.6637 86.0822 34.5027 85.2432C35.3428 84.4031 35.8144 83.2643 35.8144 82.0776V56.7075H26.8599V70.4221C18.1502 65.6981 11.9171 57.4288 9.77376 47.7544H0.670654C2.83688 60.2626 10.4027 71.18 21.3533 77.6006L21.3533 77.6004Z" fill="#01B798"/>
<path d="M80.585 0.00012207H55.2159C54.0282 0.00012207 52.8894 0.471666 52.0504 1.31069C51.2103 2.15073 50.7388 3.28955 50.7388 4.47626V29.8464H59.6932V16.1318C68.403 20.8557 74.636 29.125 76.7794 38.7994H85.8825C83.7162 26.2912 76.1505 15.3739 65.1998 8.9532H80.585L80.585 0.00012207Z" fill="#01B798"/>
<path d="M68.6465 50.7386C63.8978 50.7386 59.3425 52.6248 55.9842 55.9841C52.6252 59.3424 50.7388 63.8974 50.7388 68.6464C50.7388 73.3962 52.625 77.9504 55.9842 81.3097C59.3425 84.668 63.8975 86.5541 68.6465 86.5541C73.3963 86.5541 77.9506 84.6679 81.3099 81.3097C84.6681 77.9507 86.5543 73.3965 86.5543 68.6464C86.5543 63.8976 84.6681 59.3424 81.3099 55.9841C77.9508 52.6251 73.3966 50.7386 68.6465 50.7386ZM68.6465 77.6003C66.2721 77.6003 63.9945 76.6572 62.3154 74.9771C60.6363 73.298 59.6932 71.0203 59.6932 68.6459C59.6932 66.2715 60.6363 63.9939 62.3154 62.3148C63.9944 60.6357 66.2721 59.6926 68.6465 59.6926C71.021 59.6926 73.2985 60.6357 74.9777 62.3148C76.6578 63.9938 77.6009 66.2715 77.6009 68.6459C77.6009 71.0203 76.6578 73.2979 74.9777 74.9771C73.2986 76.6572 71.0209 77.6003 68.6465 77.6003Z" fill="#01B798"/>
</svg>
