<svg width="128" height="128" viewBox="0 0 128 128" fill="none" xmlns="http://www.w3.org/2000/svg">
<path d="M7.09902 110.784V125.016C7.09902 125.555 7.31321 126.072 7.69441 126.453C8.0756 126.835 8.59294 127.049 9.13206 127.049H33.5286C34.0677 127.049 34.585 126.835 34.9662 126.453C35.3474 126.072 35.5616 125.555 35.5616 125.016V110.784C35.5544 108.638 34.8664 106.549 33.5967 104.82C32.3269 103.089 30.5417 101.805 28.4969 101.154C29.772 99.5592 30.4709 97.5787 30.4791 95.5366C30.4791 92.2684 28.7355 89.2479 25.9046 87.6131C23.0737 85.9794 19.5868 85.9794 16.7559 87.6131C13.925 89.2477 12.1814 92.2682 12.1814 95.5366C12.1896 97.5787 12.8885 99.559 14.1636 101.154C12.1188 101.806 10.3336 103.089 9.06384 104.82C7.79411 106.549 7.10613 108.638 7.09888 110.784H7.09902ZM21.3303 90.454C22.6781 90.454 23.9714 90.9895 24.9245 91.9425C25.8776 92.8954 26.413 94.1888 26.413 95.5367C26.413 96.8845 25.8775 98.1777 24.9245 99.1308C23.9715 100.084 22.6782 100.619 21.3303 100.619C19.9825 100.619 18.6892 100.084 17.7361 99.1308C16.783 98.1779 16.2477 96.8845 16.2477 95.5367C16.2495 94.1888 16.785 92.8974 17.738 91.9443C18.691 90.9913 19.9825 90.4559 21.3303 90.454L21.3303 90.454ZM11.1651 110.784C11.1669 109.167 11.8104 107.617 12.9531 106.473C14.0967 105.331 15.6469 104.687 17.2643 104.685H25.3965C27.0138 104.687 28.5641 105.331 29.7077 106.473C30.8504 107.617 31.4939 109.167 31.4957 110.784V122.983H11.1652L11.1651 110.784Z" fill="#FFC02F" stroke="#FFC02F" stroke-width="0.840325"/>
<path d="M49.7931 110.784V125.016C49.7931 125.555 50.0073 126.072 50.3885 126.453C50.7697 126.835 51.287 127.049 51.8262 127.049H76.2227C76.7618 127.049 77.2791 126.835 77.6603 126.453C78.0415 126.072 78.2557 125.555 78.2557 125.016V110.784C78.2485 108.638 77.5605 106.549 76.2908 104.82C75.021 103.089 73.2358 101.805 71.1909 101.154C72.4661 99.5592 73.165 97.5787 73.1732 95.5366C73.1732 92.2684 71.4296 89.2479 68.5987 87.6131C65.7678 85.9794 62.2809 85.9794 59.45 87.6131C56.6191 89.2477 54.8755 92.2682 54.8755 95.5366C54.8837 97.5787 55.5826 99.559 56.8577 101.154C54.8129 101.806 53.0277 103.089 51.7579 104.82C50.4882 106.549 49.8002 108.638 49.793 110.784H49.7931ZM64.0244 90.454C65.3722 90.454 66.6655 90.9895 67.6186 91.9425C68.5717 92.8954 69.1071 94.1888 69.1071 95.5367C69.1071 96.8845 68.5716 98.1777 67.6186 99.1308C66.6656 100.084 65.3723 100.619 64.0244 100.619C62.6766 100.619 61.3833 100.084 60.4302 99.1308C59.4771 98.1779 58.9418 96.8845 58.9418 95.5367C58.9436 94.1888 59.4791 92.8974 60.4321 91.9443C61.3851 90.9913 62.6766 90.4559 64.0244 90.454L64.0244 90.454ZM53.8592 110.784C53.861 109.167 54.5045 107.617 55.6472 106.473C56.7908 105.331 58.341 104.687 59.9584 104.685H68.0906C69.7079 104.687 71.2582 105.331 72.4018 106.473C73.5445 107.617 74.188 109.167 74.1898 110.784V122.983H53.8593L53.8592 110.784Z" fill="#FFC02F" stroke="#FFC02F" stroke-width="0.840325"/>
<path d="M92.487 110.784V125.016C92.487 125.555 92.7012 126.072 93.0823 126.453C93.4635 126.835 93.9809 127.049 94.52 127.049H118.917C119.456 127.049 119.973 126.835 120.354 126.453C120.735 126.072 120.95 125.555 120.95 125.016V110.784C120.942 108.638 120.254 106.549 118.985 104.82C117.715 103.089 115.93 101.805 113.885 101.154C115.16 99.5592 115.859 97.5787 115.867 95.5366C115.867 92.2684 114.123 89.2479 111.293 87.6131C108.462 85.9794 104.975 85.9794 102.144 87.6131C99.3129 89.2477 97.5694 92.2682 97.5694 95.5366C97.5776 97.5787 98.2764 99.559 99.5516 101.154C97.5067 101.806 95.7216 103.089 94.4518 104.82C93.182 106.549 92.4941 108.638 92.4868 110.784H92.487ZM106.718 90.454C108.066 90.454 109.359 90.9895 110.312 91.9425C111.266 92.8954 111.801 94.1888 111.801 95.5367C111.801 96.8845 111.265 98.1777 110.312 99.1308C109.359 100.084 108.066 100.619 106.718 100.619C105.37 100.619 104.077 100.084 103.124 99.1308C102.171 98.1779 101.636 96.8845 101.636 95.5367C101.637 94.1888 102.173 92.8974 103.126 91.9443C104.079 90.9913 105.37 90.4559 106.718 90.454L106.718 90.454ZM96.553 110.784C96.5549 109.167 97.1983 107.617 98.341 106.473C99.4846 105.331 101.035 104.687 102.652 104.685H110.784C112.402 104.687 113.952 105.331 115.096 106.473C116.238 107.617 116.882 109.167 116.884 110.784V122.983H96.5532L96.553 110.784Z" fill="#FFC02F" stroke="#FFC02F" stroke-width="0.840325"/>
<path d="M84.3547 27.4297V11.1653C84.352 8.47057 83.2792 5.88663 81.3742 3.98068C79.4682 2.07561 76.8843 1.00291 74.1895 1.00012H53.8591C51.1643 1.00284 48.5804 2.07564 46.6744 3.98068C44.7693 5.88665 43.6966 8.47057 43.6938 11.1653V27.4297C43.6966 30.1245 44.7694 32.7084 46.6744 34.6143C48.5804 36.5194 51.1643 37.5921 53.8591 37.5949H74.1895C76.8843 37.5922 79.4682 36.5194 81.3742 34.6143C83.2792 32.7084 84.3519 30.1245 84.3547 27.4297ZM80.2886 27.4297C80.2868 29.047 79.6433 30.5973 78.5006 31.7409C77.357 32.8836 75.8068 33.5271 74.1894 33.5289H53.859C52.2416 33.5271 50.6914 32.8836 49.5478 31.7409C48.4051 30.5973 47.7616 29.0471 47.7598 27.4297V11.1653C47.7616 9.54799 48.4051 7.99774 49.5478 6.85413C50.6914 5.71144 52.2416 5.06795 53.859 5.06614H74.1894C75.8068 5.06795 77.357 5.71144 78.5006 6.85413C79.6433 7.99772 80.2868 9.54797 80.2886 11.1653V27.4297Z" fill="#FFC02F" stroke="#FFC02F" stroke-width="0.840325"/>
<path d="M116.884 27.4297H96.5532C93.8584 27.4324 91.2744 28.5052 89.3685 30.4102C87.4634 32.3162 86.3907 34.9001 86.3879 37.5949V53.8593C86.3907 56.554 87.4635 59.138 89.3685 61.0439C91.2745 62.949 93.8584 64.0217 96.5532 64.0245H116.884C119.578 64.0217 122.162 62.949 124.068 61.0439C125.973 59.1379 127.046 56.554 127.049 53.8593V37.5949C127.046 34.9001 125.973 32.3162 124.068 30.4102C122.162 28.5052 119.578 27.4325 116.884 27.4297ZM122.983 53.8593C122.981 55.4766 122.337 57.0268 121.195 58.1705C120.051 59.3132 118.501 59.9566 116.884 59.9585H96.5531C94.9357 59.9566 93.3855 59.3132 92.2419 58.1705C91.0992 57.0269 90.4557 55.4766 90.4539 53.8593V37.5949C90.4557 35.9776 91.0992 34.4273 92.2419 33.2837C93.3855 32.141 94.9357 31.4975 96.5531 31.4957H116.884C118.501 31.4975 120.051 32.141 121.195 33.2837C122.337 34.4273 122.981 35.9775 122.983 37.5949V53.8593Z" fill="#FFC02F" stroke="#FFC02F" stroke-width="0.840325"/>
<path d="M11.1652 64.0245H31.4956C34.1904 64.0217 36.7744 62.949 38.6803 61.0439C40.5854 59.1379 41.6581 56.554 41.6609 53.8593V37.5949C41.6581 34.9001 40.5854 32.3162 38.6803 30.4102C36.7743 28.5052 34.1904 27.4325 31.4956 27.4297H11.1652C8.47045 27.4324 5.88651 28.5052 3.98056 30.4102C2.07549 32.3162 1.00279 34.9001 1 37.5949V53.8593C1.00272 56.554 2.07552 59.138 3.98056 61.0439C5.88653 62.949 8.47045 64.0217 11.1652 64.0245ZM5.06609 37.5949C5.0679 35.9776 5.71139 34.4273 6.85407 33.2837C7.99766 32.141 9.54791 31.4975 11.1653 31.4957H31.4957C33.1131 31.4975 34.6633 32.141 35.8069 33.2837C36.9496 34.4273 37.5931 35.9775 37.5949 37.5949V53.8593C37.5931 55.4766 36.9496 57.0268 35.8069 58.1705C34.6633 59.3132 33.1131 59.9566 31.4957 59.9585H11.1653C9.54794 59.9566 7.99769 59.3132 6.85407 58.1705C5.71139 57.0269 5.0679 55.4766 5.06609 53.8593V37.5949Z" fill="#FFC02F" stroke="#FFC02F" stroke-width="0.840325"/>
<path d="M72.4633 15.3685L67.9172 14.6733L65.8651 10.3014C65.5302 9.58806 64.8132 9.13245 64.0245 9.13245C63.2357 9.13245 62.5187 9.58806 62.1838 10.3014L60.1317 14.6733L55.5856 15.3685C54.8323 15.4829 54.207 16.0102 53.9646 16.7327C53.7223 17.4551 53.9047 18.252 54.4375 18.7975L57.7866 22.2299L56.9924 27.102C56.8662 27.8708 57.1912 28.6432 57.8274 29.0915C58.4645 29.5399 59.3014 29.5853 59.9821 29.2086L64.0244 26.9741L68.0668 29.2086C68.7475 29.5853 69.5843 29.5399 70.2215 29.0915C70.8577 28.6432 71.1826 27.8708 71.0565 27.102L70.2623 22.2299L73.6114 18.7975C74.1442 18.252 74.3266 17.4551 74.0843 16.7327C73.8419 16.0102 73.2166 15.4829 72.4633 15.3685H72.4633ZM66.6356 20.1254C66.1845 20.5874 65.9803 21.2363 66.0846 21.8725L66.3706 23.6242L65.0082 22.8718V22.8727C64.3965 22.5333 63.6523 22.5333 63.0405 22.8727L61.6782 23.6251L61.9641 21.8734V21.8725C62.0685 21.2363 61.8643 20.5874 61.4132 20.1254L60.1098 18.7894L61.818 18.5289H61.8189C62.4887 18.4263 63.0641 17.9961 63.3527 17.3826L64.0244 15.9504L64.696 17.3826C64.9846 17.997 65.5601 18.4263 66.2299 18.5298L67.938 18.7903L66.6356 20.1254Z" fill="#FFC02F" stroke="#FFC02F" stroke-width="0.840325"/>
<path d="M20.2778 55.5971C20.924 55.9892 21.7354 55.9892 22.3816 55.5971C25.7335 53.5704 33.528 48.1973 33.528 42.1156C33.5616 40.6389 33.077 39.1975 32.1567 38.0413C31.2363 36.886 29.9403 36.0909 28.4935 35.7932C25.9894 35.1887 23.3474 35.7705 21.3297 37.3706C19.3112 35.7705 16.669 35.1887 14.165 35.7932C12.7183 36.0909 11.4222 36.8869 10.5018 38.0423C9.58244 39.1976 9.09685 40.639 9.13136 42.1155C9.13136 48.1975 16.9259 53.5705 20.2778 55.5971V55.5971ZM15.1371 39.7421C15.452 39.6659 15.7751 39.6278 16.0991 39.6287C16.7844 39.6024 17.4633 39.7603 18.0669 40.0861C18.6704 40.4119 19.175 40.893 19.529 41.4802C19.9138 42.1046 20.5954 42.4849 21.3297 42.4849C22.064 42.4849 22.7456 42.1046 23.1304 41.4802C23.5833 40.7623 24.2531 40.2068 25.0427 39.8946C25.8324 39.5815 26.7 39.5289 27.5224 39.7421C28.6778 39.9255 29.5127 40.9465 29.4619 42.1156C29.4619 44.9519 25.5311 48.7194 21.3298 51.4576C17.1284 48.7184 13.1976 44.9519 13.1976 42.1156C13.1468 40.9466 13.9818 39.9255 15.1372 39.7421L15.1371 39.7421Z" fill="#FFC02F" stroke="#FFC02F" stroke-width="0.840325"/>
<path d="M104.685 48.9521L100.024 44.2907L97.1484 47.1651L103.248 53.2642C103.629 53.6454 104.146 53.8596 104.685 53.8596C105.224 53.8596 105.742 53.6454 106.123 53.2642L118.321 41.066L115.446 38.1907L104.685 48.9521Z" fill="#FFC02F" stroke="#FFC02F" stroke-width="0.840325"/>
<path d="M61.9912 49.7931H66.0573V53.8592H61.9912V49.7931Z" fill="#FFC02F" stroke="#FFC02F" stroke-width="0.840325"/>
<path d="M61.9912 41.6609H66.0573V45.727H61.9912V41.6609Z" fill="#FFC02F" stroke="#FFC02F" stroke-width="0.840325"/>
<path d="M61.9912 57.9253H66.0573V61.9914H61.9912V57.9253Z" fill="#FFC02F" stroke="#FFC02F" stroke-width="0.840325"/>
<path d="M61.9912 66.0574H66.0573V70.1235H61.9912V66.0574Z" fill="#FFC02F" stroke="#FFC02F" stroke-width="0.840325"/>
<path d="M61.9912 74.1897H66.0573V78.2558H61.9912V74.1897Z" fill="#FFC02F" stroke="#FFC02F" stroke-width="0.840325"/>
<path d="M104.685 68.0905H108.751V72.1565H104.685V68.0905Z" fill="#FFC02F" stroke="#FFC02F" stroke-width="0.840325"/>
<path d="M104.685 76.2228H108.751V80.2889H104.685V76.2228Z" fill="#FFC02F" stroke="#FFC02F" stroke-width="0.840325"/>
<path d="M19.2974 68.0905H23.3635V72.1565H19.2974V68.0905Z" fill="#FFC02F" stroke="#FFC02F" stroke-width="0.840325"/>
<path d="M19.2974 76.2228H23.3635V80.2889H19.2974V76.2228Z" fill="#FFC02F" stroke="#FFC02F" stroke-width="0.840325"/>
</svg>
