<svg id="Layer_1" data-name="Layer 1" xmlns="http://www.w3.org/2000/svg" viewBox="0 0 1080 424"><title>coffee cup logo svg</title><path d="M68.64,307.15q-6.66,3.74-18.15,8.73-12.19,5.26-14.55,5.26-1.24,0-4,.21c-1.85.14-3.23.21-4.16.21q-10.8,0-12.61-10.81-.27-1.94-.27-13.44a133.32,133.32,0,0,1,2.77-26.74q2.63-12.19,9.56-34.09v-1.66a17.3,17.3,0,0,1-6,.69,23.2,23.2,0,0,0-6.1.56,7.64,7.64,0,0,0-.69-2.22,7.64,7.64,0,0,1-.69-2.22q6.51-1.65,8.73-2.49,5.4-1.94,7.76-4.85,1.8-2.07,2.49-7.76a52.86,52.86,0,0,1,1.8-9,78.4,78.4,0,0,1,8.32-15.38q.27-.28,10-14a5.54,5.54,0,0,1,1.94,4.16q0,4.71-4.57,21.06-4.29,15.1-5.13,16.07,2.91,4.71,9.56,6,5.27.69,10.4,1.52-4.58,7.91-11.23,9.84L42.45,239Q39,244.11,39,268.21q0,20.24,5,26.88Q49.1,302.17,68.64,307.15Z"/><path d="M163.27,245.77q-5.27,9.42-22.72,26-23,21.89-24,22.86a107.59,107.59,0,0,1,1.31-12.13c.88-6,1.32-9.63,1.32-10.73q0-12.61-1.66-18.71-3.61-12.2-14.14-12.19-9.42,0-18.7,15.66-6.51,11.09-13.44,31.17-3.88,11.36-7.76,22.72-6,0-6-3.88,0-1.11,5-8.24t5.4-10.88q3.47-27.29,6.93-58.61V218.19A4.22,4.22,0,0,0,72,216.53a2.52,2.52,0,0,0-1.94,1q5.82-3.74,8.59-38.93,2.22-36.85,4.3-73.58,3-47.1,8.45-69,16.49-9.42,39.49-16.07-8.73,49.19-24.94,121.51Q89.28,215.16,84.16,244.24q6.23-2.49,18.84-18.84,17.31-22.72,20-25.63,5.26,1,9.28,11.5,2.36,6.09,6.38,23.48t7.06,25.15A103,103,0,0,0,163.27,245.77Z"/><path d="M240.86,275.83Q209.27,293,193.06,293q-14.13,0-26.6-10.67-13.17-11.09-13.17-25.08,0-6,16.49-18.57a297.11,297.11,0,0,1,31.73-20.78q17.33-9.84,20.65-9.84,3.74,0,8.59,3.46t4.85,6q0,6.24-20.23,21.2Q199.16,250.9,191,254.77q4.71,11.23,16.21,17.88,9.57,5.53,18.29,5.54Q236.3,278.19,240.86,275.83Zm-37.69-37.41q0-3.6-10.25-8.72c-.92,1.57-1.85,3.09-2.77,4.57a10.51,10.51,0,0,0-1.8,4.85,22.2,22.2,0,0,0,.83,5,23.35,23.35,0,0,1,.83,4.23q4.44-2.09,8.8-4.36T203.17,238.42Z"/><path d="M371.1,278.47q-.41.13-24,10-13.44,5.69-22.58,5.68a41.25,41.25,0,0,1-23.14-7.34q-13.86-9.15-13.86-24.11,0-7.07,15.94-21.2a240.42,240.42,0,0,1,31.73-23q17.59-10.8,22.86-10.67h7.48q-11.91,19.26-19.95,48.64A11.55,11.55,0,0,0,347,251q0-7.07-7.07-12.88-6.8-5.42-13.86-5.41-3.74,2.22-3.74,9,0,15.93,12.89,25.77Q346,276,358.63,276a20.88,20.88,0,0,0,10.81-2.77,8.58,8.58,0,0,0,.83,2.63A8.48,8.48,0,0,1,371.1,278.47Z"/><path d="M461.17,223q0,4.58-2.5,16.08-3.18,14.55-7.2,20.09-8.88,12.6-24.11,23-16.91,11.64-29.51,11.64-6.11,0-16.49-7.76-11.08-8.31-11.09-15.38c0-1.39,1.25-6,3.74-13.86a187.2,187.2,0,0,1,7.14-19.12,89.51,89.51,0,0,1,8.94-14.82,73.94,73.94,0,0,1,12.05-13.24q5.69-4.63,19.12-8.24,10.82-2.91,15.38-2.91c1.85,0,4.66.79,8.45,2.36a27.78,27.78,0,0,1,9.29,5.81c1.47,1.48,3,4.09,4.5,7.83S461.17,221.1,461.17,223Zm-25.36,32.84q0-9.69-11.92-20.64-10.8-10-19.26-11.23v19.68q-.13,6.24,9.36,17t15.17,10.81c2.31,0,3.46-.6,3.46-1.8Q435.82,260.32,435.81,255.88Z"/><path d="M567,83.1H542.64q-14.7,0-24.11,3.46L497.88,206q0,7.91,11.5,12.89a46.51,46.51,0,0,0,17.6,4q-2.64,4-12.75,4-2.49,0-6.93-.2t-6.09-.21q-5.41,0-5.68,1.8l-22.17,126q-1.8,12.75-3.61,25.63-2.91,16.35-7.62,17.6l15-152q0-1.11.21-4c.13-1.94.2-3.46.2-4.57q0-10.25-6.92-10.25a15.39,15.39,0,0,0-4.3.69v-6.51l8-3.61q5.12-2.34,6.51-5.95,4.57-12.2,4.57-37.28,0-5.67-.28-17.66t-.27-18.08q0-32,7.06-48.36,9.57-22.44,34.64-27.16,10,16.63,28.13,16.63Q564.11,79.36,567,83.1Z"/><path d="M629.1,83.1H604.71q-14.69,0-24.11,3.46L560,206q0,7.91,11.5,12.89a46.46,46.46,0,0,0,17.59,4q-2.62,4-12.74,4-2.5,0-6.93-.2t-6.1-.21c-3.6,0-5.5.6-5.68,1.8l-22.17,126q-1.8,12.75-3.6,25.63-2.91,16.35-7.62,17.6l15-152q0-1.11.21-4c.14-1.94.21-3.46.21-4.57q0-10.25-6.93-10.25a15.45,15.45,0,0,0-4.3.69v-6.51l8-3.61q5.13-2.34,6.51-5.95,4.58-12.2,4.58-37.28,0-5.67-.28-17.66t-.28-18.08q0-32,7.07-48.36,9.56-22.44,34.64-27.16,10,16.63,28.12,16.63Q626.19,79.36,629.1,83.1Z"/><path d="M671.77,275.83Q640.18,293,624,293q-14.13,0-26.6-10.67-13.17-11.09-13.17-25.08,0-6,16.49-18.57a297.11,297.11,0,0,1,31.73-20.78q17.33-9.84,20.65-9.84,3.73,0,8.59,3.46t4.85,6q0,6.24-20.23,21.2-16.21,12.2-24.39,16.07Q626.6,266,638.1,272.65q9.57,5.53,18.29,5.54Q667.21,278.19,671.77,275.83Zm-37.69-37.41q0-3.6-10.25-8.72c-.92,1.57-1.85,3.09-2.77,4.57a10.51,10.51,0,0,0-1.8,4.85,22.2,22.2,0,0,0,.83,5,23.35,23.35,0,0,1,.83,4.23q4.44-2.09,8.8-4.36T634.08,238.42Z"/><path d="M754.35,275.83Q722.76,293,706.55,293q-14.13,0-26.6-10.67-13.17-11.09-13.17-25.08,0-6,16.49-18.57A297.11,297.11,0,0,1,715,217.92q17.32-9.84,20.65-9.84,3.74,0,8.59,3.46t4.85,6q0,6.24-20.23,21.2-16.22,12.2-24.39,16.07,4.71,11.23,16.21,17.88,9.57,5.53,18.29,5.54Q749.78,278.19,754.35,275.83Zm-37.69-37.41q0-3.6-10.25-8.72c-.92,1.57-1.85,3.09-2.77,4.57a10.51,10.51,0,0,0-1.8,4.85,22.2,22.2,0,0,0,.83,5,23.35,23.35,0,0,1,.83,4.23q4.44-2.09,8.8-4.36T716.66,238.42Z"/><path d="M884.59,278.47q-.4.13-24,10-13.44,5.69-22.58,5.68a41.25,41.25,0,0,1-23.14-7.34Q801,277.63,801,262.67q0-7.07,15.94-21.2a240.42,240.42,0,0,1,31.73-23q17.6-10.8,22.86-10.67h7.48q-11.91,19.26-19.95,48.64a11.54,11.54,0,0,0,1.38-5.41q0-7.07-7.06-12.88-6.79-5.42-13.86-5.41-3.73,2.22-3.74,9,0,15.93,12.89,25.77,10.8,8.46,23.41,8.45a20.88,20.88,0,0,0,10.81-2.77,8.58,8.58,0,0,0,.83,2.63A8.48,8.48,0,0,1,884.59,278.47Z"/><path d="M998.76,268.49q-39.48,26.75-42,26.74h-8a197.24,197.24,0,0,1-1.25-22,169.14,169.14,0,0,1,1.11-19.53l-2.36-2.5q-6.51,7.77-25.77,22.59-18.29,14-28.82,19.95h-6.51c-1.3-1.29-1.94-3.56-1.94-6.79q0-1.53,3.81-16.14t3.81-16.56a30.46,30.46,0,0,0-2.5-12.89,28.82,28.82,0,0,0-4.29-7.06q-2.35-2.91-2.36-4.44,0-1.8,2.64-8.31a70.67,70.67,0,0,0,3.74-9.84c2.67,1,7.39,1.53,14.13,1.53q11.5,0,16.9-4.58c2.4,4.81,3.61,8.59,3.61,11.37q0,1.94-4.58,18.29t-4.57,18.15a5.77,5.77,0,0,0,.83,3.53,14.54,14.54,0,0,0,1.8,1.87h5.55q3.74,0,14.41-10.53,10-9.69,12.88-15,8-14.15,26.47-32.29-2.64,11.77-2.64,31.18,0,13.44,2.22,20.5,4.15,13.72,16.07,13.72a24,24,0,0,0,4.65-.48A22,22,0,0,1,998.76,268.49Z"/><path d="M1074,243.13q0,17.19-20,40.88-1,1.25-13.3,4.36t-17.46,3.12a8.14,8.14,0,0,1-2.77-.55,8.87,8.87,0,0,0-3-.56c-.93,0-2.59.7-5,2.08q-4.15,14-12.33,41.85-10.8,37.41-22,67.89,16.49-71.35,29.24-124.43l-.84,2.5q-13.57,53.48-31.59,120.41l18.71-108.36a36.2,36.2,0,0,0-5.68-2.77q-5.26-2.07-7.07-2.91v-4.85a7.18,7.18,0,0,1,1.39-4q1.25-1.78,2.35-3.74c1.39.84,3.6,1.25,6.65,1.25,2.5,0,3.93-.28,4.3-.83q6-23.7,7.34-41.71-1.11-3.31-5-3.32a27,27,0,0,0-6.58,1.31q-4.5,1.32-5.75,1.18c0-2.86-.23-4.52-.69-5,.37.37,1.34.56,2.91.56q4.71,0,45.31-18.57v4.16c0,.92-.67,2.15-2,3.67a11.29,11.29,0,0,0-2.29,3.26q-2.91,10.11-5.82,20.09a76.3,76.3,0,0,0-2.91,20.09q2.35-1.8,5.82-7.07a54.38,54.38,0,0,1,5.82-8,142.83,142.83,0,0,1,14.13-11.78q9.15-7.06,11.23-7.07,5.82,0,11.64,6.65Q1074,238.83,1074,243.13Zm-25.63,21.62q0-3.74-3.33-8.87-4-5.82-9.14-6.23a70.26,70.26,0,0,0-11.64,18q-4.15,9.55-8.45,19.12H1029q6.65,0,13.3-8.31Q1048.36,270.7,1048.37,264.75Z"/></svg>